<svg xmlns="http://www.w3.org/2000/svg" width="188.674" height="205.751" viewBox="0 0 188.674 205.751">
  <g id="Grupo_1201512" data-name="Grupo 1201512" transform="translate(-181.051 -920)">
    <rect id="Rectángulo_410725" data-name="Rectángulo 410725" width="188.674" height="205.751" rx="10" transform="translate(181.051 920)" fill="#2c411f"/>
    <g id="Grupo_1201511" data-name="Grupo 1201511" transform="translate(208.213 949.001)">
      <g id="Grupo_1201485" data-name="Grupo 1201485" transform="translate(24.88 75.168)">
        <g id="Grupo_1201480" data-name="Grupo 1201480" transform="translate(7.933)">
          <g id="Grupo_1201473" data-name="Grupo 1201473">
            <g id="Grupo_1201466" data-name="Grupo 1201466" transform="translate(29.951 11.706)">
              <g id="Grupo_1201465" data-name="Grupo 1201465">
                <path id="Trazado_1245938" data-name="Trazado 1245938" d="M38.651,44.361S56.1,31.493,67,48.966c0,0-12.239,26.459-28.134,20.777S38.651,44.361,38.651,44.361Z" transform="translate(-31.743 -39.796)" fill="#74c579"/>
              </g>
            </g>
            <g id="Grupo_1201468" data-name="Grupo 1201468" transform="translate(36.79 22.996)">
              <g id="Grupo_1201467" data-name="Grupo 1201467">
                <path id="Trazado_1245939" data-name="Trazado 1245939" d="M49.379,44.824a18.293,18.293,0,0,0-4.335,1.4,17.563,17.563,0,0,0-3.808,2.4,18.145,18.145,0,0,0-1.624,1.524A16.322,16.322,0,0,0,38.265,51.9a16.13,16.13,0,0,0-1.9,3.934l-1.573-.581a17.448,17.448,0,0,1,4.081-5.847,19.022,19.022,0,0,1,1.862-1.454,18.19,18.19,0,0,1,4.153-2.115A18.493,18.493,0,0,1,49.379,44.824Z" transform="translate(-34.789 -44.824)" fill="#7bd681"/>
              </g>
            </g>
            <g id="Grupo_1201470" data-name="Grupo 1201470">
              <g id="Grupo_1201469" data-name="Grupo 1201469">
                <path id="Trazado_1245940" data-name="Trazado 1245940" d="M54.676,78.942C64.458,48.1,47.408,32.675,20.71,34.772,20.71,34.772,5.195,76.845,54.676,78.942Z" transform="translate(-18.405 -34.583)" fill="#7bd681"/>
              </g>
            </g>
            <g id="Grupo_1201472" data-name="Grupo 1201472" transform="translate(19.53 22.179)">
              <g id="Grupo_1201471" data-name="Grupo 1201471">
                <path id="Trazado_1245941" data-name="Trazado 1245941" d="M27.1,44.46a64.051,64.051,0,0,1,9.061,7.708,37.906,37.906,0,0,1,6.956,9.808A27.515,27.515,0,0,1,45.86,73.89a34.79,34.79,0,0,1-2.282,12.119l-3.1-1.278a31.87,31.87,0,0,0,2.869-10.91,25.405,25.405,0,0,0-1.764-11.179,36.661,36.661,0,0,0-6.042-9.916A63.609,63.609,0,0,0,27.1,44.46Z" transform="translate(-27.103 -44.46)" fill="#74c579"/>
              </g>
            </g>
          </g>
          <g id="Grupo_1201475" data-name="Grupo 1201475" transform="translate(19.53 6.629)" opacity="0.3">
            <g id="Grupo_1201474" data-name="Grupo 1201474">
              <path id="Trazado_1245942" data-name="Trazado 1245942" d="M38.385,48.817c-1.137,1.137-4.489-.379-7.507-3.4s-4.535-6.369-3.4-7.507,4.489.379,7.507,3.4S39.522,47.68,38.385,48.817Z" transform="translate(-27.103 -37.535)" fill="#fff"/>
            </g>
          </g>
          <g id="Grupo_1201477" data-name="Grupo 1201477" transform="translate(31.542 19.89)" opacity="0.3">
            <g id="Grupo_1201476" data-name="Grupo 1201476">
              <path id="Trazado_1245943" data-name="Trazado 1245943" d="M37.164,48.686c-.533.471-1.97-.289-3.22-1.7s-1.828-2.933-1.3-3.4,1.97.289,3.22,1.7S37.7,48.215,37.164,48.686Z" transform="translate(-32.452 -43.44)" fill="#fff"/>
            </g>
          </g>
          <g id="Grupo_1201479" data-name="Grupo 1201479" transform="translate(48.705 28.501)" opacity="0.3">
            <g id="Grupo_1201478" data-name="Grupo 1201478">
              <path id="Trazado_1245944" data-name="Trazado 1245944" d="M40.337,54.506c-.729-.729.243-2.877,2.177-4.812s4.082-2.906,4.811-2.177-.243,2.877-2.177,4.812S41.066,55.235,40.337,54.506Z" transform="translate(-40.095 -47.275)" fill="#fff"/>
            </g>
          </g>
        </g>
        <g id="Grupo_1201482" data-name="Grupo 1201482" transform="translate(3.406 47.98)">
          <g id="Grupo_1201481" data-name="Grupo 1201481">
            <path id="Trazado_1245945" data-name="Trazado 1245945" d="M95.48,59.329V71H16.389V59.329a3.38,3.38,0,0,1,3.38-3.38H92.1A3.38,3.38,0,0,1,95.48,59.329Z" transform="translate(-16.389 -55.95)" fill="#4f5d99"/>
          </g>
        </g>
        <g id="Grupo_1201484" data-name="Grupo 1201484" transform="translate(0 55.504)">
          <g id="Grupo_1201483" data-name="Grupo 1201483">
            <path id="Trazado_1245946" data-name="Trazado 1245946" d="M100.775,61.014v11.62a1.714,1.714,0,0,1-1.714,1.714H16.587a1.714,1.714,0,0,1-1.714-1.714V61.014A1.714,1.714,0,0,1,16.587,59.3H99.061A1.714,1.714,0,0,1,100.775,61.014Z" transform="translate(-14.873 -59.3)" fill="#70c1f9"/>
          </g>
        </g>
      </g>
      <g id="Grupo_1201508" data-name="Grupo 1201508" transform="translate(10.232 6.83)">
        <g id="Grupo_1201496" data-name="Grupo 1201496" transform="translate(77.104)">
          <g id="Grupo_1201493" data-name="Grupo 1201493" transform="translate(3.009)">
            <g id="Grupo_1201488" data-name="Grupo 1201488">
              <g id="Grupo_1201487" data-name="Grupo 1201487">
                <g id="Grupo_1201486" data-name="Grupo 1201486">
                  <path id="Trazado_1245947" data-name="Trazado 1245947" d="M52.873,59.409,49.7,56.233,71.47,34.769,44.026,7.325,47.2,4.15l30.62,30.619Z" transform="translate(-44.026 -4.15)" fill="#4f5d99"/>
                </g>
              </g>
            </g>
            <g id="Grupo_1201490" data-name="Grupo 1201490" transform="translate(20.541 23.103)">
              <g id="Grupo_1201489" data-name="Grupo 1201489">
                <path id="Trazado_1245948" data-name="Trazado 1245948" d="M67.717,21.724a7.272,7.272,0,1,1-7.286-7.286A7.283,7.283,0,0,1,67.717,21.724Z" transform="translate(-53.174 -14.438)" fill="#ed524e"/>
              </g>
            </g>
            <g id="Grupo_1201492" data-name="Grupo 1201492" transform="translate(24.378 26.947)">
              <g id="Grupo_1201491" data-name="Grupo 1201491" transform="translate(0 0)">
                <path id="Trazado_1245949" data-name="Trazado 1245949" d="M61.753,19.592a3.436,3.436,0,1,1-3.443-3.442A3.441,3.441,0,0,1,61.753,19.592Z" transform="translate(-54.882 -16.15)" fill="#e9e9ff"/>
              </g>
            </g>
          </g>
          <g id="Grupo_1201495" data-name="Grupo 1201495" transform="translate(0 47.582)">
            <g id="Grupo_1201494" data-name="Grupo 1201494">
              <path id="Trazado_1245950" data-name="Trazado 1245950" d="M59.23,32.223a6.893,6.893,0,0,1-2.043,4.94L53,41.35a1.626,1.626,0,0,1-2.3,0l-7.539-7.557a1.626,1.626,0,0,1,0-2.3l3.955-3.955a7.176,7.176,0,0,1,9.733-.55A6.931,6.931,0,0,1,59.23,32.223Z" transform="translate(-42.686 -25.34)" fill="#ed524e"/>
            </g>
          </g>
        </g>
        <g id="Grupo_1201507" data-name="Grupo 1201507">
          <g id="Grupo_1201504" data-name="Grupo 1201504">
            <g id="Grupo_1201499" data-name="Grupo 1201499" transform="translate(1.29)">
              <g id="Grupo_1201498" data-name="Grupo 1201498">
                <g id="Grupo_1201497" data-name="Grupo 1201497">
                  <path id="Trazado_1245951" data-name="Trazado 1245951" d="M33.872,59.409l3.175-3.175L15.275,34.769,42.719,7.325,39.544,4.15,8.924,34.769Z" transform="translate(-8.924 -4.15)" fill="#4f5d99"/>
                </g>
              </g>
            </g>
            <g id="Grupo_1201501" data-name="Grupo 1201501" transform="translate(0 23.103)">
              <g id="Grupo_1201500" data-name="Grupo 1201500">
                <path id="Trazado_1245952" data-name="Trazado 1245952" d="M8.35,21.724a7.272,7.272,0,1,0,7.286-7.286A7.283,7.283,0,0,0,8.35,21.724Z" transform="translate(-8.35 -14.438)" fill="#ed524e"/>
              </g>
            </g>
            <g id="Grupo_1201503" data-name="Grupo 1201503" transform="translate(3.836 26.947)">
              <g id="Grupo_1201502" data-name="Grupo 1201502" transform="translate(0 0)">
                <path id="Trazado_1245953" data-name="Trazado 1245953" d="M10.058,19.592A3.436,3.436,0,1,0,13.5,16.15,3.441,3.441,0,0,0,10.058,19.592Z" transform="translate(-10.058 -16.15)" fill="#e9e9ff"/>
              </g>
            </g>
          </g>
          <g id="Grupo_1201506" data-name="Grupo 1201506" transform="translate(21.55 47.582)">
            <g id="Grupo_1201505" data-name="Grupo 1201505">
              <path id="Trazado_1245954" data-name="Trazado 1245954" d="M17.946,32.223a6.893,6.893,0,0,0,2.043,4.94l4.187,4.188a1.626,1.626,0,0,0,2.3,0l7.539-7.557a1.626,1.626,0,0,0,0-2.3l-3.955-3.955a7.176,7.176,0,0,0-9.733-.55A6.931,6.931,0,0,0,17.946,32.223Z" transform="translate(-17.946 -25.34)" fill="#ed524e"/>
            </g>
          </g>
        </g>
      </g>
      <g id="Grupo_1201510" data-name="Grupo 1201510" transform="translate(6.838 1.999)">
        <g id="Grupo_1201509" data-name="Grupo 1201509">
          <path id="Trazado_1245955" data-name="Trazado 1245955" d="M128.825,3.537V13.963a1.538,1.538,0,0,1-1.538,1.538H8.376a1.538,1.538,0,0,1-1.538-1.538V3.537A1.538,1.538,0,0,1,8.376,2H127.287a1.538,1.538,0,0,1,1.538,1.538Z" transform="translate(-6.838 -1.999)" fill="#70c1f9"/>
        </g>
      </g>
    </g>
  </g>
</svg>
