<svg xmlns="http://www.w3.org/2000/svg" xmlns:xlink="http://www.w3.org/1999/xlink" width="240.533" height="237.936" viewBox="0 0 240.533 237.936">
  <defs>
    <filter id="BG" x="0" y="0" width="240.533" height="237.936" filterUnits="userSpaceOnUse">
      <feOffset dy="3" input="SourceAlpha"/>
      <feGaussianBlur stdDeviation="3" result="blur"/>
      <feFlood flood-opacity="0.161"/>
      <feComposite operator="in" in2="blur"/>
      <feComposite in="SourceGraphic"/>
    </filter>
  </defs>
  <g id="Grupo_1201607" data-name="Grupo 1201607" transform="translate(-197.051 -1955)">
    <g transform="matrix(1, 0, 0, 1, 197.05, 1955)" filter="url(#BG)">
      <rect id="BG-2" data-name="BG" width="222.533" height="219.936" rx="10" transform="translate(9 6)" fill="#d9e8f9"/>
    </g>
    <g id="Grupo_1201606" data-name="Grupo 1201606" transform="translate(228.051 1981)">
      <g id="Grupo_1201604" data-name="Grupo 1201604" transform="translate(2.641 2.641)">
        <circle id="Elipse_12363" data-name="Elipse 12363" cx="58.337" cy="58.337" r="58.337" transform="translate(29.169 0)" fill="#0ed290"/>
        <path id="Trazado_1246105" data-name="Trazado 1246105" d="M246.682,7.5c-1.708,0-3.4.078-5.067.221a58.336,58.336,0,0,1,0,116.231c1.67.144,3.359.222,5.067.222a58.337,58.337,0,0,0,0-116.674Z" transform="translate(-159.175 -7.5)" fill="#00c285"/>
        <circle id="Elipse_12364" data-name="Elipse 12364" cx="58.337" cy="58.337" r="58.337" transform="translate(0 58.337)" fill="#e2f1fe"/>
        <path id="Trazado_1246106" data-name="Trazado 1246106" d="M163.846,173.167c-1.708,0-3.4.078-5.067.221a58.336,58.336,0,0,1,0,116.231c1.67.144,3.359.221,5.067.221a58.337,58.337,0,1,0,0-116.674Z" transform="translate(-105.508 -114.83)" fill="#c4e3ff"/>
        <circle id="Elipse_12365" data-name="Elipse 12365" cx="58.337" cy="58.337" r="58.337" transform="translate(58.337 58.337)" fill="#6c7fd8"/>
        <path id="Trazado_1246107" data-name="Trazado 1246107" d="M329.512,173.167c-1.708,0-3.4.078-5.067.221a58.336,58.336,0,0,1,0,116.231c1.67.144,3.359.221,5.067.221a58.337,58.337,0,1,0,0-116.674Z" transform="translate(-212.837 -114.83)" fill="#4f66d0"/>
        <path id="Trazado_1246108" data-name="Trazado 1246108" d="M149.562,180.973a58.367,58.367,0,0,0-28.685,43A58.368,58.368,0,0,1,91.71,180.7a58.412,58.412,0,0,1,57.852.275Z" transform="translate(-62.057 -114.832)" fill="#8ac9fe"/>
        <path id="Trazado_1246109" data-name="Trazado 1246109" d="M177.1,181.114a75.138,75.138,0,0,0-25.452,42.507,58.408,58.408,0,0,0,8.06,5.5,58.367,58.367,0,0,1,28.685-43A58.1,58.1,0,0,0,177.1,181.114Z" transform="translate(-100.891 -119.978)" fill="#60b7ff"/>
        <path id="Trazado_1246110" data-name="Trazado 1246110" d="M231.91,238.333a58.411,58.411,0,0,1-57.37,0,58.367,58.367,0,0,1,28.685-43A58.367,58.367,0,0,1,231.91,238.333Z" transform="translate(-115.719 -129.188)" fill="#ffc344"/>
        <path id="Trazado_1246111" data-name="Trazado 1246111" d="M265.636,242.708a58.086,58.086,0,0,0,9.733-4.376,58.367,58.367,0,0,0-28.685-43,58.43,58.43,0,0,0-5.064,3.3A58.262,58.262,0,0,1,265.636,242.708Z" transform="translate(-159.178 -129.188)" fill="#f6ab31"/>
        <path id="Trazado_1246112" data-name="Trazado 1246112" d="M231.5,324.979a58.325,58.325,0,0,1-29.167,50.535,58.424,58.424,0,0,1-28.685-58.064,58.41,58.41,0,0,0,57.37,0A58.353,58.353,0,0,1,231.5,324.979Z" transform="translate(-114.832 -208.306)" fill="#8ac9fe"/>
        <path id="Trazado_1246113" data-name="Trazado 1246113" d="M275.365,317.45a58.074,58.074,0,0,1-9.735,4.376q.083,1.566.086,3.153a58.254,58.254,0,0,1-24.1,47.235,58.4,58.4,0,0,0,5.066,3.3,58.424,58.424,0,0,0,28.685-58.063Z" transform="translate(-159.174 -208.306)" fill="#60b7ff"/>
        <path id="Trazado_1246114" data-name="Trazado 1246114" d="M313.856,180.7a58.357,58.357,0,0,1-29.171,43.277,58.367,58.367,0,0,0-28.685-43,58.418,58.418,0,0,1,57.856-.275Z" transform="translate(-168.494 -114.832)" fill="#26a6fe"/>
        <path id="Trazado_1246115" data-name="Trazado 1246115" d="M354.757,182.121a58.208,58.208,0,0,1-20.6,41.4,58.1,58.1,0,0,1,1.162,6.255A58.357,58.357,0,0,0,364.494,186.5a58.081,58.081,0,0,0-9.737-4.377Z" transform="translate(-219.132 -120.631)" fill="#0593fc"/>
      </g>
      <g id="Grupo_1201605" data-name="Grupo 1201605" transform="translate(0 0)">
        <path id="Trazado_1246116" data-name="Trazado 1246116" d="M85,331.575c-.009-.024-.019-.049-.029-.073a3.05,3.05,0,0,0-2.829-1.9h0a3.05,3.05,0,0,0-2.829,1.9l-.024.06-6.939,18.22a2.641,2.641,0,1,0,4.936,1.88l1.08-2.837h7.5c.719,1.681,1.025,4.351,3.539,4.538a2.643,2.643,0,0,0,2.47-3.574Zm-4.625,11.974,1.757-4.614,1.741,4.614Z" transform="translate(-46.761 -213.541)"/>
        <path id="Trazado_1246117" data-name="Trazado 1246117" d="M238.21,69.93h-5.368a2.641,2.641,0,0,0-2.641,2.641v18.48a2.641,2.641,0,0,0,2.641,2.641h.012s4.934-.022,6.294-.022a7.61,7.61,0,0,0,5-13.355A6.879,6.879,0,0,0,238.21,69.93Zm0,5.282a1.611,1.611,0,1,1,0,3.223l-2.727,0V75.212Zm.937,13.176c-.682,0-2.257.006-3.664.011V83.725l3.664,0a2.333,2.333,0,1,1,0,4.666Z" transform="translate(-149.139 -45.305)"/>
        <path id="Trazado_1246118" data-name="Trazado 1246118" d="M398.72,345.32c-2.756-2.077-4.145,2.1-7.518,1.991a6.6,6.6,0,1,1,3.688-12.073,2.641,2.641,0,0,0,2.956-4.377,11.881,11.881,0,1,0-6.645,21.731,10.079,10.079,0,0,0,6.828-2.5C399.239,349.272,400.449,346.934,398.72,345.32Z" transform="translate(-245.749 -213.038)"/>
        <path id="Trazado_1246119" data-name="Trazado 1246119" d="M150.817,67.123A61,61,0,0,0,90.147,0,60.984,60.984,0,0,0,29.382,55.852a2.641,2.641,0,1,0,5.264.438,55.7,55.7,0,0,1,111.2,4.688c0,1.137-.038,2.265-.106,3.386a60.907,60.907,0,0,0-55.6,1.421,60.961,60.961,0,1,0,.014,107.086A60.972,60.972,0,0,0,150.817,67.123Zm-31.5-3.5a55.352,55.352,0,0,1,25.8,6.348A55.8,55.8,0,0,1,120.8,107.455a60.41,60.41,0,0,0-2.521-9.027A61.272,61.272,0,0,0,98.946,71.641q-1.724-1.373-3.545-2.62A55.36,55.36,0,0,1,119.315,63.619ZM90.147,116.674q-1.286,0-2.56-.059l22.875-22.873q1.208,2.329,2.2,4.784L94.7,116.486q-2.254.184-4.556.188ZM75.14,114.61l29.654-29.654q1.546,1.964,2.917,4.068L80.843,115.889a55.306,55.306,0,0,1-5.7-1.28Zm-10.379-4.079,33-33q1.856,1.632,3.565,3.425L69.564,112.717q-2.459-.982-4.8-2.186Zm1.9-9.368a55.983,55.983,0,0,1,23.479-29.27q1.78,1.1,3.47,2.321Zm47.907,2.932a55.272,55.272,0,0,1,1.383,6.231,55.294,55.294,0,0,1-12.306,4.692ZM84.871,69.025A61.113,61.113,0,0,0,59.5,107.452,55.627,55.627,0,0,1,35.177,69.968a55.554,55.554,0,0,1,49.695-.943Zm34.444,105.986a55.757,55.757,0,0,1-23.886-5.377A61.06,61.06,0,0,0,121.7,124.885a2.641,2.641,0,0,0-5.26-.477,55.7,55.7,0,1,1-86.12-51.571,60.992,60.992,0,0,0,28.322,40.322,61.027,61.027,0,0,0,19.08,50.751,2.641,2.641,0,0,0,3.6-3.862,55.9,55.9,0,0,1-17.71-40.733c0-1.143.039-2.277.107-3.4q2.552,1.232,5.226,2.228a60.986,60.986,0,0,0,81.013-45.3,55.68,55.68,0,0,1-30.649,102.176Z" transform="translate(0 0)"/>
      </g>
    </g>
  </g>
</svg>
