<svg xmlns="http://www.w3.org/2000/svg" xmlns:xlink="http://www.w3.org/1999/xlink" width="240.533" height="237.936" viewBox="0 0 240.533 237.936">
  <defs>
    <filter id="BG" x="0" y="0" width="240.533" height="237.936" filterUnits="userSpaceOnUse">
      <feOffset dy="3" input="SourceAlpha"/>
      <feGaussianBlur stdDeviation="3" result="blur"/>
      <feFlood flood-opacity="0.161"/>
      <feComposite operator="in" in2="blur"/>
      <feComposite in="SourceGraphic"/>
    </filter>
  </defs>
  <g id="Grupo_1201603" data-name="Grupo 1201603" transform="translate(-197.051 -538)">
    <g transform="matrix(1, 0, 0, 1, 197.05, 538)" filter="url(#BG)">
      <rect id="BG-2" data-name="BG" width="222.533" height="219.936" rx="10" transform="translate(9 6)" fill="#a1c6f1"/>
    </g>
    <g id="Grupo_1201602" data-name="Grupo 1201602" transform="translate(229.051 564.905)">
      <g id="Grupo_1201599" data-name="Grupo 1201599" transform="translate(2.613 2.712)">
        <g id="Grupo_1201592" data-name="Grupo 1201592" transform="translate(28.899)">
          <g id="Grupo_1201589" data-name="Grupo 1201589" transform="translate(0 85.586)">
            <path id="Trazado_1246071" data-name="Trazado 1246071" d="M170.627,252.968a57.625,57.625,0,0,1,34.821,52.889V342.83H90.343V305.857a57.625,57.625,0,0,1,34.821-52.889Z" transform="translate(-90.343 -252.968)" fill="#fff"/>
          </g>
          <path id="Trazado_1246072" data-name="Trazado 1246072" d="M133.884,252.968a57.566,57.566,0,0,0-34.821,52.889V342.83h-8.72V305.857a57.625,57.625,0,0,1,34.821-52.889Z" transform="translate(-90.343 -167.382)" fill="#e3e9ee"/>
          <g id="Grupo_1201590" data-name="Grupo 1201590" transform="translate(33.311 83.364)">
            <path id="Trazado_1246073" data-name="Trazado 1246073" d="M185.843,246.6V298.57a5.232,5.232,0,1,0,10.464,0V246.6Z" transform="translate(-185.843 -246.598)" fill="#ff6a47"/>
            <path id="Trazado_1246074" data-name="Trazado 1246074" d="M294.843,246.6V298.57a5.232,5.232,0,0,0,10.464,0V246.6Z" transform="translate(-256.823 -246.598)" fill="#ff6a47"/>
          </g>
          <g id="Grupo_1201591" data-name="Grupo 1201591" transform="translate(1.47)">
            <path id="Trazado_1246075" data-name="Trazado 1246075" d="M176.969,15.638A10.464,10.464,0,0,0,166.79,7.6h-32.3a10.464,10.464,0,0,0-10.179,8.04L119.246,36.9,94.556,44.03a8.912,8.912,0,0,0,8.912,8.912h94.341a8.912,8.912,0,0,0,8.912-8.912L182.031,36.9Z" transform="translate(-94.556 -7.598)" fill="#e6cc9f"/>
          </g>
          <path id="Trazado_1246076" data-name="Trazado 1246076" d="M175.343,137.6l.086,26.16a27.9,27.9,0,0,0,55.636,0l.086-26.16" transform="translate(-145.695 -92.254)" fill="#ffceb7"/>
          <path id="Trazado_1246077" data-name="Trazado 1246077" d="M225.221,56.6H168.25l-2.907,12.208h62.785Z" transform="translate(-139.183 -39.507)" fill="#ff6a47"/>
          <path id="Trazado_1246078" data-name="Trazado 1246078" d="M124.306,15.639,119.245,36.9,94.553,44.031a8.913,8.913,0,0,0,8.915,8.912l16.339-6.427a13.574,13.574,0,0,0,8.29-9.728L134.488,7.6a10.465,10.465,0,0,0-10.182,8.04Z" transform="translate(-93.085 -7.599)" fill="#dfba7f"/>
          <path id="Trazado_1246079" data-name="Trazado 1246079" d="M176.843,56.6l-2.672,12.208h-8.828L168.249,56.6Z" transform="translate(-139.183 -39.507)" fill="#fd3501"/>
          <path id="Trazado_1246080" data-name="Trazado 1246080" d="M184.149,163.758l-.086-26.16h-8.72l.086,26.16a27.885,27.885,0,0,0,32.178,25.467A27.909,27.909,0,0,1,184.149,163.758Z" transform="translate(-145.695 -92.254)" fill="#ffaa81"/>
        </g>
        <g id="Grupo_1201594" data-name="Grupo 1201594" transform="translate(27.697 106.432)">
          <g id="Grupo_1201593" data-name="Grupo 1201593" transform="translate(0 2.918)">
            <path id="Trazado_1246081" data-name="Trazado 1246081" d="M95.9,348.626c-13.785-9.76-7.64-27.529-7.64-27.529s11.488,4.021,15.39,11.821c0,0,14.647,19.63,9.049,24.112C108.631,360.289,95.9,348.626,95.9,348.626Z" transform="translate(-86.897 -321.097)" fill="#8ae897"/>
          </g>
          <path id="Trazado_1246082" data-name="Trazado 1246082" d="M104.622,348.626c-9.73-6.889-9.53-17.766-8.571-23.571a39.834,39.834,0,0,0-7.789-3.958s-6.145,17.768,7.64,27.529c0,0,12.729,11.663,16.8,8.4a3.2,3.2,0,0,0,1.043-1.555A63.381,63.381,0,0,1,104.622,348.626Z" transform="translate(-86.897 -318.179)" fill="#54e072"/>
          <path id="Trazado_1246083" data-name="Trazado 1246083" d="M134.854,340.127c4.366,12.749,20.491,18.775,20.491,18.775s9.046-14.646,4.679-27.4-20.491-18.775-20.491-18.775-9.046,14.646-4.679,27.4Z" transform="translate(-117.351 -312.732)" fill="#8ae897"/>
          <path id="Trazado_1246084" data-name="Trazado 1246084" d="M143.574,340.127c-3.059-8.931.464-18.792,2.848-23.9a44.191,44.191,0,0,0-6.889-3.5s-9.046,14.646-4.679,27.4S155.345,358.9,155.345,358.9a37.713,37.713,0,0,0,1.831-3.5C152.236,352.367,146.036,347.316,143.574,340.127Z" transform="translate(-117.351 -312.732)" fill="#54e072"/>
        </g>
        <g id="Grupo_1201595" data-name="Grupo 1201595" transform="translate(96.384 104.221)">
          <path id="Trazado_1246085" data-name="Trazado 1246085" d="M399.348,346.847l-13.936-15.613,12.458-19.923a10.464,10.464,0,0,1,16.679-1.42l9.3,10.42a10.464,10.464,0,0,1-3.3,16.411Z" transform="translate(-349.976 -306.395)" fill="#8ae897"/>
          <path id="Trazado_1246086" data-name="Trazado 1246086" d="M394.132,331.235l12.457-19.923a10.375,10.375,0,0,1,4.515-3.97,10.472,10.472,0,0,0-13.235,3.97l-12.458,19.923,13.937,15.613,6.114-2.919Z" transform="translate(-349.976 -306.396)" fill="#54e072"/>
          <path id="Trazado_1246087" data-name="Trazado 1246087" d="M401.362,351.082l-9.291-10.409,24.654-22.007a6.976,6.976,0,1,1,9.291,10.409Z" transform="translate(-354.312 -313.232)" fill="#8ae897"/>
          <path id="Trazado_1246088" data-name="Trazado 1246088" d="M327.615,391.633c8.206-5.975,14.815-12.654,15.427-18.091.877-7.8-13.057-23.409-20.9-23.419-11.751-.016-32.331,26.811-37.626,39.35a14.159,14.159,0,0,0-.693,2.16Z" transform="translate(-283.818 -334.871)" fill="#ffceb7"/>
          <path id="Trazado_1246089" data-name="Trazado 1246089" d="M311.022,398.928a27.865,27.865,0,0,0-6.3-17.667c-8.75,8.884-17.1,21.14-20.208,28.489a14.158,14.158,0,0,0-.693,2.16h23.989A27.727,27.727,0,0,0,311.022,398.928Z" transform="translate(-283.818 -355.147)" fill="#ffaa81"/>
        </g>
        <g id="Grupo_1201597" data-name="Grupo 1201597" transform="translate(61.331 128.817)">
          <path id="Trazado_1246090" data-name="Trazado 1246090" d="M204.333,387.847l8.645,8.371,8.645-8.371,8.647,8.371,7.931-7.678a19.188,19.188,0,0,0-17.637-11.629H205.4a19.187,19.187,0,0,0-17.637,11.629l7.929,7.678Z" transform="translate(-186.212 -376.911)" fill="#8ae897"/>
          <path id="Trazado_1246091" data-name="Trazado 1246091" d="M235.313,408.955l-7.931,7.678-8.647-8.371-8.645,8.371-8.645-8.371-8.645,8.371-7.929-7.678a19.19,19.19,0,0,0,17.637,26.739h15.169a19.19,19.19,0,0,0,17.637-26.739Z" transform="translate(-183.323 -397.326)" fill="#ff6a47"/>
          <g id="Grupo_1201596" data-name="Grupo 1201596" transform="translate(0)">
            <path id="Trazado_1246092" data-name="Trazado 1246092" d="M196.479,388.539c2.276-7.084,9.725-11.629,17.637-11.629H205.4a19.187,19.187,0,0,0-17.637,11.629l7.93,7.676S195.934,390.236,196.479,388.539Z" transform="translate(-186.212 -376.91)" fill="#54e072"/>
            <path id="Trazado_1246093" data-name="Trazado 1246093" d="M197.715,413.166l-4.915,4.76-7.93-7.676a19.719,19.719,0,0,0-1.547,7.677h0a19.182,19.182,0,0,0,19.181,19.062h8.72C201.519,436.99,194,424.032,197.715,413.166Z" transform="translate(-183.323 -398.621)" fill="#fd3501"/>
          </g>
        </g>
        <g id="Grupo_1201598" data-name="Grupo 1201598" transform="translate(0 116.433)">
          <path id="Trazado_1246094" data-name="Trazado 1246094" d="M18.962,355.508l6.645,3.448,2.8-6.446a46.317,46.317,0,0,1-4.456-6.606,8.792,8.792,0,0,0-16.289,6.039c.42,2.074.99,4.465,1.761,7.032l6.548,3.4Z" transform="translate(-7.491 -341.406)" fill="#8ae897"/>
          <path id="Trazado_1246095" data-name="Trazado 1246095" d="M79.368,392.118a14.893,14.893,0,0,0-16.118-9.741c-11.926,1.534-23.208,1.275-31.223-9.136l-2.8,6.446-6.645-3.448L19.592,383.1l-6.548-3.4c3.328,11.082,10.394,25.46,25.236,31.944,10.2,4.456,22.3,2.5,31.5-.372a14.865,14.865,0,0,0,9.591-19.16Z" transform="translate(-11.107 -362.137)" fill="#fde31d"/>
          <path id="Trazado_1246096" data-name="Trazado 1246096" d="M14.643,351.948a8.787,8.787,0,0,1,5.128-9.806,8.782,8.782,0,0,0-12.1,9.806c.42,2.074.99,4.465,1.761,7.032l6.548,3.4.9-2.071c-.8-2.749-1.887-6.643-2.234-8.358Z" transform="translate(-7.491 -341.411)" fill="#54e072"/>
          <path id="Trazado_1246097" data-name="Trazado 1246097" d="M45.257,423.721c-14.223-6.214-21.3-19.675-24.8-30.539l-.867,1.993-6.548-3.4c3.328,11.082,10.394,25.46,25.236,31.944a36.1,36.1,0,0,0,17.235,2.488A32.131,32.131,0,0,1,45.257,423.721Z" transform="translate(-11.108 -374.207)" fill="#e9ca1c"/>
        </g>
        <path id="Trazado_1246098" data-name="Trazado 1246098" d="M186.9,483.594H29V477.85a8.72,8.72,0,0,1,8.72-8.72H178.179a8.72,8.72,0,0,1,8.72,8.72v5.744Z" transform="translate(-21.5 -308.146)" fill="#e6cc9f"/>
        <path id="Trazado_1246099" data-name="Trazado 1246099" d="M37.723,483.594H29V477.85a8.72,8.72,0,0,1,8.72-8.72Z" transform="translate(-21.499 -308.146)" fill="#dfba7f"/>
      </g>
      <g id="Grupo_1201600" data-name="Grupo 1201600" transform="translate(44.078 149.965)">
        <path id="Trazado_1246100" data-name="Trazado 1246100" d="M126.368,429.763H131.6V435h-5.232Z" transform="translate(-126.368 -429.763)" fill="#fff"/>
        <path id="Trazado_1246101" data-name="Trazado 1246101" d="M156.368,429.763H161.6V435h-5.232Z" transform="translate(-145.904 -429.763)" fill="#fff"/>
      </g>
      <g id="Grupo_1201601" data-name="Grupo 1201601" transform="translate(0 0.095)">
        <path id="Trazado_1246102" data-name="Trazado 1246102" d="M207.343,176h5.232v14.962h-5.232Z" transform="translate(-135.021 -114.645)"/>
        <path id="Trazado_1246103" data-name="Trazado 1246103" d="M288.343,176h5.232v14.962h-5.232Z" transform="translate(-187.768 -114.645)"/>
        <path id="Trazado_1246104" data-name="Trazado 1246104" d="M175.383,119.776a9.614,9.614,0,0,0-10.467-11.724,13.132,13.132,0,0,0-20.245,2.41l-2.049,3.277a60.086,60.086,0,0,0-8.221-12.112l-3.94,3.442A54.78,54.78,0,0,1,139.335,119l-.445.713c-8.024-1.088-16.418,6.86-22.967,13.717V93.253a55,55,0,0,1,11.055,8.179l3.612-3.786a60.113,60.113,0,0,0-14.666-10.312v-.714a30.391,30.391,0,0,0,3.569-12.211c.028-.094.072-23.638.085-23.738h16.657c7.405-.089,12.208-6.318,11.531-13.5l-25.116-7.256-4.708-19.776A13.04,13.04,0,0,0,105.214.1H83.529V5.327h21.685a7.825,7.825,0,0,1,7.637,6.03l1.388,5.83H63.89l1.388-5.829a7.825,7.825,0,0,1,7.637-6.03H78.3V.1H72.915a13.039,13.039,0,0,0-12.726,10.05L55.481,29.922,30.364,37.177v1.967A11.584,11.584,0,0,0,41.9,50.673H58.553l.077,23.553.007.185a30.39,30.39,0,0,0,3.569,12.211v.714a60.421,60.421,0,0,0-25.45,24.1,43.306,43.306,0,0,0-6.695-2.715c-2.408,5.867-3.956,16.465.415,24.66-3.477-2.442-6.372-6.05-9.113-11.015a11.5,11.5,0,0,0-11.5-5.734c.21-3.482,2.263-5.84,6.259-7.26l-1.75-4.931c-8.313,3.113-10.1,8.7-9.679,14.28A11.479,11.479,0,0,0,.224,130.2c1.577,7.789,5.559,21.347,15.143,31.422A11.355,11.355,0,0,0,7.5,172.416v5.744h5.232v-5.744a6.111,6.111,0,0,1,6.1-6.1H159.292a6.111,6.111,0,0,1,6.1,6.1v5.744h5.232v-5.744a11.349,11.349,0,0,0-11.336-11.336H150.3c5.687-5.118,10.719-10.537,10.559-16.761l9.839-4.7a13.129,13.129,0,0,0,4.685-19.844Zm-6.075-5.108a4.65,4.65,0,0,1,.347,5.536l-13.922,12.427a41.308,41.308,0,0,0-5.808-6.505l13.932-12.437A4.64,4.64,0,0,1,169.308,114.668Zm-20.2-1.432a7.9,7.9,0,0,1,10.444-2.716L145.8,122.8c-.62-.425-1.261-.829-1.916-1.2Zm-34.242,37.477a16.5,16.5,0,0,1-3.65,10.367H72.91a16.881,16.881,0,0,0,1.458-7.52l7.7-7.455,8.646,8.371,8.647-8.371L108,154.477l6.645-6.435a16.7,16.7,0,0,1,.216,2.671ZM50.879,137.2c-4.057-8.549.452-20.371,2.764-24.7,5.138,2.258,16.753,9.7,17.708,19.865A21.894,21.894,0,0,0,65,138.6c-4.546-2.484-9.026-2.109-14.124-1.4Zm16.56-43.551a30.092,30.092,0,0,0,5.232,4.22v23.576a32.345,32.345,0,0,0-5.232-6.05Zm43.252,39.141a21.893,21.893,0,0,0-5.232-2.658V97.867a30.093,30.093,0,0,0,5.232-4.22ZM100.226,129c-1.315-.148-5.113-.068-6.49-.086v-9.069H88.5v9.069c-3.1.03-7.636-.22-10.6.629v-29a30.718,30.718,0,0,0,22.323,0ZM71.413,139a16.46,16.46,0,0,1,11.715-4.853H98.3a16.622,16.622,0,0,1,14.448,8.457L108,147.193l-8.646-8.371-8.647,8.371-8.647-8.372-8.643,8.371-.983-.951a18.086,18.086,0,0,0-3.232-4.513A16.583,16.583,0,0,1,71.413,139ZM115.484,22.419l1.661,6.976H60.984l1.661-6.976ZM37.443,43.6a6.275,6.275,0,0,1-1.561-2.568l22.16-6.4h62.044l22.158,6.4a6.309,6.309,0,0,1-6.011,4.412H41.9A6.254,6.254,0,0,1,37.443,43.6Zm76.9,7.075-.077,23.441a25.28,25.28,0,0,1-50.4,0l-.077-23.441ZM50.219,102.342a54.9,54.9,0,0,1,11.987-9.088V111.33A44.111,44.111,0,0,0,51.4,105.939c-1.778,3.059-2.882,4.06-5.564,11.9a30.07,30.07,0,0,0-4.559-3.75,54.9,54.9,0,0,1,8.947-11.744Zm-16.768,13.3c3.482,1.649,8.51,4.7,10.89,8.72a27.937,27.937,0,0,0,1.026,13.11,36.607,36.607,0,0,1-4.967-.331C31.756,130.672,32.486,120.488,33.451,115.638Zm-.724,24.85c5.8,2.347,12.706,2.806,22.372,1.489a12.255,12.255,0,0,1,11.825,19.1H22.439c-6.375-5.277-10.531-12.379-13.22-19l3.161,1.64,2.986-6.865,6.645,3.448,2.3-5.289a26.5,26.5,0,0,0,8.415,5.47Zm-15.94-15.581a49.468,49.468,0,0,0,3.7,5.78l-1.043,2.4L12.8,129.635,9.816,136.5l-3.062-1.589c-.607-2.127-1.065-4.081-1.4-5.747a6.183,6.183,0,0,1,11.435-4.259Zm138.835,20.406c-.43,3.815-5.17,9.35-13.067,15.3l-12.364-11.694-3.6,3.8,8.834,8.355H117.473a21.875,21.875,0,0,0-.272-21.223,86.265,86.265,0,0,1,8.268-8.482l10.519,9.5,3.507-3.883-9.871-8.912c3.032-2.119,5.671-3.275,7.687-3.274,6.135-.071,19.075,14.426,18.311,20.509Zm17.136-15.946a7.778,7.778,0,0,1-4.314,5.532l-8.9,4.249c-.294-.692-.622-1.375-.974-2.038l13.756-12.279A7.792,7.792,0,0,1,172.758,129.366Z" transform="translate(0 -0.095)"/>
      </g>
    </g>
  </g>
</svg>
