<svg xmlns="http://www.w3.org/2000/svg" width="146.631" height="130" viewBox="0 0 146.631 130">
  <g id="Grupo_1201617" data-name="Grupo 1201617" transform="translate(-300.051 -6619)">
    <g id="Grupo_1201612" data-name="Grupo 1201612" transform="translate(-6 -19.051)">
      <g id="Rect치ngulo_410589" data-name="Rect치ngulo 410589" transform="translate(307.051 6677.051)" fill="#ffc94a" stroke="#dfab32" stroke-width="1">
        <rect width="145.631" height="48.544" rx="8" stroke="none"/>
        <rect x="0.5" y="0.5" width="144.631" height="47.544" rx="7.5" fill="none"/>
      </g>
      <g id="Grupo_1201611" data-name="Grupo 1201611" transform="translate(242.205 6655.014)">
        <path id="Trazado_1246127" data-name="Trazado 1246127" d="M124,7.5h37.159V99.565H124Z" transform="translate(-6.498 -6.498)" fill="#e8ad8c"/>
        <path id="Trazado_1246128" data-name="Trazado 1246128" d="M358,7.5h4.006V99.565H358Z" transform="translate(-203.339 -6.498)" fill="#e19974"/>
        <g id="Grupo_1201611-2" data-name="Grupo 1201611" transform="translate(116.5 0)">
          <path id="Trazado_1246129" data-name="Trazado 1246129" d="M137.18,135.509H124.235a31.578,31.578,0,0,1,3.592-16.274c.626-1.19,1.348-2.374,2.045-3.519a39.357,39.357,0,0,0,3.343-6.328c2-5.207,1.991-12.713-1.711-16.956a1,1,0,0,0-1.478,1.353c3.156,3.732,3.047,10.361,1.318,14.887a37.287,37.287,0,0,1-3.183,6c-.714,1.172-1.452,2.384-2.108,3.629a33.581,33.581,0,0,0-3.825,17.207H118.5V80.788a1,1,0,0,0-2,0v55.722a1,1,0,0,0,1,1H137.18A1,1,0,0,0,137.18,135.509Z" transform="translate(-116.5 -43.444)"/>
          <path id="Trazado_1246130" data-name="Trazado 1246130" d="M158.508,0H117.66a1.283,1.283,0,0,0-1.16,1.378V9.469c.048,1.822,2.274,1.821,2.321,0V2.756h7.344c.534,6.3-.493,12.706-1.576,18.165-.314,1.584-.655,3.195-.985,4.752-2.477,10.489-4.457,24.37-.387,33.7a3.706,3.706,0,0,0,1.436,1.937c1.32.667,2.5,0,3.591-1.454,1.8-2.508,3.663-5.1,4.418-11.415.4-3.328-.306-11.552-2.6-14.465a1.318,1.318,0,0,0-1.125-.543A2.373,2.373,0,0,0,127.3,34.67c-1.836,2.836-2.513,7.449-2.01,13.711a1.234,1.234,0,0,0,1.265,1.241,1.334,1.334,0,0,0,1.045-1.5c-.419-5.216.015-9.029,1.289-11.349,1.206,2.691,1.808,8.508,1.476,11.286a18.181,18.181,0,0,1-3.887,10.015c-.418.581-.767.748-.836.748h0c-.04-.028-.136-.148-.329-.629-1.963-4.889-2.592-10.958-1.87-18.038a131.96,131.96,0,0,1,2.412-13.807c.332-1.568.675-3.189.993-4.792,1.112-5.6,2.166-12.19,1.649-18.8h14.537a84.728,84.728,0,0,0-.553,29.57c.417,2.608.961,5.21,1.488,7.726.622,2.97,1.266,6.042,1.686,9.085a66.941,66.941,0,0,1-.162,19.449c-.914,5.885-2.566,9.967-5.051,12.479a1.928,1.928,0,0,1-.423.349,30.8,30.8,0,0,1,1.233-20.208,16.9,16.9,0,0,1,.684,4.594,1.178,1.178,0,1,0,2.321-.037,20.065,20.065,0,0,0-.949-5.906,2.68,2.68,0,0,0-1.414-1.816c-.791-.288-1.906.035-2.665,1.808a34.853,34.853,0,0,0-1.7,21.6c.14.571.567,2.308,1.957,2.685.982.337,2.134-.579,2.459-.968,6.935-7.176,7.425-23.649,6-34.472-.436-3.153-1.091-6.281-1.724-9.3-.519-2.479-1.056-5.042-1.46-7.574a81.427,81.427,0,0,1,.581-28.673,1.626,1.626,0,0,0,.03-.384h7.333V91.312h-6.818c-1.534.056-1.533,2.7,0,2.756h12.62a1.283,1.283,0,0,0,1.16-1.378V1.378A1.283,1.283,0,0,0,158.508,0Zm-1.16,91.312h-2.321V2.756h2.321Z" transform="translate(-116.5 0)"/>
        </g>
      </g>
    </g>
    <rect id="Rect치ngulo_410876" data-name="Rect치ngulo 410876" width="146" height="130" transform="translate(300.051 6619)" fill="none"/>
  </g>
</svg>
