<svg xmlns="http://www.w3.org/2000/svg" width="146" height="130" viewBox="0 0 146 130">
  <g id="Grupo_1201618" data-name="Grupo 1201618" transform="translate(-723.051 -6619)">
    <g id="Grupo_1201614" data-name="Grupo 1201614" transform="translate(-5 -14.922)">
      <g id="Rect치ngulo_410589" data-name="Rect치ngulo 410589" transform="translate(728.051 6674.696)" fill="#ffc94a" stroke="#dfab32" stroke-width="1">
        <rect width="145.631" height="48.544" rx="8" stroke="none"/>
        <rect x="0.5" y="0.5" width="144.631" height="47.544" rx="7.5" fill="none"/>
      </g>
      <g id="Page-1" transform="translate(751.956 6650.922)">
        <g id="_029---Spade" data-name="029---Spade" transform="translate(-0.006 -0.001)">
          <path id="Shape" d="M68.8,16.236,55.969,3.408a4.824,4.824,0,0,0-6.806,0l-4.324,4.34a1.939,1.939,0,0,0-.577,1.169L43.045,19.9a1.986,1.986,0,0,0,.561,1.618L50.684,28.6a1.986,1.986,0,0,0,1.618.561l10.986-1.217a1.939,1.939,0,0,0,1.169-.577l4.34-4.324a4.824,4.824,0,0,0,0-6.806Zm-6.806,4.532-.561.577a1.651,1.651,0,0,1-.961.464l-5.99.657a1.571,1.571,0,0,1-1.313-.448l-2.979-2.979a1.555,1.555,0,0,1-.448-1.3l.657-6.006a1.651,1.651,0,0,1,.464-.961l.577-.577a1.581,1.581,0,0,1,2.258.016l8.3,8.3a1.566,1.566,0,0,1,0,2.258Z" transform="translate(24.294 -0.395)" fill="#ff9801"/>
          <path id="Shape-2" data-name="Shape" d="M66.119,16.233,53.291,3.4a4.8,4.8,0,0,0-5.806-.745,4.74,4.74,0,0,1,1,.745L61.314,16.233a4.824,4.824,0,0,1,0,6.806l-4.34,4.324a1.939,1.939,0,0,1-1.169.577l-7.57.839a2,2,0,0,0,1.389.378L60.61,27.94a1.939,1.939,0,0,0,1.169-.577l4.34-4.324a4.824,4.824,0,0,0,0-6.806Z" transform="translate(26.972 -0.392)" fill="#f57c00"/>
          <path id="Rectangle-path" d="M0,0H43.464V7.928H0Z" transform="translate(37.896 52.597) rotate(-45)" fill="sienna"/>
          <path id="Shape-3" data-name="Shape" d="M35.027,39.445,28.013,46.46l-4.725,4.725a3.2,3.2,0,0,1-4.532,0l-1.073-1.073a3.2,3.2,0,0,1,0-4.532l4.725-4.725,7.015-7.015Z" transform="translate(8.48 18.756)" fill="#cfd8dc"/>
          <path id="Shape-4" data-name="Shape" d="M43.9,62.537l-6.871,6.871A23.815,23.815,0,0,1,17.166,76.2L6.932,74.885a3.945,3.945,0,0,1-3.427-3.427L2.192,61.224a23.815,23.815,0,0,1,6.79-19.859l6.871-6.871a5.945,5.945,0,0,1,8.408,0l7.015,7.015-4.725,4.725a3.2,3.2,0,0,0,0,4.532l1.073,1.073a3.2,3.2,0,0,0,4.532,0l4.725-4.725L43.9,54.129a5.945,5.945,0,0,1,0,8.408Z" transform="translate(-0.388 18.102)" fill="#7f8e94"/>
          <path id="Shape-5" data-name="Shape" d="M37.922,48.735,30.908,41.72l-2.4,2.4,4.612,4.612a5.945,5.945,0,0,1,0,8.408l-6.871,6.871a23.8,23.8,0,0,1-14.316,6.842,23.8,23.8,0,0,0,19.121-6.842l6.871-6.871a5.945,5.945,0,0,0,0-8.408Z" transform="translate(5.585 23.496)" fill="#545c60"/>
          <path id="Shape-6" data-name="Shape" d="M13.577,34.491l7.015,7.015L15.867,46.23a3.2,3.2,0,0,0,0,4.532l1.073,1.073a3.2,3.2,0,0,0,4.532,0l.136-.136-.937-.937a3.2,3.2,0,0,1,0-4.532L25.4,41.506l-7.015-7.015a5.934,5.934,0,0,0-6.606-1.219,5.9,5.9,0,0,1,1.8,1.219Z" transform="translate(5.492 18.105)" fill="#545c60"/>
          <path id="Shape-7" data-name="Shape" d="M50.118,20.843a3.192,3.192,0,0,0,2.261.937,2.941,2.941,0,0,0,.356-.021l6-.666a3.216,3.216,0,0,0,1.922-.919l.573-.573a3.2,3.2,0,0,0,0-4.529l-8.309-8.3a3.2,3.2,0,0,0-4.529,0l-.572.573A3.221,3.221,0,0,0,46.9,9.256l-.665,6a3.19,3.19,0,0,0,.919,2.618Zm-.7-5.237.666-6,.575-.573,8.3,8.3-.572.573-6,.668L49.414,15.61Z" transform="translate(26.206 1.908)"/>
          <path id="Shape-8" data-name="Shape" d="M1.206,80.529,2.524,90.758a5.535,5.535,0,0,0,4.8,4.8l10.25,1.32a25.952,25.952,0,0,0,3.251.21,25.243,25.243,0,0,0,17.937-7.449l6.872-6.872a7.559,7.559,0,0,0,0-10.677l-5.878-5.878L75.283,30.695a3.549,3.549,0,0,0,2.082.685,3.4,3.4,0,0,0,.4-.022l10.982-1.22a3.6,3.6,0,0,0,2.138-1.027l4.335-4.335a6.419,6.419,0,0,0,0-9.065L82.385,2.878a6.406,6.406,0,0,0-9.065,0L68.984,7.215a3.589,3.589,0,0,0-1.025,2.136L66.737,20.336a3.551,3.551,0,0,0,.671,2.479L31.878,58.343,26,52.464a7.561,7.561,0,0,0-10.679,0L8.449,59.335A25.287,25.287,0,0,0,1.206,80.529Zm31.8-18.788,5.878-5.878,3.346,3.344-10.6,10.6a1.637,1.637,0,0,1-2.263,0l-1.079-1.078a1.6,1.6,0,0,1,0-2.266Zm11.491-4.8-3.344-3.344L69.628,25.126,71.3,26.8l1.672,1.672ZM71.151,9.7a.384.384,0,0,1,.107-.224l4.335-4.335a3.2,3.2,0,0,1,4.536,0L92.954,17.977a3.213,3.213,0,0,1,0,4.536L88.62,26.846a.4.4,0,0,1-.231.111l-10.982,1.22a.378.378,0,0,1-.311-.111L70.03,21a.378.378,0,0,1-.111-.32ZM17.586,54.729a4.353,4.353,0,0,1,6.148,0l5.879,5.879L26.021,64.2a4.814,4.814,0,0,0,0,6.8L27.1,72.073a4.8,4.8,0,0,0,6.794,0l3.591-3.591,5.879,5.881a4.351,4.351,0,0,1,0,6.148l-6.872,6.872A22.091,22.091,0,0,1,17.98,93.713L7.73,92.393A2.337,2.337,0,0,1,5.7,90.356L4.383,80.124A22.1,22.1,0,0,1,10.714,61.6Z" transform="translate(-0.994 -0.999)"/>
          <g id="Grupo_1201613" data-name="Grupo 1201613" transform="translate(7.937 58.027)">
            <path id="Shape-9" data-name="Shape" d="M7.683,59.137a1.6,1.6,0,0,1-1.587-1.4A17.4,17.4,0,0,1,11.077,43.15l5.469-5.469a1.6,1.6,0,0,1,2.265,2.265l-5.469,5.469A14.22,14.22,0,0,0,9.274,57.333a1.6,1.6,0,0,1-1.387,1.789,1.762,1.762,0,0,1-.2.014Z" transform="translate(-5.949 -37.231)" fill="#f5f5f5"/>
            <path id="Shape-10" data-name="Shape" d="M14.743,61.046A17.738,17.738,0,0,1,12.5,60.9a1.6,1.6,0,1,1,.4-3.177,14.225,14.225,0,0,0,11.917-4.069l5.469-5.468a1.6,1.6,0,0,1,2.265,2.265l-5.469,5.468a17.367,17.367,0,0,1-12.343,5.125Z" transform="translate(-2.858 -30.91)" fill="#f5f5f5"/>
          </g>
        </g>
      </g>
    </g>
    <rect id="Rect치ngulo_410875" data-name="Rect치ngulo 410875" width="146" height="130" transform="translate(723.051 6619)" fill="none"/>
  </g>
</svg>
