<svg xmlns="http://www.w3.org/2000/svg" width="68" height="68" viewBox="0 0 68 68">
  <g id="Grupo_1201622" data-name="Grupo 1201622" transform="translate(-197.051 -7314)">
    <circle id="Elipse_12361" data-name="Elipse 12361" cx="34" cy="34" r="34" transform="translate(197.051 7314)" fill="#a1c6f1"/>
    <g id="Grupo_1201621" data-name="Grupo 1201621" transform="translate(201.051 7318)">
      <circle id="Elipse_12366" data-name="Elipse 12366" cx="3" cy="3" r="3" transform="translate(27 46)" fill="#fcc369"/>
      <circle id="Elipse_12367" data-name="Elipse 12367" cx="3" cy="3" r="3" transform="translate(27 33)" fill="#58d6d3"/>
      <circle id="Elipse_12368" data-name="Elipse 12368" cx="3" cy="3" r="3" transform="translate(27 20)" fill="#f86b7f"/>
      <circle id="Elipse_12369" data-name="Elipse 12369" cx="3" cy="3" r="3" transform="translate(27 7)" fill="#387ed3"/>
      <path id="Trazado_1246153" data-name="Trazado 1246153" d="M57,18H40.908a2,2,0,0,1-1.506-.683L33,10l6.4-7.317A2,2,0,0,1,40.908,2H57a2,2,0,0,1,2,2V16A2,2,0,0,1,57,18Z" fill="#387ed3"/>
      <path id="Trazado_1246154" data-name="Trazado 1246154" d="M57,44H40.908a2,2,0,0,1-1.506-.683L33,36l6.4-7.317A2,2,0,0,1,40.908,28H57a2,2,0,0,1,2,2V42A2,2,0,0,1,57,44Z" fill="#58d6d3"/>
      <path id="Trazado_1246155" data-name="Trazado 1246155" d="M3,31H19.092a2,2,0,0,0,1.506-.683L27,23l-6.4-7.317A2,2,0,0,0,19.092,15H3a2,2,0,0,0-2,2V29a2,2,0,0,0,2,2Z" fill="#f86b7f"/>
      <path id="Trazado_1246156" data-name="Trazado 1246156" d="M3,57H19.092a2,2,0,0,0,1.506-.683L27,49l-6.4-7.317A2,2,0,0,0,19.092,41H3a2,2,0,0,0-2,2V55a2,2,0,0,0,2,2Z" fill="#fcc369"/>
      <g id="Grupo_1201620" data-name="Grupo 1201620">
        <path id="Trazado_1246157" data-name="Trazado 1246157" d="M57,1H40.907a3,3,0,0,0-2.258,1.025L33.435,7.984A3.988,3.988,0,0,0,31,6.142V1a1,1,0,1,0-2,0V6.142a3.981,3.981,0,0,0,0,7.716v5.284a4,4,0,0,0-2.435,1.842L21.35,15.023A3,3,0,0,0,19.092,14H3a3,3,0,0,0-3,3V29a3,3,0,0,0,3,3H19.092a3,3,0,0,0,2.258-1.025l5.215-5.959A4,4,0,0,0,29,26.858v5.284A4,4,0,0,0,26,36a1,1,0,0,0,2,0,2,2,0,1,1,2,2,1,1,0,0,0-1,1v6.142a4,4,0,0,0-2.435,1.842L21.35,41.023A3,3,0,0,0,19.092,40H3a3,3,0,0,0-3,3V55a3,3,0,0,0,3,3H19.092a3,3,0,0,0,2.258-1.025l5.215-5.959A4,4,0,0,0,29,52.858V59a1,1,0,0,0,2,0V52.858a3.981,3.981,0,0,0,0-7.716V39.858a3.988,3.988,0,0,0,2.435-1.842l5.215,5.961A3,3,0,0,0,40.907,45H57a3,3,0,0,0,3-3V30a3,3,0,0,0-3-3H40.907a3,3,0,0,0-2.258,1.025l-5.214,5.959A3.988,3.988,0,0,0,31,32.142V26.858a3.981,3.981,0,0,0,0-7.716V13.858a3.988,3.988,0,0,0,2.435-1.842l5.215,5.961A3,3,0,0,0,40.907,19H57a3,3,0,0,0,3-3V4a3,3,0,0,0-3-3ZM19.846,55.658a1,1,0,0,1-.754.342H3a1,1,0,0,1-1-1V43a1,1,0,0,1,1-1H19.092a1,1,0,0,1,.753.341L25.671,49ZM32,49a2,2,0,1,1-2-2A2,2,0,0,1,32,49Zm8.154-19.658A1,1,0,0,1,40.907,29H57a1,1,0,0,1,1,1V42a1,1,0,0,1-1,1H40.907a1,1,0,0,1-.752-.341L34.329,36Zm-20.308.316a1,1,0,0,1-.754.342H3a1,1,0,0,1-1-1V17a1,1,0,0,1,1-1H19.092a1,1,0,0,1,.753.341L25.671,23ZM32,23a2,2,0,1,1-2-2A2,2,0,0,1,32,23ZM30,12a2,2,0,1,1,2-2A2,2,0,0,1,30,12Zm28,4a1,1,0,0,1-1,1H40.907a1,1,0,0,1-.752-.341L34.329,10l5.825-6.658A1,1,0,0,1,40.907,3H57a1,1,0,0,1,1,1Z" fill="#373737"/>
        <path id="Trazado_1246158" data-name="Trazado 1246158" d="M42,9h1a1,1,0,0,0,0-2H42a1,1,0,0,0,0,2Z" fill="#373737"/>
        <path id="Trazado_1246159" data-name="Trazado 1246159" d="M55,7H47a1,1,0,0,0,0,2h8a1,1,0,0,0,0-2Z" fill="#373737"/>
        <path id="Trazado_1246160" data-name="Trazado 1246160" d="M50,11H42a1,1,0,0,0,0,2h8a1,1,0,0,0,0-2Z" fill="#373737"/>
        <path id="Trazado_1246161" data-name="Trazado 1246161" d="M42,35h1a1,1,0,0,0,0-2H42a1,1,0,0,0,0,2Z" fill="#373737"/>
        <path id="Trazado_1246162" data-name="Trazado 1246162" d="M47,35h8a1,1,0,0,0,0-2H47a1,1,0,0,0,0,2Z" fill="#373737"/>
        <path id="Trazado_1246163" data-name="Trazado 1246163" d="M42,39h8a1,1,0,0,0,0-2H42a1,1,0,0,0,0,2Z" fill="#373737"/>
        <path id="Trazado_1246164" data-name="Trazado 1246164" d="M5,22H6a1,1,0,0,0,0-2H5a1,1,0,0,0,0,2Z" fill="#373737"/>
        <path id="Trazado_1246165" data-name="Trazado 1246165" d="M18,20H10a1,1,0,0,0,0,2h8a1,1,0,0,0,0-2Z" fill="#373737"/>
        <path id="Trazado_1246166" data-name="Trazado 1246166" d="M13,24H5a1,1,0,0,0,0,2h8a1,1,0,0,0,0-2Z" fill="#373737"/>
        <path id="Trazado_1246167" data-name="Trazado 1246167" d="M5,48H6a1,1,0,0,0,0-2H5a1,1,0,0,0,0,2Z" fill="#373737"/>
        <path id="Trazado_1246168" data-name="Trazado 1246168" d="M18,46H10a1,1,0,0,0,0,2h8a1,1,0,0,0,0-2Z" fill="#373737"/>
        <path id="Trazado_1246169" data-name="Trazado 1246169" d="M13,50H5a1,1,0,0,0,0,2h8a1,1,0,0,0,0-2Z" fill="#373737"/>
      </g>
    </g>
  </g>
</svg>
