<svg xmlns="http://www.w3.org/2000/svg" width="190" height="196" viewBox="0 0 190 196">
  <g id="Grupo_1201624" data-name="Grupo 1201624" transform="translate(-180.051 -7610)">
    <rect id="Rectángulo_410845" data-name="Rectángulo 410845" width="190" height="196" rx="10" transform="translate(180.051 7610)" fill="#5a8441"/>
    <g id="Page-1" transform="translate(213.051 7652.003)">
      <g id="_049---Planted-Seeds" data-name="049---Planted-Seeds" transform="translate(0 -0.003)">
        <path id="Path" d="M121.287,30V75.626a4.16,4.16,0,0,1-4.148,4.148H5.148A4.16,4.16,0,0,1,1,75.626V30Z" transform="translate(1.074 30.149)" fill="sienna" fill-rule="evenodd"/>
        <path id="Path-2" data-name="Path" d="M58.148,30V75.626A4.16,4.16,0,0,1,54,79.774h6.222a4.16,4.16,0,0,0,4.148-4.148V30Z" transform="translate(57.991 30.149)" fill="#783e22" fill-rule="evenodd"/>
        <path id="Path-3" data-name="Path" d="M35.739,50.517a10.37,10.37,0,1,1-20.739,0A15.424,15.424,0,0,1,25.37,36,15.424,15.424,0,0,1,35.739,50.517Z" transform="translate(16.109 36.593)" fill="#825a2c" fill-rule="evenodd"/>
        <path id="Path-4" data-name="Path" d="M21.611,36A15.421,15.421,0,0,0,18.5,37.522a14.789,14.789,0,0,1,7.259,13A10.338,10.338,0,0,1,18.5,60.36a10.237,10.237,0,0,0,13.48-9.843A15.424,15.424,0,0,0,21.611,36Z" transform="translate(19.867 36.593)" fill="#624421" fill-rule="evenodd"/>
        <path id="Path-5" data-name="Path" d="M31.813,25.769v2.9c-.041.664-.083,1.058-.083,1.058S21.257,31,15.6,25.333,9,7,9,7s12.651.933,18.333,6.6a18.586,18.586,0,0,1,4.48,12.174Z" transform="translate(9.665 5.449)" fill="#60a917" fill-rule="evenodd"/>
        <path id="Path-6" data-name="Path" d="M27.333,13.6C21.651,7.933,9,7,9,7s.031.384.1,1.012A25.607,25.607,0,0,1,21.112,13.6a18.586,18.586,0,0,1,4.48,12.174v2.9c-.029.465-.058.786-.073.944a28.183,28.183,0,0,0,6.222.114s.041-.394.083-1.058v-2.9A18.586,18.586,0,0,0,27.333,13.6Z" transform="translate(9.665 5.449)" fill="#549414" fill-rule="evenodd"/>
        <path id="Path-7" data-name="Path" d="M40.594,12.577c-1.2-.145-1.929-.207-1.929-.207s.1,1.493.477,3.692a15.743,15.743,0,0,1-2.924,4.272c-5.662,5.662-16.135,4.4-16.135,4.4s-.041-.394-.083-1.058v-2.9A18.586,18.586,0,0,1,24.48,8.6C30.162,2.933,42.813,2,42.813,2a47.3,47.3,0,0,1-2.219,10.577Z" transform="translate(21.478 0.08)" fill="#60a917" fill-rule="evenodd"/>
        <path id="Path-8" data-name="Path" d="M42.775,2a48.913,48.913,0,0,0-6.323,1.012,47.187,47.187,0,0,1-2.117,9.565c-1.2-.145-1.929-.207-1.929-.207s.1,1.493.477,3.692a15.743,15.743,0,0,1-2.924,4.272,16.973,16.973,0,0,1-9.924,4.283v.114S30.508,26,36.17,20.333a15.743,15.743,0,0,0,2.924-4.272c-.363-2.2-.467-3.692-.467-3.692s.726.062,1.929.207A47.3,47.3,0,0,0,42.775,2Z" transform="translate(21.516 0.08)" fill="#549414" fill-rule="evenodd"/>
        <path id="Path-9" data-name="Path" d="M55.739,50.517a10.37,10.37,0,1,1-20.739,0A15.424,15.424,0,0,1,45.37,36,15.424,15.424,0,0,1,55.739,50.517Z" transform="translate(37.587 36.593)" fill="#825a2c" fill-rule="evenodd"/>
        <path id="Path-10" data-name="Path" d="M41.611,36A15.421,15.421,0,0,0,38.5,37.522a14.789,14.789,0,0,1,7.259,13A10.338,10.338,0,0,1,38.5,60.36a10.237,10.237,0,0,0,13.48-9.843A15.424,15.424,0,0,0,41.611,36Z" transform="translate(41.345 36.593)" fill="#624421" fill-rule="evenodd"/>
        <path id="Path-11" data-name="Path" d="M51.813,25.769v2.9c-.041.664-.083,1.058-.083,1.058S41.257,31,35.6,25.333C31.883,21.6,30.2,14.881,29.477,10.692,29.1,8.493,29,7,29,7s.726.062,1.929.207C34.7,7.726,43.02,9.3,47.333,13.6A18.586,18.586,0,0,1,51.813,25.769Z" transform="translate(31.143 5.449)" fill="#60a917" fill-rule="evenodd"/>
        <path id="Path-12" data-name="Path" d="M47.333,13.6C43.02,9.3,34.7,7.726,30.929,7.207,29.726,7.062,29,7,29,7s.025.371.1,1.016A25.613,25.613,0,0,1,41.112,13.6a18.586,18.586,0,0,1,4.48,12.174v2.9c-.029.465-.058.786-.073.944a28.183,28.183,0,0,0,6.211.114s.041-.394.083-1.058v-2.9A18.586,18.586,0,0,0,47.333,13.6Z" transform="translate(31.143 5.449)" fill="#549414" fill-rule="evenodd"/>
        <path id="Path-13" data-name="Path" d="M62.813,2s-.933,12.651-6.6,18.333-16.135,4.4-16.135,4.4-.041-.394-.083-1.058v-2.9A18.586,18.586,0,0,1,44.48,8.6C50.162,2.933,62.813,2,62.813,2Z" transform="translate(42.956 0.08)" fill="#60a917" fill-rule="evenodd"/>
        <path id="Path-14" data-name="Path" d="M56.452,3.012c-.353,3.088-1.788,12.6-6.493,17.321a16.973,16.973,0,0,1-9.924,4.283l.01.114S50.519,26,56.18,20.333,62.775,2,62.775,2a48.913,48.913,0,0,0-6.323,1.012Z" transform="translate(42.994 0.08)" fill="#549414" fill-rule="evenodd"/>
        <path id="Path-15" data-name="Path" d="M121.287,25.364V37.517H1V25.364a2.074,2.074,0,0,1,2.364-2.053c6.222.975,7.673,3.837,16.28,3.837,10.37,0,10.37-4.148,20.739-4.148s10.37,4.148,20.739,4.148S71.492,23,81.862,23s10.37,4.148,20.76,4.148c8.627,0,10.079-2.862,16.3-3.837a2.074,2.074,0,0,1,2.364,2.053Z" transform="translate(1.074 22.632)" fill="#ff9801" fill-rule="evenodd"/>
        <path id="Path-16" data-name="Path" d="M60,23.161a21.623,21.623,0,0,0-4.131,1.074,2.028,2.028,0,0,1,.274.979V37.367h6.222V25.214A2.074,2.074,0,0,0,60,23.161Z" transform="translate(59.997 22.782)" fill="#f57c00" fill-rule="evenodd"/>
        <g id="Grupo_1201623" data-name="Grupo 1201623">
          <path id="Shape" d="M119.683,44.891a26.973,26.973,0,0,0-6.392,1.887,22.1,22.1,0,0,1-9.6,1.925,22.191,22.191,0,0,1-9.623-1.929,25.563,25.563,0,0,0-9.042-2.159V35.138c.039-.755.058-1.806,0-3.03V27.991H85.6c3.8,0,10.6-.691,15.036-5.131,6.145-6.133,7.157-19.084,7.2-19.632A2.074,2.074,0,0,0,105.618,1c-.548.039-13.5,1.051-19.642,7.2A19.31,19.31,0,0,0,81.04,19.813a14.412,14.412,0,0,0-1.1-1.244C76,14.616,69.231,12.793,64.76,11.98a49.961,49.961,0,0,0,1.605-8.75A2.074,2.074,0,0,0,64.14,1c-.55.039-13.48,1.062-19.648,7.2a19.215,19.215,0,0,0-4.928,11.614,14.145,14.145,0,0,0-1.105-1.244c-6.143-6.139-19.094-7.151-19.642-7.2A2.074,2.074,0,0,0,16.591,13.6c.039.548,1.051,13.5,7.2,19.642,4.44,4.44,11.234,5.131,15.036,5.131H39.4v6.253a25.53,25.53,0,0,0-9.086,2.163A22.12,22.12,0,0,1,20.718,48.7a22.058,22.058,0,0,1-9.573-1.923,27.083,27.083,0,0,0-6.394-1.889,4.1,4.1,0,0,0-3.3.944A4.162,4.162,0,0,0,0,49v57.773a6.222,6.222,0,0,0,6.222,6.222H118.213a6.222,6.222,0,0,0,6.222-6.222V49a4.162,4.162,0,0,0-1.452-3.165,4.081,4.081,0,0,0-3.3-.944Zm-27.15,5.736A26.038,26.038,0,0,0,103.7,52.851a25.961,25.961,0,0,0,11.135-2.219A22.993,22.993,0,0,1,120.287,49V59.073H85.03V48.778A21.95,21.95,0,0,1,92.534,50.628Zm-48.982-1.85a21.911,21.911,0,0,1,7.505,1.852A25.978,25.978,0,0,0,62.2,52.851,25.963,25.963,0,0,0,73.335,50.63a21.927,21.927,0,0,1,7.547-1.854v10.3H43.552Zm0-13.64c.039-.755.058-1.806,0-3.03V28h.564c3.8,0,10.61-.691,15.048-5.131.17-.17.33-.361.494-.543A25.094,25.094,0,0,0,65.272,33.23c4.44,4.44,11.234,5.131,15.036,5.131h.574v6.253A25.53,25.53,0,0,0,71.8,46.776,22.12,22.12,0,0,1,62.2,48.7a22.135,22.135,0,0,1-9.6-1.927,25.559,25.559,0,0,0-9.044-2.161Zm45.356-24c3.611-3.611,10.7-5.118,14.484-5.685-.566,3.787-2.074,10.873-5.685,14.484s-9.727,3.961-12.678,3.9v-1.7A16.7,16.7,0,0,1,88.908,11.138Zm-8.026,21.37v1.7c-2.962.05-9.075-.3-12.678-3.9s-5.118-10.7-5.685-14.484C66.307,16.389,73.394,17.9,77,21.508A16.7,16.7,0,0,1,80.882,32.508ZM47.422,11.142c3.619-3.609,10.7-5.118,14.492-5.689A46.147,46.147,0,0,1,60.6,11.4l-.3-.031A2.074,2.074,0,0,0,58.069,13.6c.012.16.112,1.39.39,3.181a13.194,13.194,0,0,1-2.236,3.165c-3.6,3.6-9.677,3.972-12.678,3.9V21.914a16.5,16.5,0,0,1,3.876-10.772Zm-20.7,19.165c-3.611-3.611-5.118-10.7-5.685-14.484,3.787.566,10.873,2.074,14.484,5.685A16.7,16.7,0,0,1,39.4,32.5v1.7c-2.951.058-9.075-.292-12.678-3.895ZM9.606,50.632a25.909,25.909,0,0,0,11.112,2.219A25.963,25.963,0,0,0,31.857,50.63,21.927,21.927,0,0,1,39.4,48.776v10.3H4.148L4.121,48.991a23.174,23.174,0,0,1,5.485,1.643Zm110.68,56.141a2.074,2.074,0,0,1-2.074,2.074H6.222a2.074,2.074,0,0,1-2.074-2.074V63.22H39.4v8.955a17.33,17.33,0,0,0-10.37,15.932,12.443,12.443,0,1,0,24.887,0,17.33,17.33,0,0,0-10.37-15.932V63.22h37.33v8.955a17.33,17.33,0,0,0-10.37,15.932,12.443,12.443,0,1,0,24.887,0A17.33,17.33,0,0,0,85.03,72.175V63.22h35.256ZM41.478,75.8a13.136,13.136,0,0,1,8.3,12.3,8.3,8.3,0,0,1-16.591,0A13.138,13.138,0,0,1,41.478,75.8Zm41.478,0a13.136,13.136,0,0,1,8.3,12.3,8.3,8.3,0,0,1-16.591,0A13.138,13.138,0,0,1,82.956,75.8Z" transform="translate(0 -0.997)"/>
          <ellipse id="Oval" cx="2" cy="2.5" rx="2" ry="2.5" transform="translate(10.217 65.997)"/>
          <ellipse id="Oval-2" data-name="Oval" cx="2" cy="2.5" rx="2" ry="2.5" transform="translate(23.217 65.997)"/>
          <ellipse id="Oval-3" data-name="Oval" cx="2.5" cy="2" rx="2.5" ry="2" transform="translate(16.217 74.997)"/>
          <circle id="Oval-4" data-name="Oval" cx="2" cy="2" r="2" transform="translate(10.217 82.997)"/>
          <circle id="Oval-5" data-name="Oval" cx="2" cy="2" r="2" transform="translate(23.217 82.997)"/>
          <ellipse id="Oval-6" data-name="Oval" cx="2.5" cy="2" rx="2.5" ry="2" transform="translate(16.217 90.997)"/>
          <circle id="Oval-7" data-name="Oval" cx="2" cy="2" r="2" transform="translate(10.217 99.997)"/>
          <circle id="Oval-8" data-name="Oval" cx="2" cy="2" r="2" transform="translate(23.217 99.997)"/>
          <ellipse id="Oval-9" data-name="Oval" cx="2.5" cy="2" rx="2.5" ry="2" transform="translate(103.217 90.997)"/>
          <circle id="Oval-10" data-name="Oval" cx="2" cy="2" r="2" transform="translate(97.217 99.997)"/>
          <circle id="Oval-11" data-name="Oval" cx="2" cy="2" r="2" transform="translate(110.217 99.997)"/>
          <ellipse id="Oval-12" data-name="Oval" cx="2" cy="2.5" rx="2" ry="2.5" transform="translate(54.217 65.997)"/>
          <ellipse id="Oval-13" data-name="Oval" cx="2" cy="2.5" rx="2" ry="2.5" transform="translate(66.217 65.997)"/>
          <circle id="Oval-14" data-name="Oval" cx="2" cy="2" r="2" transform="translate(54.217 99.997)"/>
          <circle id="Oval-15" data-name="Oval" cx="2" cy="2" r="2" transform="translate(66.217 99.997)"/>
          <circle id="Oval-16" data-name="Oval" cx="2" cy="2" r="2" transform="translate(60.217 74.997)"/>
          <circle id="Oval-17" data-name="Oval" cx="2" cy="2" r="2" transform="translate(60.217 88.997)"/>
          <ellipse id="Oval-18" data-name="Oval" cx="2" cy="2.5" rx="2" ry="2.5" transform="translate(97.217 65.997)"/>
          <ellipse id="Oval-19" data-name="Oval" cx="2" cy="2.5" rx="2" ry="2.5" transform="translate(110.217 65.997)"/>
          <ellipse id="Oval-20" data-name="Oval" cx="2.5" cy="2" rx="2.5" ry="2" transform="translate(103.217 74.997)"/>
          <circle id="Oval-21" data-name="Oval" cx="2" cy="2" r="2" transform="translate(97.217 82.997)"/>
          <circle id="Oval-22" data-name="Oval" cx="2" cy="2" r="2" transform="translate(110.217 82.997)"/>
        </g>
      </g>
    </g>
  </g>
</svg>
