<svg xmlns="http://www.w3.org/2000/svg" width="136.685" height="121.182" viewBox="0 0 136.685 121.182">
  <g id="Grupo_1201625" data-name="Grupo 1201625" transform="translate(-300.051 -6619)">
    <g id="Grupo_1201612" data-name="Grupo 1201612" transform="translate(300.983 6634.813)">
      <g id="Rect치ngulo_410589" data-name="Rect치ngulo 410589" transform="translate(0 20.542)" fill="#ffc94a" stroke="#dfab32" stroke-width="1">
        <rect width="135.752" height="45.251" rx="8" stroke="none"/>
        <rect x="0.5" y="0.5" width="134.752" height="44.251" rx="7.5" fill="none"/>
      </g>
      <g id="Layer_x0020_1" transform="translate(25.595 -35.251)">
        <path id="Trazado_1246170" data-name="Trazado 1246170" d="M74.973,104.355c-3.449,0-4.538-5.083-1.271-6.535V91.648a1.272,1.272,0,0,1,2.541,0V97.82a3.589,3.589,0,0,1,1.815,4.357l2.36,2.36c1.089,1.089-.726,2.9-1.815,1.815l-2.178-2.36A4.272,4.272,0,0,1,74.973,104.355Zm0,14.7H1.271A1.241,1.241,0,0,1,0,117.789V49.9a1.241,1.241,0,0,1,1.271-1.271h11.8V44.268A3.254,3.254,0,0,1,16.338,41H18.88a3.1,3.1,0,0,1,3.086,3.268v4.357h14.16V44.268A3.254,3.254,0,0,1,39.393,41h2.36a3.254,3.254,0,0,1,3.268,3.268v4.357H59V44.268A3.254,3.254,0,0,1,62.266,41h2.541a3.22,3.22,0,0,1,3.086,3.268v4.357H79.875A1.241,1.241,0,0,1,81.146,49.9V84.024a18.3,18.3,0,0,1,11.8,16.883A18.052,18.052,0,0,1,74.973,119.06ZM13.07,51.166H2.541v11.8H78.6v-11.8H67.894v3.812a3.22,3.22,0,0,1-3.086,3.268H62.266A3.254,3.254,0,0,1,59,54.978V51.166H45.02v3.812a3.254,3.254,0,0,1-3.268,3.268h-2.36a3.254,3.254,0,0,1-3.268-3.268V51.166H21.966v3.812a3.1,3.1,0,0,1-3.086,3.268H16.338a3.254,3.254,0,0,1-3.268-3.268ZM2.541,65.507v51.011H65.9A18.026,18.026,0,0,1,78.6,83.3V65.507ZM42.479,49.9c-.182-7.08,1.089-6.354-3.086-6.354a.781.781,0,0,0-.726.726v10.71c0,1.089,1.815.726,3.086.726a.781.781,0,0,0,.726-.726ZM16.338,43.541a.781.781,0,0,0-.726.726v10.71c0,1.089,1.815.726,3.268.726.363,0,.545-.545.545-.726V44.268C19.424,43.178,18.335,43.541,16.338,43.541Zm45.928,0a.781.781,0,0,0-.726.726v10.71c0,1.089,1.815.726,3.268.726.363,0,.545-.545.545-.726V44.268C65.352,43.178,64.263,43.541,62.266,43.541Zm-42.3,37.941H8.714a1.241,1.241,0,0,1-1.271-1.271v-9.44A1.241,1.241,0,0,1,8.714,69.5H19.969a1.241,1.241,0,0,1,1.271,1.271v9.44A1.364,1.364,0,0,1,19.969,81.482ZM9.984,78.941H18.7v-6.9H9.984Zm9.984,17.972H8.714a1.241,1.241,0,0,1-1.271-1.271V86.2a1.241,1.241,0,0,1,1.271-1.271H19.969A1.241,1.241,0,0,1,21.239,86.2v9.44A1.364,1.364,0,0,1,19.969,96.912ZM9.984,94.371H18.7v-6.9H9.984Zm9.984,18.153H8.714a1.241,1.241,0,0,1-1.271-1.271v-9.44a1.241,1.241,0,0,1,1.271-1.271H19.969a1.241,1.241,0,0,1,1.271,1.271v9.44A1.364,1.364,0,0,1,19.969,112.524Zm-9.984-2.541H18.7v-6.9H9.984Zm31.224-28.5H29.953a1.241,1.241,0,0,1-1.271-1.271v-9.44A1.241,1.241,0,0,1,29.953,69.5H41.208a1.241,1.241,0,0,1,1.271,1.271v9.44A1.364,1.364,0,0,1,41.208,81.482Zm-9.984-2.541h8.714v-6.9H31.224Zm9.984,17.972H29.953a1.241,1.241,0,0,1-1.271-1.271V86.2a1.241,1.241,0,0,1,1.271-1.271H41.208A1.241,1.241,0,0,1,42.479,86.2v9.44A1.364,1.364,0,0,1,41.208,96.912Zm-9.984-2.541h8.714v-6.9H31.224Zm9.984,18.153H29.953a1.241,1.241,0,0,1-1.271-1.271v-9.44a1.241,1.241,0,0,1,1.271-1.271H41.208a1.241,1.241,0,0,1,1.271,1.271v9.44A1.364,1.364,0,0,1,41.208,112.524Zm-9.984-2.541h8.714v-6.9H31.224Zm31.224-28.5H51.193a1.241,1.241,0,0,1-1.271-1.271v-9.44A1.241,1.241,0,0,1,51.193,69.5H62.448a1.241,1.241,0,0,1,1.271,1.271v9.44A1.364,1.364,0,0,1,62.448,81.482Zm-9.984-2.541h8.714v-6.9H52.463ZM73.7,85.476a16.337,16.337,0,0,0-8.714,3.631c.726.726,2.36,2,1.271,3.086s-2.36-.545-3.086-1.271a16.337,16.337,0,0,0-3.631,8.714c1.089,0,3.086-.363,3.086,1.271s-2,1.271-3.086,1.271a16.924,16.924,0,0,0,3.631,8.9c.726-.726,2-2.36,3.086-1.271s-.545,2.36-1.271,3.086a16.337,16.337,0,0,0,8.714,3.631c0-1.089-.363-3.086,1.271-3.086s1.271,2,1.271,3.086a16.337,16.337,0,0,0,8.714-3.631c-.726-.726-2.36-2-1.271-3.086s2.36.545,3.086,1.271a17.552,17.552,0,0,0,3.631-8.9c-1.089,0-3.086.363-3.086-1.271s2-1.271,3.086-1.271a16.337,16.337,0,0,0-3.631-8.714c-.726.726-2,2.36-3.086,1.271s.545-2.36,1.271-3.086a16.337,16.337,0,0,0-8.714-3.631c0,1.089.363,3.086-1.271,3.086S73.7,86.565,73.7,85.476Zm1.634,16.157a.943.943,0,0,0,.363-.726.728.728,0,0,0-1.452,0C74.247,101.632,74.792,102,75.337,101.632Z" fill-rule="evenodd"/>
        <path id="Trazado_1246171" data-name="Trazado 1246171" d="M14,108.8H90.063V97H79.352v3.812a3.22,3.22,0,0,1-3.086,3.268H73.725a3.254,3.254,0,0,1-3.268-3.268V97H56.479v3.812a3.254,3.254,0,0,1-3.268,3.268h-2.36a3.254,3.254,0,0,1-3.268-3.268V97H33.424v3.812a3.1,3.1,0,0,1-3.086,3.268H27.8a3.254,3.254,0,0,1-3.268-3.268V97H14Z" transform="translate(-11.459 -45.834)" fill="#99a4ac" fill-rule="evenodd"/>
        <path id="Trazado_1246172" data-name="Trazado 1246172" d="M339,55.464v10.71c0,1.089,1.815.726,3.268.726.363,0,.545-.545.545-.726V55.464c0-1.089-1.089-.726-3.086-.726A.781.781,0,0,0,339,55.464Z" transform="translate(-277.46 -11.197)" fill="#d9f2f2" fill-rule="evenodd"/>
        <path id="Trazado_1246173" data-name="Trazado 1246173" d="M216.812,61.259c-.182-7.08,1.089-6.354-3.086-6.354a.781.781,0,0,0-.726.726v10.71c0,1.089,1.815.726,3.086.726a.781.781,0,0,0,.726-.726Z" transform="translate(-174.333 -11.364)" fill="#d9f2f2" fill-rule="evenodd"/>
        <path id="Trazado_1246174" data-name="Trazado 1246174" d="M89.812,66.175V55.464c0-1.089-1.089-.726-3.086-.726a.781.781,0,0,0-.726.726v10.71c0,1.089,1.815.726,3.268.726C89.631,66.9,89.812,66.356,89.812,66.175Z" transform="translate(-70.388 -11.197)" fill="#d9f2f2" fill-rule="evenodd"/>
        <path id="Trazado_1246175" data-name="Trazado 1246175" d="M53.937,181.264v9.44a1.364,1.364,0,0,1-1.271,1.271H41.412a1.241,1.241,0,0,1-1.271-1.271v-9.44a1.241,1.241,0,0,1,1.271-1.271H52.667A1.241,1.241,0,0,1,53.937,181.264ZM90.063,176H14v51.011H77.355A18.026,18.026,0,0,1,90.063,193.79ZM53.937,196.695v9.44a1.364,1.364,0,0,1-1.271,1.271H41.412a1.241,1.241,0,0,1-1.271-1.271v-9.44a1.241,1.241,0,0,1,1.271-1.271H52.667A1.241,1.241,0,0,1,53.937,196.695Zm-22.51-4.72H20.172A1.241,1.241,0,0,1,18.9,190.7v-9.44a1.241,1.241,0,0,1,1.271-1.271H31.427a1.241,1.241,0,0,1,1.271,1.271v9.44A1.364,1.364,0,0,1,31.427,191.975Zm1.271,4.72v9.44a1.364,1.364,0,0,1-1.271,1.271H20.172a1.241,1.241,0,0,1-1.271-1.271v-9.44a1.241,1.241,0,0,1,1.271-1.271H31.427A1.241,1.241,0,0,1,32.7,196.695Zm8.714,14.341H52.667a1.241,1.241,0,0,1,1.271,1.271v9.44a1.364,1.364,0,0,1-1.271,1.271H41.412a1.241,1.241,0,0,1-1.271-1.271v-9.44A1.241,1.241,0,0,1,41.412,211.036ZM32.7,212.307v9.44a1.364,1.364,0,0,1-1.271,1.271H20.172a1.241,1.241,0,0,1-1.271-1.271v-9.44a1.241,1.241,0,0,1,1.271-1.271H31.427A1.241,1.241,0,0,1,32.7,212.307Zm41.208-20.332H62.651A1.241,1.241,0,0,1,61.38,190.7v-9.44a1.241,1.241,0,0,1,1.271-1.271H73.906a1.241,1.241,0,0,1,1.271,1.271v9.44A1.364,1.364,0,0,1,73.906,191.975Z" transform="translate(-11.459 -110.493)" fill="#d9f2f2" fill-rule="evenodd"/>
        <g id="Grupo_1201632" data-name="Grupo 1201632" transform="translate(9.984 72.042)">
          <path id="Trazado_1246176" data-name="Trazado 1246176" d="M289,212v6.9h8.714V212Z" transform="translate(-246.521 -212)" fill="#ffe600" fill-rule="evenodd"/>
          <path id="Trazado_1246177" data-name="Trazado 1246177" d="M180.714,218.9V212H172v6.9Z" transform="translate(-150.761 -212)" fill="#ffe600" fill-rule="evenodd"/>
          <path id="Trazado_1246178" data-name="Trazado 1246178" d="M63.714,218.9V212H55v6.9Z" transform="translate(-55 -212)" fill="#ffe600" fill-rule="evenodd"/>
          <path id="Trazado_1246179" data-name="Trazado 1246179" d="M63.714,297H55v6.9h8.714Z" transform="translate(-55 -281.57)" fill="#ffe600" fill-rule="evenodd"/>
          <path id="Trazado_1246180" data-name="Trazado 1246180" d="M172,297v6.9h8.714V297Z" transform="translate(-150.761 -281.57)" fill="#ffe600" fill-rule="evenodd"/>
          <path id="Trazado_1246181" data-name="Trazado 1246181" d="M180.714,383H172v6.9h8.714Z" transform="translate(-150.761 -351.958)" fill="#ffe600" fill-rule="evenodd"/>
          <path id="Trazado_1246182" data-name="Trazado 1246182" d="M63.714,389.9V383H55v6.9Z" transform="translate(-55 -351.958)" fill="#ffe600" fill-rule="evenodd"/>
        </g>
        <path id="Trazado_1246183" data-name="Trazado 1246183" d="M331.631,291.446A16.337,16.337,0,0,0,328,300.16c1.089,0,3.086-.363,3.086,1.271s-2,1.271-3.086,1.271a16.924,16.924,0,0,0,3.631,8.9c.726-.726,2-2.36,3.086-1.271s-.545,2.36-1.271,3.086a16.337,16.337,0,0,0,8.714,3.631c0-1.089-.363-3.086,1.271-3.086s1.271,2,1.271,3.086a16.337,16.337,0,0,0,8.714-3.631c-.726-.726-2.36-2-1.271-3.086s2.36.545,3.086,1.271a17.552,17.552,0,0,0,3.631-8.9c-1.089,0-3.086.363-3.086-1.271s2-1.271,3.086-1.271a16.337,16.337,0,0,0-3.631-8.714c-.726.726-2,2.36-3.086,1.271s.545-2.36,1.271-3.086A16.337,16.337,0,0,0,344.7,286c0,1.089.363,3.086-1.271,3.086s-1.271-2-1.271-3.086a16.337,16.337,0,0,0-8.714,3.631c.726.726,2.36,2,1.271,3.086S332.357,292.172,331.631,291.446Zm11.8,13.434c-3.449,0-4.538-5.083-1.271-6.535v-6.172a1.272,1.272,0,0,1,2.541,0v6.172a3.589,3.589,0,0,1,1.815,4.357l2.36,2.36c1.089,1.089-.726,2.9-1.815,1.815l-2.178-2.36A4.274,4.274,0,0,1,343.43,304.88Z" transform="translate(-268.457 -200.524)" fill="#d9f2f2" fill-rule="evenodd"/>
        <path id="Trazado_1246184" data-name="Trazado 1246184" d="M410.452,367.931a.728.728,0,0,0-1.452,0c0,.726.545,1.089,1.089.726A.943.943,0,0,0,410.452,367.931Z" transform="translate(-334.753 -267.025)" fill="#ffe600" fill-rule="evenodd"/>
      </g>
    </g>
    <rect id="Rect치ngulo_410876" data-name="Rect치ngulo 410876" width="136.097" height="121.182" transform="translate(300.051 6619)" fill="none"/>
  </g>
</svg>
