<svg xmlns="http://www.w3.org/2000/svg" width="136.684" height="121.182" viewBox="0 0 136.684 121.182">
  <g id="Grupo_1201628" data-name="Grupo 1201628" transform="translate(-300.051 -6619)">
    <g id="Grupo_1201612" data-name="Grupo 1201612" transform="translate(300.983 6634.813)">
      <g id="Rectángulo_410589" data-name="Rectángulo 410589" transform="translate(0 17.779)" fill="#ffc94a" stroke="#dfab32" stroke-width="1">
        <rect width="135.752" height="45.251" rx="8" stroke="none"/>
        <rect x="0.5" y="0.5" width="134.752" height="44.251" rx="7.5" fill="none"/>
      </g>
      <g id="Grupo_1201635" data-name="Grupo 1201635" transform="translate(3.698 -17.22)">
        <path id="Trazado_1246302" data-name="Trazado 1246302" d="M55.218,213.849a13.735,13.735,0,0,0-1.049-2.47l3.069-3.069-5.54-5.54-3.069,3.069a13.737,13.737,0,0,0-2.47-1.049V200h-8.31v4.79a13.737,13.737,0,0,0-2.47,1.049L32.31,202.77l-5.54,5.54,3.069,3.069a13.736,13.736,0,0,0-1.049,2.47H24v8.31h4.79a13.737,13.737,0,0,0,1.049,2.47L26.77,227.7l5.54,5.54,3.069-3.069a13.737,13.737,0,0,0,2.47,1.049v4.79h8.31v-4.79a13.737,13.737,0,0,0,2.47-1.049l3.069,3.069,5.54-5.54-3.069-3.069a13.736,13.736,0,0,0,1.049-2.47h4.79v-8.31Z" transform="translate(-6.615 -152.147)" fill="#3397e8"/>
        <ellipse id="Elipse_12370" data-name="Elipse 12370" cx="9.878" cy="9.449" rx="9.878" ry="9.449" transform="translate(25.449 56.371)" fill="#e9eef2"/>
        <ellipse id="Elipse_12371" data-name="Elipse 12371" cx="3.865" cy="4.295" rx="3.865" ry="4.295" transform="translate(31.461 61.525)" fill="#2978b8"/>
        <path id="Trazado_1246303" data-name="Trazado 1246303" d="M191.4,104.326a5.54,5.54,0,0,0,5.54-5.54V24H136v80.326Z" transform="translate(-99.226 -6.615)" fill="#e9eef2"/>
        <path id="Trazado_1246304" data-name="Trazado 1246304" d="M59.4,50.383a11.081,11.081,0,0,0-2.855-4.919L36.548,25.469A5.015,5.015,0,0,0,33,24h0a5.015,5.015,0,0,0-3.546,1.469l-3.987,3.987a5.015,5.015,0,0,0,0,7.093L45.464,56.543A11.079,11.079,0,0,0,50.383,59.4l12.4,3.38Z" transform="translate(-6.615 -6.615)" fill="#fbe9d8"/>
        <path id="Trazado_1246305" data-name="Trazado 1246305" d="M29.456,25.469l-3.987,3.987A5.015,5.015,0,0,0,24,33h0a5.015,5.015,0,0,0,1.469,3.546l4.071,4.071L40.619,29.54l-4.071-4.071A5.015,5.015,0,0,0,33,24h0a5.015,5.015,0,0,0-3.546,1.469Z" transform="translate(-6.615 -6.615)" fill="#eb423f"/>
        <path id="Trazado_1246306" data-name="Trazado 1246306" d="M104,408h55.4v8.31a5.54,5.54,0,0,0,5.54,5.54h-55.4a5.54,5.54,0,0,1-5.54-5.54Z" transform="translate(-72.766 -324.139)" fill="#dadcde"/>
        <rect id="Rectángulo_410877" data-name="Rectángulo 410877" width="12.885" height="25.769" transform="translate(76.987 25.449)" fill="#dadcde"/>
        <path id="Trazado_1246307" data-name="Trazado 1246307" d="M197.72,204.049l8.7,2.375-2.375-8.7Z" transform="translate(-150.261 -150.261)" fill="#414649"/>
        <path id="Trazado_1246308" data-name="Trazado 1246308" d="M56,67.079,71.923,83l0,0L83.006,71.927l0,0L67.079,56Z" transform="translate(-33.075 -33.075)" fill="#3397e8"/>
        <rect id="Rectángulo_410878" data-name="Rectángulo 410878" width="5.876" height="23.503" transform="translate(25.695 29.849) rotate(-45)" fill="#2978b8"/>
        <circle id="Elipse_12372" data-name="Elipse 12372" cx="3.006" cy="3.006" r="3.006" transform="translate(64.102 64.102)" fill="#3397e8"/>
        <rect id="Rectángulo_410879" data-name="Rectángulo 410879" width="13.743" height="11.167" transform="translate(45.205 61.525)" fill="#eb423f"/>
        <rect id="Rectángulo_410880" data-name="Rectángulo 410880" width="14.602" height="11.167" transform="translate(75.269 61.525)" fill="#3dc285"/>
        <rect id="Rectángulo_410881" data-name="Rectángulo 410881" width="14.602" height="5.154" transform="translate(59.807 78.705)" fill="#ffd33a"/>
        <rect id="Rectángulo_410882" data-name="Rectángulo 410882" width="15.669" height="3.917" transform="translate(20.155 31.234) rotate(-45)" fill="#ffd33a"/>
        <path id="Trazado_1246309" data-name="Trazado 1246309" d="M97.711,16H36.774a1.385,1.385,0,0,0-1.385,1.385v4.966l-4.476-4.476a6.4,6.4,0,0,0-9.052,0l-3.987,3.987a6.4,6.4,0,0,0,0,9.051L33.43,46.468h-2.2a1.385,1.385,0,0,0-1.385,1.385v3.81q-.41.16-.812.344l-2.364-2.363a1.385,1.385,0,0,0-1.959,0l-5.54,5.54a1.385,1.385,0,0,0,0,1.959l2.364,2.363q-.184.4-.344.812h-3.81A1.385,1.385,0,0,0,16,61.7v8.31A1.385,1.385,0,0,0,17.385,71.4h3.81q.16.411.344.812l-2.363,2.363a1.385,1.385,0,0,0,0,1.959l5.54,5.54a1.385,1.385,0,0,0,1.959,0l2.364-2.363q.4.184.812.344V92.171A6.932,6.932,0,0,0,36.774,99.1h55.4A6.932,6.932,0,0,0,99.1,92.171V17.385A1.385,1.385,0,0,0,97.711,16ZM47.972,38.851l-1.5,1.5L32.5,26.387l1.5-1.5Zm6.217,15.338-4.065-1.108,2.957-2.957Zm-7.143-1.948-2.915-.795a9.712,9.712,0,0,1-3.25-1.587l8.977-8.977a9.712,9.712,0,0,1,1.587,3.25l.795,2.915ZM22.113,31.234l9.121-9.121.811.811-9.121,9.121Zm8.428-2.889L44.51,42.314l-2.2,2.2L28.346,30.542ZM19.833,23.82l3.987-3.987a3.63,3.63,0,0,1,5.134,0l.322.322-9.121,9.121-.321-.321a3.63,3.63,0,0,1,0-5.134ZM26.387,32.5,40.355,46.468l-1.5,1.5L24.883,34Zm9,36.127a2.77,2.77,0,0,1,0-5.54Zm0-8.31a5.54,5.54,0,0,0,0,11.079v2.77a8.31,8.31,0,0,1,0-16.619ZM29.427,76.806a1.385,1.385,0,0,0-1.643.236l-2.09,2.09-3.581-3.581,2.09-2.09a1.385,1.385,0,0,0,.236-1.643A12.358,12.358,0,0,1,23.5,69.6a1.385,1.385,0,0,0-1.322-.971H18.77v-5.54h3.405a1.385,1.385,0,0,0,1.322-.971A12.358,12.358,0,0,1,24.44,59.9a1.385,1.385,0,0,0-.236-1.643l-2.09-2.09,3.581-3.581,2.09,2.09a1.385,1.385,0,0,0,1.643.236,12.37,12.37,0,0,1,2.221-.943,1.385,1.385,0,0,0,.971-1.322V49.238h2.77v5.54a11.079,11.079,0,0,0,0,22.159v5.54h-2.77V79.071a1.385,1.385,0,0,0-.971-1.322A12.37,12.37,0,0,1,29.427,76.806Zm7.347,19.519a4.16,4.16,0,0,1-4.155-4.155V85.246H85.246v6.925a6.889,6.889,0,0,0,1.388,4.155ZM65.857,67.242a1.385,1.385,0,1,1,1.385,1.385A1.385,1.385,0,0,1,65.857,67.242Zm6.925,12.464v2.77H61.7v-2.77ZM96.326,92.171a4.155,4.155,0,1,1-8.31,0v-8.31a1.385,1.385,0,0,0-1.385-1.385H75.552V78.322a1.385,1.385,0,0,0-1.385-1.385h-5.54V71.159a4.175,4.175,0,0,0,2.532-2.532h3.008v4.155a1.385,1.385,0,0,0,1.385,1.385H89.4a1.385,1.385,0,0,0,1.385-1.385V61.7A1.385,1.385,0,0,0,89.4,60.318H75.552A1.385,1.385,0,0,0,74.167,61.7v4.155H71.159a4.155,4.155,0,0,0-7.833,0H60.318V61.7a1.385,1.385,0,0,0-1.385-1.385H45.083A1.385,1.385,0,0,0,43.7,61.7V72.782a1.385,1.385,0,0,0,1.385,1.385H58.933a1.385,1.385,0,0,0,1.385-1.385V68.627h3.008a4.175,4.175,0,0,0,2.532,2.532v5.778h-5.54a1.385,1.385,0,0,0-1.385,1.385v4.155H38.159V51.187A12.488,12.488,0,0,0,43.4,54.118L55.8,57.5a1.38,1.38,0,0,0,.365.049H78.322a1.385,1.385,0,0,0,1.385-1.385V52.008H89.4a1.385,1.385,0,0,0,1.385-1.385V25.694A1.385,1.385,0,0,0,89.4,24.309H78.322a1.385,1.385,0,0,0-1.385,1.385V54.778H57.221l-1.511-5.54h14.3a1.385,1.385,0,0,0,0-2.77H54.954L54.2,43.7H70.012a1.385,1.385,0,0,0,0-2.77H53.148a12.484,12.484,0,0,0-1.96-2.77h4.975a1.385,1.385,0,1,0,0-2.77h-5.54a1.385,1.385,0,0,0-1.3.9L38.159,25.121V18.77H96.326ZM76.937,71.4v-8.31H88.016V71.4Zm-19.389-8.31V71.4H46.468v-8.31ZM79.707,49.238V27.079h8.31V49.238Z" transform="translate(0 0)"/>
        <path id="Trazado_1246310" data-name="Trazado 1246310" d="M225.385,66.77h5.54a1.385,1.385,0,1,0,0-2.77h-5.54a1.385,1.385,0,0,0,0,2.77Z" transform="translate(-171.992 -39.691)"/>
        <path id="Trazado_1246311" data-name="Trazado 1246311" d="M209.385,98.77h19.389a1.385,1.385,0,0,0,0-2.77H209.385a1.385,1.385,0,1,0,0,2.77Z" transform="translate(-158.762 -66.151)"/>
        <path id="Trazado_1246312" data-name="Trazado 1246312" d="M289.385,66.77h5.54a1.385,1.385,0,0,0,0-2.77h-5.54a1.385,1.385,0,0,0,0,2.77Z" transform="translate(-224.913 -39.691)"/>
        <path id="Trazado_1246313" data-name="Trazado 1246313" d="M281.694,128h-8.31a1.385,1.385,0,0,0,0,2.77h8.31a1.385,1.385,0,0,0,0-2.77Z" transform="translate(-211.682 -92.611)"/>
      </g>
    </g>
    <rect id="Rectángulo_410876" data-name="Rectángulo 410876" width="136.097" height="121.182" transform="translate(300.051 6619)" fill="none"/>
  </g>
</svg>
