<svg xmlns="http://www.w3.org/2000/svg" width="136.684" height="121.182" viewBox="0 0 136.684 121.182">
  <g id="Grupo_1201629" data-name="Grupo 1201629" transform="translate(-300.051 -6619)">
    <g id="Grupo_1201612" data-name="Grupo 1201612" transform="translate(300.983 6634.813)">
      <g id="Rect치ngulo_410589" data-name="Rect치ngulo 410589" transform="translate(0 20.542)" fill="#ffc94a" stroke="#dfab32" stroke-width="1">
        <rect width="135.752" height="45.251" rx="8" stroke="none"/>
        <rect x="0.5" y="0.5" width="134.752" height="44.251" rx="7.5" fill="none"/>
      </g>
      <g id="Grupo_1201636" data-name="Grupo 1201636" transform="translate(33.872 5.173)">
        <path id="Trazado_1246314" data-name="Trazado 1246314" d="M24.385,59.575l1.225,7.349H.5L8.462,51Z" transform="translate(0.113 11.469)" fill="#b3b3b3"/>
        <path id="Trazado_1246315" data-name="Trazado 1246315" d="M70.072,66.7H37l3.675-8.574L55.373,52Z" transform="translate(8.321 11.694)" fill="#b3b3b3"/>
        <path id="Trazado_1246316" data-name="Trazado 1246316" d="M50.777,50.55,62.12,53.575,47.421,59.7l-3.675,8.574h-19.6l-1.225-7.349L7,52.35,19.249,45,30.273,56.025h7.349l6.124-7.349Z" transform="translate(1.574 10.12)" fill="#ccc"/>
        <path id="Trazado_1246317" data-name="Trazado 1246317" d="M41.5,50.025l-6.124,7.349H28.024L17,46.35,24.349,39h4.9Z" transform="translate(3.823 8.771)" fill="#e6e6e6"/>
        <path id="Trazado_1246318" data-name="Trazado 1246318" d="M27.9,27.948v19.6H23V1h4.9Z" transform="translate(5.172 0.225)" fill="#c89d84"/>
        <path id="Trazado_1246319" data-name="Trazado 1246319" d="M63.746,30.4v4.9H56.4a18.35,18.35,0,0,1-11.024-3.675,18.4,18.4,0,0,0-11.024-3.675H27V1h7.349A18.35,18.35,0,0,1,45.373,4.675a18.328,18.328,0,0,0,5.218,2.731,18.251,18.251,0,0,0,5.806.943h7.349V25.5l-4.9,1.225Z" transform="translate(6.072 0.225)" fill="#d74c4c"/>
        <circle id="Elipse_12373" data-name="Elipse 12373" cx="1.225" cy="1.225" r="1.225" transform="translate(39.196 6.126)" fill="#e47f7f"/>
        <path id="Trazado_1246320" data-name="Trazado 1246320" d="M50.454,14.283a19.713,19.713,0,0,1-7.839-3.525A17.081,17.081,0,0,0,36.9,7.949a1.225,1.225,0,1,1,.653-2.362A19.527,19.527,0,0,1,44.084,8.8a17.246,17.246,0,0,0,6.859,3.083,1.225,1.225,0,0,1,.954,1.445,1.164,1.164,0,0,1-1.444.957Z" transform="translate(8.096 1.246)" fill="#e47f7f"/>
        <g id="Grupo_1201636-2" data-name="Grupo 1201636" transform="translate(-0.001 0)">
          <path id="Trazado_1246321" data-name="Trazado 1246321" d="M78.034,76.3l-7.1-7.1,2.2-2.2a1.225,1.225,0,0,0,.322-1.164l-1.225-4.9a1.225,1.225,0,1,0-2.376.6l1.056,4.226-1.705,1.707L64.56,62.829a1.225,1.225,0,0,0-.55-.317l-9.892-2.638,1.872-3.752,3.192-1.063a1.227,1.227,0,1,0-.775-2.327l-3.675,1.225a1.225,1.225,0,0,0-.708.612L51.7,59.223l-5.775-1.531L34.3,47.227V29.4h6.124a17.169,17.169,0,0,1,10.289,3.43,19.45,19.45,0,0,0,11.759,3.92h7.349a1.225,1.225,0,0,0,1.225-1.225v-4.9a1.225,1.225,0,0,0-.49-.98l-2.839-2.13,2.4-.6a1.225,1.225,0,0,0,.927-1.188V8.574a1.225,1.225,0,0,0-1.225-1.225H62.469a17,17,0,0,1-5.416-.879A17.116,17.116,0,0,1,52.18,3.92,19.454,19.454,0,0,0,40.421,0H28.172a1.225,1.225,0,0,0-1.225,1.225v46.04l-5.879,5.879L18.2,48.367a1.225,1.225,0,0,0-.753-.557l-4.9-1.225a1.225,1.225,0,1,0-.593,2.376l4.41,1.1L19.149,54.7,7.944,61.42a1.225,1.225,0,0,0-.465.5L5.24,66.4,1.96,63.939A1.225,1.225,0,1,0,.49,65.9l3.637,2.727-4,8a1.225,1.225,0,1,0,2.191,1.1L9.511,63.337l11.122-6.674L30.981,67.011a1.369,1.369,0,0,0,1.732,0,1.225,1.225,0,0,0,0-1.732L22.555,55.12,28.68,49H32.6l11.024,9.922-5.37,6.444a1.188,1.188,0,0,0,.157,1.725,1.138,1.138,0,0,0,1.726-.157l5.623-6.748,17.3,4.615,4.41,4.41-2.2,2.2a1.225,1.225,0,0,0,0,1.732,2.183,2.183,0,0,0,1.732,0l2.2-2.195,7.1,7.1A1.225,1.225,0,1,0,78.034,76.3ZM50.71,5.879a19.517,19.517,0,0,0,5.565,2.915,19.42,19.42,0,0,0,6.194,1h6.124V24.767l-3.971.993a1.225,1.225,0,0,0-.438,2.167l4.41,3.307V34.3H62.469a17.026,17.026,0,0,1-10.289-3.43,19.618,19.618,0,0,0-11.759-3.92H34.3V2.45h6.124A17.017,17.017,0,0,1,50.71,5.879ZM31.847,2.45v44.1H29.4V2.45Z" transform="translate(0.001 0)" fill="#252525"/>
          <path id="Trazado_1246322" data-name="Trazado 1246322" d="M22.155,57.875l-7.349-3.958a1.225,1.225,0,1,0-1.163,2.156l6.821,3.674.922,5.533A1.225,1.225,0,0,0,22.593,66.3a1.134,1.134,0,0,0,.206-.018,1.225,1.225,0,0,0,1.007-1.409l-1.02-6.124a1.225,1.225,0,0,0-.631-.877Z" transform="translate(2.924 12.092)" fill="#252525"/>
          <path id="Trazado_1246323" data-name="Trazado 1246323" d="M47.681,53.6l-7.349,3.062a1.225,1.225,0,0,0-.654.648l-3.149,7.349a1.225,1.225,0,1,0,2.251.965l2.953-6.892,6.891-2.871a1.225,1.225,0,1,0-.943-2.261Z" transform="translate(8.193 12.031)" fill="#252525"/>
          <circle id="Elipse_12374" data-name="Elipse 12374" cx="1.225" cy="1.225" r="1.225" transform="translate(12.25 63.978)" fill="#252525"/>
        </g>
      </g>
    </g>
    <rect id="Rect치ngulo_410876" data-name="Rect치ngulo 410876" width="136.097" height="121.182" transform="translate(300.051 6619)" fill="none"/>
  </g>
</svg>
