<svg xmlns="http://www.w3.org/2000/svg" width="136.685" height="121.182" viewBox="0 0 136.685 121.182">
  <g id="Grupo_1201631" data-name="Grupo 1201631" transform="translate(-300.051 -6619)">
    <g id="Grupo_1201612" data-name="Grupo 1201612" transform="translate(300.983 6634.813)">
      <g id="Rect치ngulo_410589" data-name="Rect치ngulo 410589" transform="translate(0 20.542)" fill="#ffc94a" stroke="#dfab32" stroke-width="1">
        <rect width="135.752" height="45.251" rx="8" stroke="none"/>
        <rect x="0.5" y="0.5" width="134.752" height="44.251" rx="7.5" fill="none"/>
      </g>
      <g id="Grupo_1201637" data-name="Grupo 1201637" transform="translate(32.635 -0.896)">
        <path id="Trazado_1246324" data-name="Trazado 1246324" d="M66.208,123.717H20.3a9.467,9.467,0,0,1-9.467-9.467V57.776A9.467,9.467,0,0,1,20.3,48.309H66.208a9.467,9.467,0,0,1,9.467,9.467V114.25A9.467,9.467,0,0,1,66.208,123.717Z" transform="translate(-6.257 -40.324)" fill="#c67d66"/>
        <path id="Trazado_1246325" data-name="Trazado 1246325" d="M23.478,123.718H20.295a9.467,9.467,0,0,1-9.466-9.468V57.776a9.466,9.466,0,0,1,9.466-9.466h3.183a9.468,9.468,0,0,0-9.468,9.466v56.475A9.468,9.468,0,0,0,23.478,123.718Z" transform="translate(-6.257 -40.324)" fill="#aa593d"/>
        <path id="Trazado_1246326" data-name="Trazado 1246326" d="M102.694,158.531H60.709a3.816,3.816,0,0,1-3.816-3.816V104.133a3.816,3.816,0,0,1,3.816-3.816h41.986a3.816,3.816,0,0,1,3.816,3.816v50.583A3.816,3.816,0,0,1,102.694,158.531Z" transform="translate(-44.706 -83.735)" fill="#dfeaef"/>
        <path id="Trazado_1246327" data-name="Trazado 1246327" d="M126.309,7.5H101.591a6.063,6.063,0,0,0-6.063,6.063v7.393a6.063,6.063,0,0,0,6.063,6.063h24.718a6.063,6.063,0,0,0,6.063-6.063V13.563A6.063,6.063,0,0,0,126.309,7.5Z" transform="translate(-76.955 -6.26)" fill="#f6e266"/>
        <path id="Trazado_1246328" data-name="Trazado 1246328" d="M106.363,27.017H101.59a6.061,6.061,0,0,1-6.062-6.062V13.561A6.062,6.062,0,0,1,101.59,7.5h4.772a6.064,6.064,0,0,0-6.062,6.062v7.393a6.062,6.062,0,0,0,6.062,6.062Z" transform="translate(-76.955 -6.259)" fill="#ecc32e"/>
        <circle id="Elipse_12375" data-name="Elipse 12375" cx="4.091" cy="4.091" r="4.091" transform="translate(24.942 6.8)" fill="#617881"/>
        <circle id="Elipse_12376" data-name="Elipse 12376" cx="4.091" cy="4.091" r="4.091" transform="translate(40.866 6.8)" fill="#617881"/>
        <circle id="Elipse_12377" data-name="Elipse 12377" cx="13.143" cy="13.143" r="13.143" transform="translate(59.338 1.303)" fill="#80e29d"/>
        <path id="Trazado_1246329" data-name="Trazado 1246329" d="M356.991,34.06a13.383,13.383,0,0,1-1.705.109,13.143,13.143,0,0,1,0-26.286,13.352,13.352,0,0,1,1.705.109,13.145,13.145,0,0,0,0,26.067Z" transform="translate(-282.805 -6.58)" fill="#6ec186"/>
        <path id="Trazado_1246330" data-name="Trazado 1246330" d="M131.887,44.3a5.331,5.331,0,1,0-5.331-5.331A5.337,5.337,0,0,0,131.887,44.3Zm0-8.182a2.851,2.851,0,1,1-2.851,2.851A2.855,2.855,0,0,1,131.887,36.116Z" transform="translate(-102.854 -28.076)"/>
        <path id="Trazado_1246331" data-name="Trazado 1246331" d="M228.225,44.3a5.331,5.331,0,1,0-5.331-5.331A5.337,5.337,0,0,0,228.225,44.3Zm0-8.182a2.851,2.851,0,1,1-2.851,2.851A2.855,2.855,0,0,1,228.225,36.116Z" transform="translate(-183.268 -28.076)"/>
        <path id="Trazado_1246332" data-name="Trazado 1246332" d="M72.482.063a14.385,14.385,0,0,0-12.15,6.693c-.126,0-.252-.01-.38-.01H56.633A7.311,7.311,0,0,0,49.354,0H24.636a7.311,7.311,0,0,0-7.279,6.746H14.039A10.718,10.718,0,0,0,3.333,17.452V73.926A10.719,10.719,0,0,0,14.039,84.634H59.952A10.719,10.719,0,0,0,70.658,73.926V28.715a14.446,14.446,0,0,0,1.824.115,14.237,14.237,0,0,0,6.4-1.5,1.24,1.24,0,1,0-1.106-2.219,11.779,11.779,0,0,1-5.3,1.242A11.9,11.9,0,1,1,81.3,22.444a1.24,1.24,0,1,0,1.836,1.666A14.384,14.384,0,0,0,72.482.063ZM58.128,15.346c-.046,0-.093,0-.139,0H56.626c.019-.213.03-.429.03-.647V9.225H59.08a14.311,14.311,0,0,0-.981,5.22c0,.3.01.6.029.9ZM19.813,7.3A4.829,4.829,0,0,1,24.636,2.48H49.354A4.829,4.829,0,0,1,54.177,7.3V14.7a4.829,4.829,0,0,1-4.823,4.823H24.636A4.829,4.829,0,0,1,19.812,14.7V7.3ZM68.178,28.172V73.926a8.236,8.236,0,0,1-8.226,8.228H14.039a8.236,8.236,0,0,1-8.226-8.228V17.452a8.236,8.236,0,0,1,8.226-8.226h3.294V14.7c0,.218.011.433.03.646H16A5.061,5.061,0,0,0,10.948,20.4V62.219a1.24,1.24,0,0,0,2.48,0V20.4A2.579,2.579,0,0,1,16,17.821h2.035A7.311,7.311,0,0,0,24.636,22H49.354a7.311,7.311,0,0,0,6.6-4.176h2.037a2.6,2.6,0,0,1,.525.054,14.319,14.319,0,0,0,2.05,4.614V70.98a2.579,2.579,0,0,1-2.575,2.577H16a2.579,2.579,0,0,1-2.575-2.577v-3.8a1.24,1.24,0,1,0-2.48,0v3.8A5.061,5.061,0,0,0,16,76.036H57.989a5.061,5.061,0,0,0,5.055-5.057V25.29a14.376,14.376,0,0,0,5.135,2.882Z"/>
        <path id="Trazado_1246333" data-name="Trazado 1246333" d="M391.224,45.359a1.24,1.24,0,0,0-1.718.351l-7.118,10.778-4.381-4.38a1.24,1.24,0,0,0-1.753,1.753l5.455,5.455a1.24,1.24,0,0,0,.877.363q.062,0,.125-.006a1.24,1.24,0,0,0,.91-.55l7.955-12.046A1.24,1.24,0,0,0,391.224,45.359Z" transform="translate(-310.974 -37.69)"/>
        <path id="Trazado_1246334" data-name="Trazado 1246334" d="M97.592,169.345h34.092a1.24,1.24,0,1,0,0-2.479H97.592a1.24,1.24,0,0,0,0,2.479Z" transform="translate(-77.643 -139.283)"/>
        <path id="Trazado_1246335" data-name="Trazado 1246335" d="M97.592,252.9h34.092a1.24,1.24,0,1,0,0-2.48H97.592a1.24,1.24,0,0,0,0,2.48Z" transform="translate(-77.643 -209.025)"/>
        <path id="Trazado_1246336" data-name="Trazado 1246336" d="M97.592,294.148h34.092a1.24,1.24,0,1,0,0-2.48H97.592a1.24,1.24,0,0,0,0,2.48Z" transform="translate(-77.643 -243.455)"/>
        <path id="Trazado_1246337" data-name="Trazado 1246337" d="M97.592,335.4h34.092a1.24,1.24,0,1,0,0-2.48H97.592a1.24,1.24,0,0,0,0,2.48Z" transform="translate(-77.643 -277.886)"/>
        <path id="Trazado_1246338" data-name="Trazado 1246338" d="M97.592,376.644h17.423a1.24,1.24,0,1,0,0-2.479H97.592a1.24,1.24,0,0,0,0,2.479Z" transform="translate(-77.643 -312.315)"/>
      </g>
    </g>
    <rect id="Rect치ngulo_410876" data-name="Rect치ngulo 410876" width="136.097" height="121.182" transform="translate(300.051 6619)" fill="none"/>
  </g>
</svg>
