<svg xmlns="http://www.w3.org/2000/svg" width="85" height="85" viewBox="0 0 85 85">
  <g id="Grupo_1201516" data-name="Grupo 1201516" transform="translate(-627.051 -1946)">
    <circle id="Elipse_12358" data-name="Elipse 12358" cx="42.5" cy="42.5" r="42.5" transform="translate(627.051 1946)" fill="#5a8441"/>
    <g id="Grupo_1201515" data-name="Grupo 1201515" transform="translate(639.051 1958)">
      <path id="Trazado_1245956" data-name="Trazado 1245956" d="M122.9,28.087A20.579,20.579,0,1,0,95.239,47.413v6.806A4.261,4.261,0,0,0,99.5,58.48h5.65a4.261,4.261,0,0,0,4.261-4.261V47.413A20.587,20.587,0,0,0,122.9,28.087Zm0,0" transform="translate(-72.079 -6.62)" fill="#ffe469"/>
      <path id="Trazado_1245957" data-name="Trazado 1245957" d="M238.111,7.508a20.716,20.716,0,0,0-2.365.136,20.583,20.583,0,0,1,4.72,39.769v6.806a4.261,4.261,0,0,1-4.261,4.261h4.731a4.261,4.261,0,0,0,4.261-4.261V47.413a20.582,20.582,0,0,0-7.086-39.905Zm0,0" transform="translate(-207.865 -6.62)" fill="#ffda30"/>
      <path id="Trazado_1245958" data-name="Trazado 1245958" d="M145.157,188.7c2.156,2.156,5.4,2.6,6.806,2.694a.633.633,0,0,0,.674-.673c-.091-1.41-.538-4.651-2.694-6.807s-5.4-2.6-6.806-2.694a.633.633,0,0,0-.674.673C142.554,183.3,143,186.544,145.157,188.7Zm0,0" transform="translate(-125.613 -159.786)" fill="#09a66d"/>
      <path id="Trazado_1245959" data-name="Trazado 1245959" d="M152.644,190.717c-.091-1.409-.538-4.65-2.694-6.806s-5.4-2.6-6.806-2.694a.633.633,0,0,0-.674.607,8.865,8.865,0,0,1,3.578,2.087c2.156,2.156,2.6,5.4,2.694,6.806a.643.643,0,0,1,0,.067,13.615,13.615,0,0,0,3.229.607A.633.633,0,0,0,152.644,190.717Zm0,0" transform="translate(-125.62 -159.783)" fill="#028f5d"/>
      <path id="Trazado_1245960" data-name="Trazado 1245960" d="M290.462,188.7c-2.154,2.154-5.392,2.6-6.8,2.694a.636.636,0,0,1-.677-.677c.091-1.411.54-4.649,2.694-6.8s5.391-2.6,6.8-2.694a.636.636,0,0,1,.677.677C293.064,183.309,292.616,186.546,290.462,188.7Zm0,0" transform="translate(-249.513 -159.786)" fill="#09a66d"/>
      <path id="Trazado_1245961" data-name="Trazado 1245961" d="M292.479,181.22a13.333,13.333,0,0,0-3.75.79,10.548,10.548,0,0,1-2.642,6.216,8.569,8.569,0,0,1-3.053,1.9c-.024.219-.04.416-.051.586a.636.636,0,0,0,.677.677c1.412-.091,4.649-.54,6.8-2.694s2.6-5.391,2.693-6.8A.636.636,0,0,0,292.479,181.22Zm0,0" transform="translate(-249.513 -159.786)" fill="#028f5d"/>
      <path id="Trazado_1245962" data-name="Trazado 1245962" d="M233.9,87.22c0,3.067-2,5.688-2.924,6.737a.614.614,0,0,1-.92,0c-.925-1.049-2.924-3.67-2.924-6.737s2-5.688,2.924-6.736a.613.613,0,0,1,.92,0C231.9,81.533,233.9,84.153,233.9,87.22Zm0,0" transform="translate(-200.271 -70.782)" fill="#09a66d"/>
      <path id="Trazado_1245963" data-name="Trazado 1245963" d="M241.661,80.484a.613.613,0,0,0-.92,0,13.862,13.862,0,0,0-1.491,2.046,8.394,8.394,0,0,1,0,9.382,13.888,13.888,0,0,0,1.491,2.046.614.614,0,0,0,.92,0c.925-1.049,2.924-3.67,2.924-6.737S242.586,81.533,241.661,80.484Zm0,0" transform="translate(-210.955 -70.782)" fill="#028f5d"/>
      <path id="Trazado_1245964" data-name="Trazado 1245964" d="M205.743,389.316h-5.65a4.261,4.261,0,0,1-4.261-4.261v-6.927a4.261,4.261,0,0,1,4.261-4.261h5.65A4.261,4.261,0,0,1,210,378.128v6.927A4.261,4.261,0,0,1,205.743,389.316Zm0,0" transform="translate(-172.672 -329.65)" fill="#f0f0f0"/>
      <path id="Trazado_1245965" data-name="Trazado 1245965" d="M240.833,373.867h-5.2a4.261,4.261,0,0,1,4.261,4.261v6.927a4.261,4.261,0,0,1-4.261,4.261h5.2a4.261,4.261,0,0,0,4.261-4.261v-6.927A4.261,4.261,0,0,0,240.833,373.867Zm0,0" transform="translate(-207.762 -329.65)" fill="#e8e8e8"/>
      <g id="Grupo_1201514" data-name="Grupo 1201514" transform="translate(20.217 43.414)">
        <path id="Trazado_1245966" data-name="Trazado 1245966" d="M190.056,371.065l-17,1.008a1.994,1.994,0,0,1-.236-3.982l17-1.008a1.994,1.994,0,0,1,.236,3.982Zm0,0" transform="translate(-170.945 -367.079)" fill="#9e9e9e"/>
        <path id="Trazado_1245967" data-name="Trazado 1245967" d="M190.056,438.9l-17,1.008a1.994,1.994,0,1,1-.236-3.981l17-1.008a1.994,1.994,0,1,1,.236,3.981Zm0,0" transform="translate(-170.945 -426.889)" fill="#9e9e9e"/>
        <path id="Trazado_1245968" data-name="Trazado 1245968" d="M190.056,438.9l-17,1.008a1.994,1.994,0,1,1-.236-3.981l17-1.008a1.994,1.994,0,1,1,.236,3.981Zm0,0" transform="translate(-170.945 -426.889)" fill="#9e9e9e"/>
      </g>
      <path id="Trazado_1245969" data-name="Trazado 1245969" d="M113.217,33.889A21.474,21.474,0,0,0,87.319,1.7a.887.887,0,0,0,.694,1.633,19.7,19.7,0,1,1,14.476,36.626.887.887,0,0,0-.581.833v1.893L96.6,43V35l2.662-2.485c1.223-.036,5.171-.362,7.781-2.972,3.055-3.055,2.98-7.943,2.976-8.15a.887.887,0,0,0-.867-.867c-.207-.005-5.095-.079-8.15,2.976-2.578,2.578-2.927,6.461-2.971,7.736L96.6,32.571V24.024a14.526,14.526,0,0,0,2.09-2.9.887.887,0,0,0-1.559-.845A12.711,12.711,0,0,1,95.8,22.24c-.029,0-.059,0-.088,0s-.059,0-.088,0a9.791,9.791,0,0,1-2.41-5.8,9.9,9.9,0,0,1,2.5-5.91,9.846,9.846,0,0,1,2.5,5.91c0,.206-.01.416-.031.625a.888.888,0,0,0,1.766.174c.026-.267.039-.535.039-.8,0-4.32-3.509-7.724-3.658-7.867a.887.887,0,0,0-1.226,0c-.15.143-3.658,3.547-3.658,7.867,0,3.669,2.53,6.676,3.385,7.587v8.543L93.39,31.226c-.045-1.284-.4-5.154-2.971-7.726-3.055-3.055-7.944-2.981-8.15-2.976a.887.887,0,0,0-.867.867c0,.207-.079,5.095,2.976,8.15C87,32.159,90.96,32.479,92.17,32.513L94.822,35v8.108l-5.312.315V40.793a.887.887,0,0,0-.582-.833A19.71,19.71,0,0,1,78.173,12.495a19.88,19.88,0,0,1,5.766-6.818.888.888,0,0,0-1.062-1.422,21.666,21.666,0,0,0-6.283,7.431A21.479,21.479,0,0,0,87.735,41.4v2.123c-3.774.082-3.829,5.857,0,5.77v2.253c-3.927.128-3.612,6.032.363,5.751a5.154,5.154,0,0,0,4.785,3.254h5.65a5.156,5.156,0,0,0,5.054-4.171l1.256-.074c3.69-.219,3.391-5.973-.341-5.753l-.821.049V48.478c0-.042,0-.083,0-.124l1.166-.069c3.685-.218,3.4-5.974-.341-5.753l-.821.049V41.4A21.41,21.41,0,0,0,113.217,33.889Zm-10.965-9.134a9.892,9.892,0,0,1,5.946-2.412,9.853,9.853,0,0,1-2.414,5.944A9.893,9.893,0,0,1,99.838,30.7,9.847,9.847,0,0,1,102.252,24.755ZM83.221,22.343a9.89,9.89,0,0,1,5.944,2.412,9.8,9.8,0,0,1,2.4,5.818.905.905,0,0,0-.085.079c-.011.012-.021.025-.031.037a9.757,9.757,0,0,1-5.815-2.4A9.9,9.9,0,0,1,83.221,22.343ZM104.675,44.3a1.109,1.109,0,0,1,.063,2.212l-17,1.008a1.107,1.107,0,0,1-1.173-1.095,1.107,1.107,0,0,1,1.042-1.116l17-1.008Zm.754,8.32a1.119,1.119,0,0,1-.69,1.914l-4.234.251a.888.888,0,0,0,.105,1.771l1.116-.066a3.379,3.379,0,0,1-3.193,2.287h-5.65a3.374,3.374,0,0,1-2.864-1.593l6.569-.389a.888.888,0,0,0-.1-1.771l-8.745.518a1.108,1.108,0,0,1-.131-2.211l17-1.008A1.1,1.1,0,0,1,105.429,52.622ZM89.51,51.444V49.194l12.4-.735c0,.006,0,.012,0,.018v2.231Zm0,0" transform="translate(-65.462)"/>
      <path id="Trazado_1245970" data-name="Trazado 1245970" d="M76.019,6.911a.888.888,0,0,0,1.27-1.24L73.817,2.118a.888.888,0,0,0-1.269,1.24Zm0,0" transform="translate(-63.745 -1.632)"/>
      <path id="Trazado_1245971" data-name="Trazado 1245971" d="M33.546,54.427l4.272,2.535a.888.888,0,0,0,.905-1.525L34.451,52.9A.888.888,0,0,0,33.546,54.427Zm0,0" transform="translate(-29.206 -46.53)"/>
      <path id="Trazado_1245972" data-name="Trazado 1245972" d="M9.112,113.933l4.783,1.343a.888.888,0,0,0,.48-1.708l-4.783-1.343A.888.888,0,0,0,9.112,113.933Zm0,0" transform="translate(-7.487 -98.919)"/>
      <path id="Trazado_1245973" data-name="Trazado 1245973" d="M5.824,177.837a.888.888,0,0,0,.011-1.774L.867,176a.887.887,0,0,0-.021,1.774l4.967.059Zm0,0" transform="translate(0 -155.188)"/>
      <path id="Trazado_1245974" data-name="Trazado 1245974" d="M14.779,230.1a.887.887,0,0,0-1.079-.64L8.887,230.69a.887.887,0,0,0,.439,1.719l4.813-1.228A.887.887,0,0,0,14.779,230.1Zm0,0" transform="translate(-7.272 -202.299)"/>
      <path id="Trazado_1245975" data-name="Trazado 1245975" d="M38.618,279.21a.887.887,0,0,0-1.208-.339L33.079,281.3a.888.888,0,0,0,.869,1.547l4.332-2.432A.887.887,0,0,0,38.618,279.21Zm0,0" transform="translate(-28.781 -245.789)"/>
      <path id="Trazado_1245976" data-name="Trazado 1245976" d="M75.448,321.361l-3.555,3.471c-.8.785.419,2.071,1.24,1.269l3.554-3.47A.888.888,0,0,0,75.448,321.361Zm0,0" transform="translate(-63.16 -283.131)"/>
      <path id="Trazado_1245977" data-name="Trazado 1245977" d="M396.364,321.386a.887.887,0,0,0-1.269,1.239l3.47,3.555a.888.888,0,0,0,1.27-1.239Zm0,0" transform="translate(-348.145 -283.141)"/>
      <path id="Trazado_1245978" data-name="Trazado 1245978" d="M433.048,281.377l-4.272-2.535a.887.887,0,0,0-.905,1.525l4.272,2.535A.888.888,0,0,0,433.048,281.377Zm0,0" transform="translate(-376.894 -245.749)"/>
      <path id="Trazado_1245979" data-name="Trazado 1245979" d="M453.876,230.781l-4.783-1.343a.888.888,0,0,0-.48,1.708l4.783,1.343A.888.888,0,0,0,453.876,230.781Zm0,0" transform="translate(-395.009 -202.271)"/>
      <path id="Trazado_1245980" data-name="Trazado 1245980" d="M460.833,176.563l-4.967-.059a.887.887,0,0,0-.021,1.774l4.968.059A.887.887,0,0,0,460.833,176.563Zm0,0" transform="translate(-401.187 -155.628)"/>
      <path id="Trazado_1245981" data-name="Trazado 1245981" d="M447.8,115.5a.906.906,0,0,0,1.079.64l4.813-1.229a.887.887,0,0,0-.438-1.719l-4.814,1.228A.887.887,0,0,0,447.8,115.5Zm0,0" transform="translate(-394.816 -99.774)"/>
      <path id="Trazado_1245982" data-name="Trazado 1245982" d="M427.457,57.394a.906.906,0,0,0,1.208.339L433,55.3a.888.888,0,0,0-.869-1.547L427.8,56.187A.887.887,0,0,0,427.457,57.394Zm0,0" transform="translate(-376.803 -47.291)"/>
      <path id="Trazado_1245983" data-name="Trazado 1245983" d="M395.784,7.791a.885.885,0,0,0,.62-.253l3.554-3.47a.888.888,0,0,0-1.239-1.27l-3.555,3.471A.894.894,0,0,0,395.784,7.791Zm0,0" transform="translate(-348.2 -2.244)"/>
    </g>
  </g>
</svg>
