<svg xmlns="http://www.w3.org/2000/svg" width="85" height="85" viewBox="0 0 85 85">
  <g id="Grupo_1201557" data-name="Grupo 1201557" transform="translate(-207.051 -4427)">
    <circle id="Elipse_12359" data-name="Elipse 12359" cx="42.5" cy="42.5" r="42.5" transform="translate(207.051 4427)" fill="#5a8441"/>
    <g id="Grupo_1201556" data-name="Grupo 1201556" transform="translate(188.161 4443)">
      <g id="Grupo_1201529" data-name="Grupo 1201529" transform="translate(39.68 0.789)">
        <path id="Trazado_1246027" data-name="Trazado 1246027" d="M83.817,59.812H48.092a1.7,1.7,0,0,1-1.7-1.7V9.2a1.7,1.7,0,0,1,1.7-1.7H83.817a1.7,1.7,0,0,1,1.7,1.7v48.91a1.7,1.7,0,0,1-1.7,1.7Z" transform="translate(-46.391 -7.5)" fill="#ecf4ff"/>
      </g>
      <g id="Grupo_1201530" data-name="Grupo 1201530" transform="translate(74.979 0.789)">
        <path id="Trazado_1246028" data-name="Trazado 1246028" d="M383.891,7.5h-2.126a1.7,1.7,0,0,1,1.7,1.7v48.91a1.7,1.7,0,0,1-1.7,1.7h2.126a1.7,1.7,0,0,0,1.7-1.7V9.2a1.7,1.7,0,0,0-1.7-1.7Z" transform="translate(-381.765 -7.5)" fill="#ddeafb"/>
      </g>
      <g id="Grupo_1201549" data-name="Grupo 1201549" transform="translate(43.826 7.594)">
        <g id="Grupo_1201536" data-name="Grupo 1201536">
          <g id="Grupo_1201535" data-name="Grupo 1201535">
            <g id="Grupo_1201534" data-name="Grupo 1201534">
              <g id="Grupo_1201533" data-name="Grupo 1201533">
                <g id="Grupo_1201531" data-name="Grupo 1201531" transform="translate(0)">
                  <path id="Trazado_1246029" data-name="Trazado 1246029" d="M94.9,82.783H87.307a1.519,1.519,0,0,1-1.519-1.519V73.669a1.519,1.519,0,0,1,1.519-1.519H94.9a1.519,1.519,0,0,1,1.519,1.519v7.595A1.519,1.519,0,0,1,94.9,82.783Z" transform="translate(-85.788 -72.15)" fill="#b3e59f"/>
                </g>
                <g id="Grupo_1201532" data-name="Grupo 1201532" transform="translate(0 0.007)">
                  <path id="Trazado_1246030" data-name="Trazado 1246030" d="M95.029,72.212q.024.316.024.639a8.316,8.316,0,0,1-8.316,8.316,8.413,8.413,0,0,1-.949-.054v.206a1.519,1.519,0,0,0,1.519,1.519H94.9a1.519,1.519,0,0,0,1.519-1.519V73.724A1.518,1.518,0,0,0,95.029,72.212Z" transform="translate(-85.788 -72.212)" fill="#95d6a4"/>
                </g>
              </g>
            </g>
          </g>
        </g>
        <g id="Grupo_1201542" data-name="Grupo 1201542" transform="translate(0 14.035)">
          <g id="Grupo_1201541" data-name="Grupo 1201541">
            <g id="Grupo_1201540" data-name="Grupo 1201540">
              <g id="Grupo_1201539" data-name="Grupo 1201539">
                <g id="Grupo_1201537" data-name="Grupo 1201537" transform="translate(0)">
                  <path id="Trazado_1246031" data-name="Trazado 1246031" d="M94.9,216.124H87.307a1.519,1.519,0,0,1-1.519-1.519v-7.595a1.519,1.519,0,0,1,1.519-1.519H94.9a1.519,1.519,0,0,1,1.519,1.519v7.595A1.519,1.519,0,0,1,94.9,216.124Z" transform="translate(-85.788 -205.492)" fill="#b3e59f"/>
                </g>
                <g id="Grupo_1201538" data-name="Grupo 1201538" transform="translate(0 0.006)">
                  <path id="Trazado_1246032" data-name="Trazado 1246032" d="M95.029,205.553q.024.316.024.639a8.317,8.317,0,0,1-9.265,8.262v.206a1.519,1.519,0,0,0,1.519,1.519H94.9a1.519,1.519,0,0,0,1.519-1.519v-7.595a1.518,1.518,0,0,0-1.391-1.513Z" transform="translate(-85.788 -205.553)" fill="#95d6a4"/>
                </g>
              </g>
            </g>
          </g>
        </g>
        <g id="Grupo_1201548" data-name="Grupo 1201548" transform="translate(0 28.07)">
          <g id="Grupo_1201547" data-name="Grupo 1201547">
            <g id="Grupo_1201546" data-name="Grupo 1201546">
              <g id="Grupo_1201545" data-name="Grupo 1201545">
                <g id="Grupo_1201543" data-name="Grupo 1201543" transform="translate(0)">
                  <path id="Trazado_1246033" data-name="Trazado 1246033" d="M94.9,349.466H87.307a1.519,1.519,0,0,1-1.519-1.519v-7.595a1.519,1.519,0,0,1,1.519-1.519H94.9a1.519,1.519,0,0,1,1.519,1.519v7.595A1.519,1.519,0,0,1,94.9,349.466Z" transform="translate(-85.788 -338.834)" fill="#b3e59f"/>
                </g>
                <g id="Grupo_1201544" data-name="Grupo 1201544" transform="translate(0 0.006)">
                  <path id="Trazado_1246034" data-name="Trazado 1246034" d="M95.029,338.895q.024.316.024.639a8.316,8.316,0,0,1-9.265,8.262V348a1.519,1.519,0,0,0,1.519,1.519H94.9A1.519,1.519,0,0,0,96.42,348v-7.595A1.518,1.518,0,0,0,95.029,338.895Z" transform="translate(-85.788 -338.895)" fill="#95d6a4"/>
                </g>
              </g>
            </g>
          </g>
        </g>
      </g>
      <g id="Grupo_1201554" data-name="Grupo 1201554" transform="translate(66.59 25.887)">
        <g id="Grupo_1201550" data-name="Grupo 1201550" transform="translate(0)">
          <path id="Trazado_1246035" data-name="Trazado 1246035" d="M304.328,272.3l-1.99.864-.247-2.155a4.253,4.253,0,0,1,.542-2.61l12.961-22.449,3.683,2.126-12.961,22.449A4.253,4.253,0,0,1,304.328,272.3Z" transform="translate(-302.064 -245.947)" fill="#4a80aa"/>
        </g>
        <g id="Grupo_1201551" data-name="Grupo 1201551" transform="translate(0.091 1.17)">
          <path id="Trazado_1246036" data-name="Trazado 1246036" d="M318.4,257.059l-12.961,22.449a4.253,4.253,0,0,1-1.989,1.775l-.515.224.183,1.6,1.99-.864a4.254,4.254,0,0,0,1.989-1.775l12.961-22.449Z" transform="translate(-302.932 -257.059)" fill="#407093"/>
        </g>
        <g id="Grupo_1201552" data-name="Grupo 1201552" transform="translate(9.915 3.316)">
          <path id="Trazado_1246037" data-name="Trazado 1246037" d="M0,0H3.4V4.253H0Z" transform="matrix(0.5, -0.866, 0.866, 0.5, 0, 2.946)" fill="#ffe07d"/>
        </g>
        <g id="Grupo_1201553" data-name="Grupo 1201553" transform="translate(11.941 4.486)">
          <path id="Trazado_1246038" data-name="Trazado 1246038" d="M0,0H3.4V1.914H0Z" transform="matrix(0.5, -0.866, 0.866, 0.5, 0, 2.946)" fill="#ffd064"/>
        </g>
      </g>
      <g id="Grupo_1201555" data-name="Grupo 1201555" transform="translate(38.89 0)">
        <path id="Trazado_1246039" data-name="Trazado 1246039" d="M39.679,43.4a.789.789,0,0,0,.789-.789V2.49a.913.913,0,0,1,.912-.912H77.106a.913.913,0,0,1,.912.912v8.366a.789.789,0,1,0,1.579,0V2.49A2.493,2.493,0,0,0,77.106,0H41.38a2.493,2.493,0,0,0-2.49,2.49V42.613A.789.789,0,0,0,39.679,43.4Z" transform="translate(-38.89 0)"/>
        <path id="Trazado_1246040" data-name="Trazado 1246040" d="M90.5,66.958A2.311,2.311,0,0,0,88.19,64.65H80.6a2.311,2.311,0,0,0-2.308,2.308v7.595A2.311,2.311,0,0,0,80.6,76.861H88.19A2.311,2.311,0,0,0,90.5,74.553ZM88.92,74.553a.73.73,0,0,1-.73.73H80.6a.73.73,0,0,1-.73-.73V66.958a.73.73,0,0,1,.73-.73H88.19a.73.73,0,0,1,.73.73Z" transform="translate(-74.14 -57.845)"/>
        <path id="Trazado_1246041" data-name="Trazado 1246041" d="M114.885,102.6l-2.135,2.135-.789-.789a.789.789,0,1,0-1.116,1.116l1.347,1.347a.789.789,0,0,0,1.116,0L116,103.712a.789.789,0,0,0-1.116-1.116Z" transform="translate(-103.064 -91.59)"/>
        <path id="Trazado_1246042" data-name="Trazado 1246042" d="M226.56,114.718H239a.789.789,0,0,0,0-1.579H226.56a.789.789,0,0,0,0,1.579Z" transform="translate(-206.101 -101.231)"/>
        <path id="Trazado_1246043" data-name="Trazado 1246043" d="M307.852,80.813H300.3a.789.789,0,1,0,0,1.579h7.549a.789.789,0,0,0,0-1.579Z" transform="translate(-272.081 -72.307)"/>
        <path id="Trazado_1246044" data-name="Trazado 1246044" d="M226.56,82.392h4.04a.789.789,0,0,0,0-1.579h-4.04a.789.789,0,0,0,0,1.579Z" transform="translate(-206.101 -72.307)"/>
        <path id="Trazado_1246045" data-name="Trazado 1246045" d="M272.017,145.464a.789.789,0,1,0,0,1.579h4.147a.789.789,0,0,0,0-1.579Z" transform="translate(-246.773 -130.153)"/>
        <path id="Trazado_1246046" data-name="Trazado 1246046" d="M226.56,147.043h1.063a.789.789,0,0,0,0-1.579H226.56a.789.789,0,0,0,0,1.579Z" transform="translate(-206.101 -130.153)"/>
        <path id="Trazado_1246047" data-name="Trazado 1246047" d="M90.5,200.3a2.311,2.311,0,0,0-2.308-2.308H80.6a2.311,2.311,0,0,0-2.308,2.308v7.595A2.311,2.311,0,0,0,80.6,210.2H88.19a2.311,2.311,0,0,0,2.308-2.308Zm-1.579,7.595a.73.73,0,0,1-.73.73H80.6a.73.73,0,0,1-.73-.73V200.3a.73.73,0,0,1,.73-.73H88.19a.73.73,0,0,1,.73.73Z" transform="translate(-74.14 -177.152)"/>
        <path id="Trazado_1246048" data-name="Trazado 1246048" d="M114.885,235.937l-2.135,2.135-.789-.789a.789.789,0,0,0-1.116,1.116l1.347,1.347a.789.789,0,0,0,1.116,0L116,237.053a.789.789,0,0,0-1.116-1.116Z" transform="translate(-103.064 -210.896)"/>
        <path id="Trazado_1246049" data-name="Trazado 1246049" d="M239.79,247.268a.789.789,0,0,0-.789-.789H226.56a.789.789,0,0,0,0,1.579H239A.789.789,0,0,0,239.79,247.268Z" transform="translate(-206.101 -220.536)"/>
        <path id="Trazado_1246050" data-name="Trazado 1246050" d="M308.641,214.943a.789.789,0,0,0-.789-.789H300.3a.789.789,0,1,0,0,1.579h7.549A.789.789,0,0,0,308.641,214.943Z" transform="translate(-272.081 -191.613)"/>
        <path id="Trazado_1246051" data-name="Trazado 1246051" d="M226.56,215.733h4.04a.789.789,0,0,0,0-1.579h-4.04a.789.789,0,0,0,0,1.579Z" transform="translate(-206.101 -191.613)"/>
        <path id="Trazado_1246052" data-name="Trazado 1246052" d="M276.954,279.594a.789.789,0,0,0-.789-.789h-4.147a.789.789,0,1,0,0,1.579h4.147A.789.789,0,0,0,276.954,279.594Z" transform="translate(-246.774 -249.459)"/>
        <path id="Trazado_1246053" data-name="Trazado 1246053" d="M226.56,280.384h1.063a.789.789,0,1,0,0-1.579H226.56a.789.789,0,1,0,0,1.579Z" transform="translate(-206.101 -249.459)"/>
        <path id="Trazado_1246054" data-name="Trazado 1246054" d="M88.19,331.333H80.6a2.311,2.311,0,0,0-2.308,2.308v7.595a2.311,2.311,0,0,0,2.308,2.308H88.19a2.311,2.311,0,0,0,2.308-2.308v-7.595A2.311,2.311,0,0,0,88.19,331.333Zm.73,9.9a.73.73,0,0,1-.73.73H80.6a.73.73,0,0,1-.73-.73v-7.595a.73.73,0,0,1,.73-.73H88.19a.73.73,0,0,1,.73.73Z" transform="translate(-74.14 -296.458)"/>
        <path id="Trazado_1246055" data-name="Trazado 1246055" d="M114.885,369.277l-2.135,2.135-.789-.789a.789.789,0,0,0-1.116,1.116l1.347,1.347a.79.79,0,0,0,1.116,0L116,370.394a.789.789,0,0,0-1.116-1.116Z" transform="translate(-103.064 -330.202)"/>
        <path id="Trazado_1246056" data-name="Trazado 1246056" d="M226.56,349.075h4.04a.789.789,0,0,0,0-1.579h-4.04a.789.789,0,1,0,0,1.579Z" transform="translate(-206.101 -310.92)"/>
        <path id="Trazado_1246057" data-name="Trazado 1246057" d="M227.624,413.725a.789.789,0,1,0,0-1.579H226.56a.789.789,0,1,0,0,1.579Z" transform="translate(-206.101 -368.765)"/>
        <path id="Trazado_1246058" data-name="Trazado 1246058" d="M84.567,144.7a.789.789,0,0,0-.368-.479l-3.683-2.126a.789.789,0,0,0-.92.095V131.429a.789.789,0,0,0-1.579,0v13.413l-4.979,8.623H67.111a.789.789,0,1,0,0,1.579h5.016l-1.053,1.823H59.35a.789.789,0,1,0,0,1.579H70.163L69.11,160.27H64.134a.789.789,0,0,0,0,1.579H68.2l-1.722,2.982a5,5,0,0,0-.643,3.095l.146,1.276H41.38a.913.913,0,0,1-.912-.912v-5.1a.789.789,0,0,0-1.579,0v5.1a2.493,2.493,0,0,0,2.49,2.49H77.106a2.493,2.493,0,0,0,2.49-2.49V153.771l4.892-8.473A.789.789,0,0,0,84.567,144.7ZM79.9,150.086l-2.316-1.337.912-1.579,2.316,1.337Zm-1.883,18.2a.913.913,0,0,1-.912.912H70.257a5.065,5.065,0,0,0,1.27-1.455l3.088-5.348a.789.789,0,1,0-1.367-.79l-3.088,5.348a3.489,3.489,0,0,1-1.62,1.445l-1.011.439-.125-1.1a3.437,3.437,0,0,1,.441-2.125l8.951-15.5,2.316,1.337-4.021,6.965a.789.789,0,0,0,1.367.789l1.56-2.7V168.29ZM81.6,147.14,79.286,145.8l1.124-1.948,2.316,1.337Z" transform="translate(-38.89 -116.889)"/>
      </g>
    </g>
  </g>
</svg>
