<svg xmlns="http://www.w3.org/2000/svg" width="80" height="80" viewBox="0 0 80 80">
  <g id="Grupo_1201584" data-name="Grupo 1201584" transform="translate(-226.051 -7922)">
    <circle id="Elipse_12360" data-name="Elipse 12360" cx="40" cy="40" r="40" transform="translate(226.051 7922)" fill="#5a8441"/>
    <g id="Layer_x0020_1" transform="translate(238.051 7938.806)">
      <g id="_278720528" transform="translate(0 0.194)">
        <g id="Grupo_1201558" data-name="Grupo 1201558" transform="translate(4.802 4.801)">
          <path id="_278723600" d="M37.7,42.221H.844a.708.708,0,0,1-.708-.708V1.037A.708.708,0,0,1,.844.329H29.38a.709.709,0,0,1,.5.208L38.2,8.854a.708.708,0,0,1,.208.5V41.513a.71.71,0,0,1-.709.708ZM1.551,40.8H36.988V9.648l-7.9-7.9H1.551V40.8Z" transform="translate(-0.136 -0.329)" fill-rule="evenodd"/>
        </g>
        <g id="Grupo_1201559" data-name="Grupo 1201559" transform="translate(33.337 4.8)">
          <path id="_278723192" d="M9.976,10.063H1.65a.708.708,0,0,1-.708-.708V1.038a.708.708,0,0,1,1.209-.5L10.4,8.789a.708.708,0,0,1-.426,1.274ZM2.358,8.647h5.9l-5.9-5.9Z" transform="translate(-0.942 -0.329)" fill-rule="evenodd"/>
        </g>
        <g id="Grupo_1201560" data-name="Grupo 1201560" transform="translate(7.646 9.023)">
          <path id="_278722640" d="M7.32,14.641A7.1,7.1,0,0,1,7.3.449,7.174,7.174,0,0,1,8.162.5a.707.707,0,0,1,.618.787L8.1,6.927l5.639.68a.708.708,0,0,1,.618.788A7.1,7.1,0,0,1,7.32,14.641ZM7.285,1.864a5.68,5.68,0,0,0-.653,11.32,5.789,5.789,0,0,0,.688.041,5.68,5.68,0,0,0,5.5-4.3l-5.6-.675a.708.708,0,0,1-.618-.788l.675-5.595Z" transform="translate(-0.216 -0.449)" fill-rule="evenodd"/>
        </g>
        <g id="Grupo_1201561" data-name="Grupo 1201561" transform="translate(16.152 7.159)">
          <path id="_278722736" d="M7.707,9.2c-.25,0-1.723-.176-5.632-.673l-1-.126A.708.708,0,0,1,.462,7.61c.015-.128.057-.491.113-.985C1.24.793,1.24.793,1.521.574A.851.851,0,0,1,2.05.4c1.5,0,5.873,6.052,6.339,7.4a1.017,1.017,0,0,1-.226,1.248.76.76,0,0,1-.456.153ZM1.948,7.08l.307.039c1.018.129,3.263.415,4.544.565A30.274,30.274,0,0,0,2.516,2.226C2.356,3.508,2.1,5.764,1.982,6.786c-.013.1-.024.2-.034.294Z" transform="translate(-0.457 -0.396)" fill-rule="evenodd"/>
        </g>
        <g id="Grupo_1201562" data-name="Grupo 1201562" transform="translate(9.01 15.411)">
          <path id="_278722568" d="M.963,5.988A.708.708,0,0,1,.526,4.724L5.551.78a.708.708,0,0,1,.874,1.114L1.4,5.838A.7.7,0,0,1,.963,5.988Z" transform="translate(-0.255 -0.629)" fill-rule="evenodd"/>
        </g>
        <g id="Grupo_1201563" data-name="Grupo 1201563" transform="translate(29.435 23.388)">
          <path id="_278722688" d="M9.125,20.8h-5.4a.708.708,0,0,1-.708-.708V8.609H1.539a.708.708,0,0,1-.561-1.14L5.863,1.13a.708.708,0,0,1,1.122,0l4.824,6.26a.708.708,0,0,1-.491,1.218H9.833V20.093a.708.708,0,0,1-.708.709Zm-4.7-1.416H8.418V7.9a.708.708,0,0,1,.708-.708h.743L6.423,2.722,2.978,7.193h.744A.708.708,0,0,1,4.43,7.9V19.386h0Z" transform="translate(-0.832 -0.855)" fill-rule="evenodd"/>
        </g>
        <g id="Grupo_1201564" data-name="Grupo 1201564" transform="translate(24.725 32.445)">
          <path id="_278722472" d="M5.7,12h-4.3A.708.708,0,0,1,.7,11.293V1.818a.708.708,0,0,1,.708-.708H5.7a.708.708,0,0,1,.708.708v9.475A.708.708,0,0,1,5.7,12ZM2.114,10.584h2.88V2.526H2.114Z" transform="translate(-0.699 -1.11)" fill-rule="evenodd"/>
        </g>
        <g id="Grupo_1201565" data-name="Grupo 1201565" transform="translate(17.832 35.251)">
          <path id="_278722928" d="M5.507,9.274h-4.3A.708.708,0,0,1,.5,8.566V1.9a.708.708,0,0,1,.708-.708h4.3a.708.708,0,0,1,.708.708V8.566A.708.708,0,0,1,5.507,9.274ZM1.919,7.858H4.8V2.6H1.919V7.858Z" transform="translate(-0.504 -1.19)" fill-rule="evenodd"/>
        </g>
        <g id="Grupo_1201566" data-name="Grupo 1201566" transform="translate(15.526 41.92)">
          <path id="_278722712" d="M23.84,2.794H1.146a.708.708,0,0,1,0-1.416H23.84a.708.708,0,0,1,0,1.416Z" transform="translate(-0.439 -1.378)" fill-rule="evenodd"/>
        </g>
        <g id="Grupo_1201567" data-name="Grupo 1201567" transform="translate(41.654 26.065)">
          <path id="_278722400" d="M8.071,18.49a8.763,8.763,0,0,1-6.728-3.14.71.71,0,0,1-.166-.455V4.525a.71.71,0,0,1,.166-.455A8.78,8.78,0,1,1,8.071,18.49ZM2.592,14.631a7.364,7.364,0,1,0,0-9.841v9.841Z" transform="translate(-1.177 -0.93)" fill-rule="evenodd"/>
        </g>
        <g id="Grupo_1201568" data-name="Grupo 1201568" transform="translate(46.062 30.58)">
          <path id="_278721800" d="M3.787,9.584A2.488,2.488,0,0,1,1.3,7.1a.708.708,0,1,1,1.415,0,1.07,1.07,0,0,0,2.14,0c0-.759-.3-.866-1.234-1.089C2.755,5.8,1.3,5.457,1.3,3.543a2.486,2.486,0,0,1,4.972,0,.708.708,0,1,1-1.415,0,1.07,1.07,0,0,0-2.14,0c0,.759.3.866,1.234,1.089.868.207,2.322.553,2.322,2.466A2.489,2.489,0,0,1,3.787,9.584Z" transform="translate(-1.302 -1.058)" fill-rule="evenodd"/>
        </g>
        <g id="Grupo_1201569" data-name="Grupo 1201569" transform="translate(47.84 37.692)">
          <path id="_278721944" d="M2.059,3.618a.708.708,0,0,1-.708-.708V1.966a.708.708,0,0,1,1.415,0v.944A.708.708,0,0,1,2.059,3.618Z" transform="translate(-1.352 -1.259)" fill-rule="evenodd"/>
        </g>
        <g id="Grupo_1201570" data-name="Grupo 1201570" transform="translate(41.654 22.998)">
          <path id="_278721632" d="M8.072,24.538a11.794,11.794,0,0,1-6.58-1.994.709.709,0,0,1-.315-.588V3.425a.708.708,0,0,1,.315-.588,11.848,11.848,0,1,1,6.58,21.7ZM2.593,21.569a10.432,10.432,0,1,0,0-17.759V21.57Z" transform="translate(-1.177 -0.843)" fill-rule="evenodd"/>
        </g>
        <g id="Grupo_1201571" data-name="Grupo 1201571" transform="translate(47.84 29.637)">
          <path id="_278722304" d="M2.059,3.391a.708.708,0,0,1-.708-.708V1.739a.708.708,0,0,1,1.415,0v.944A.708.708,0,0,1,2.059,3.391Z" transform="translate(-1.352 -1.031)" fill-rule="evenodd"/>
        </g>
        <g id="Grupo_1201572" data-name="Grupo 1201572">
          <path id="_278722280" d="M5.509,43.338H.708A.708.708,0,0,1,0,42.631V.9A.708.708,0,0,1,.708.194H29.447A.708.708,0,0,1,30.155.9V5.7a.708.708,0,0,1-.708.708H6.217V42.63a.707.707,0,0,1-.707.708ZM1.416,41.923H4.8V5.7a.708.708,0,0,1,.708-.708h23.23V1.609H1.416V41.923Z" transform="translate(0 -0.194)" fill-rule="evenodd"/>
        </g>
        <g id="Grupo_1201573" data-name="Grupo 1201573" transform="translate(9.665 17.153)">
          <path id="_278721848" d="M.98,17.523a.708.708,0,0,1-.089-1.41,30.529,30.529,0,0,0,11.822-4.6.708.708,0,1,1,.8,1.167,31.42,31.42,0,0,1-12.442,4.84.829.829,0,0,1-.091.005ZM17.236,9.136A.708.708,0,0,1,16.7,7.967,17.172,17.172,0,0,0,20.272,1.2a.708.708,0,0,1,1.367.367,18.573,18.573,0,0,1-3.865,7.318.7.7,0,0,1-.538.248Z" transform="translate(-0.273 -0.678)" fill-rule="evenodd"/>
        </g>
        <g id="Grupo_1201574" data-name="Grupo 1201574" transform="translate(26.229 17.154)">
          <path id="_278722160" d="M5.944,5.847a.708.708,0,0,1-.68-.512l-.837-2.9L1.794,3.907A.708.708,0,1,1,1.1,2.671L4.515.768A.708.708,0,0,1,5.54,1.19L6.625,4.943a.708.708,0,0,1-.484.876.723.723,0,0,1-.2.028Z" transform="translate(-0.741 -0.678)" fill-rule="evenodd"/>
        </g>
        <g id="Grupo_1201575" data-name="Grupo 1201575" transform="translate(8.037 36.774)">
          <path id="_278720840" d="M7.454,2.648H5.995a.708.708,0,1,1,0-1.415H7.454a.708.708,0,1,1,0,1.415Zm-3.26,0H.935a.708.708,0,1,1,0-1.415H4.194a.708.708,0,0,1,0,1.415Z" transform="translate(-0.227 -1.233)" fill-rule="evenodd"/>
        </g>
        <g id="Grupo_1201576" data-name="Grupo 1201576" transform="translate(8.037 39.876)">
          <path id="_278721080" d="M7.454,2.736H4.392a.708.708,0,1,1,0-1.415H7.454a.708.708,0,1,1,0,1.415Zm-4.806,0H.935a.708.708,0,1,1,0-1.415H2.648a.708.708,0,0,1,0,1.415Z" transform="translate(-0.227 -1.32)" fill-rule="evenodd"/>
        </g>
        <g id="Grupo_1201577" data-name="Grupo 1201577" transform="translate(33.625 17.813)">
          <path id="_278721440" d="M7.267,2.112H6.011A.708.708,0,1,1,6.011.7H7.267a.708.708,0,1,1,0,1.415Zm-2.8,0h-2.8A.708.708,0,1,1,1.658.7h2.8a.708.708,0,1,1,0,1.415Z" transform="translate(-0.95 -0.697)" fill-rule="evenodd"/>
        </g>
        <g id="Grupo_1201578" data-name="Grupo 1201578" transform="translate(33.625 20.916)">
          <path id="_278721320" d="M7.267,2.2H4.632a.708.708,0,1,1,0-1.415H7.267a.708.708,0,1,1,0,1.415Zm-4.135,0H1.658a.708.708,0,1,1,0-1.415H3.132a.708.708,0,1,1,0,1.415Z" transform="translate(-0.95 -0.785)" fill-rule="evenodd"/>
        </g>
        <g id="Grupo_1201579" data-name="Grupo 1201579" transform="translate(8.595 25.258)">
          <path id="_278721176" d="M6.56,2.323H5.3A.708.708,0,1,1,5.3.907H6.56a.708.708,0,0,1,0,1.416Zm-2.8,0H.951a.708.708,0,1,1,0-1.416h2.8a.708.708,0,1,1,0,1.416Z" transform="translate(-0.243 -0.907)" fill-rule="evenodd"/>
        </g>
        <g id="Grupo_1201580" data-name="Grupo 1201580" transform="translate(8.595 28.36)">
          <path id="_278721032" d="M6.561,2.41H3.926a.708.708,0,0,1,0-1.415H6.561a.708.708,0,0,1,0,1.415Zm-4.136,0H.951a.708.708,0,0,1,0-1.415H2.425a.708.708,0,1,1,0,1.415Z" transform="translate(-0.243 -0.995)" fill-rule="evenodd"/>
        </g>
        <g id="Grupo_1201581" data-name="Grupo 1201581" transform="translate(23.649 8.536)">
          <path id="_278720864" d="M9.058,1.85H7.338a.708.708,0,1,1,0-1.415h1.72a.708.708,0,1,1,0,1.415Zm-3.841,0H1.376a.708.708,0,0,1,0-1.415H5.217a.708.708,0,1,1,0,1.415Z" transform="translate(-0.668 -0.435)" fill-rule="evenodd"/>
        </g>
        <g id="Grupo_1201582" data-name="Grupo 1201582" transform="translate(23.649 11.638)">
          <path id="_278720792" d="M9.059,1.938H5.45a.708.708,0,0,1,0-1.416H9.059a.708.708,0,0,1,0,1.416Zm-5.663,0H1.376a.708.708,0,0,1,0-1.416H3.4a.708.708,0,0,1,0,1.416Z" transform="translate(-0.668 -0.523)" fill-rule="evenodd"/>
        </g>
        <g id="Grupo_1201583" data-name="Grupo 1201583" transform="translate(21.215 23.4)">
          <path id="_278720552" d="M4.072,7.8A3.472,3.472,0,1,1,7.544,4.327,3.476,3.476,0,0,1,4.072,7.8Zm0-5.529A2.057,2.057,0,1,0,6.129,4.327,2.059,2.059,0,0,0,4.072,2.27Z" transform="translate(-0.6 -0.855)" fill-rule="evenodd"/>
        </g>
      </g>
      <path id="Trazado_1246059" data-name="Trazado 1246059" d="M4.134,3.619h23.23V.234H.04V40.547H3.426V4.327a.708.708,0,0,1,.708-.708Z" transform="translate(1.376 1.376)" fill="#d4d8e0" fill-rule="evenodd"/>
      <path id="Trazado_1246060" data-name="Trazado 1246060" d="M5.909.489a5.678,5.678,0,0,0-4.841,8.6l4.2-3.3.64-5.3Z" transform="translate(8.807 10.143)" fill="#ffc107" fill-rule="evenodd"/>
      <path id="Trazado_1246061" data-name="Trazado 1246061" d="M9.81,1.31,4.506.67.3,3.967a5.652,5.652,0,0,0,3.314,1.6,5.789,5.789,0,0,0,.688.041,5.68,5.68,0,0,0,5.5-4.3Z" transform="translate(10.445 16.38)" fill="#2196f3" fill-rule="evenodd"/>
      <path id="Trazado_1246062" data-name="Trazado 1246062" d="M.805,5.341c1.018.129,3.263.415,4.544.565A30.274,30.274,0,0,0,1.066.448C.907,1.73.649,3.986.533,5.008L.5,5.3l.307.039Z" transform="translate(17.145 8.734)" fill="#4caf50" fill-rule="evenodd"/>
      <path id="Trazado_1246063" data-name="Trazado 1246063" d="M.982.4V6.3h5.9Z" transform="translate(33.771 7.014)" fill="#d4d8e0" fill-rule="evenodd"/>
      <path id="Trazado_1246064" data-name="Trazado 1246064" d="M26,7.207H22.39a.708.708,0,0,1,0-1.416H26a.708.708,0,0,1,0,1.416Zm1.3.772V.369H.176v39.06H35.613V8.686H28a.708.708,0,0,1-.708-.708Zm-6.962-.772H18.315a.708.708,0,0,1,0-1.416h2.019a.708.708,0,0,1,0,1.416ZM26,4.1h-1.72a.708.708,0,1,1,0-1.415H26A.708.708,0,1,1,26,4.1Zm-3.841,0H18.316a.708.708,0,0,1,0-1.415h3.841a.708.708,0,1,1,0,1.415ZM20.278,14.262a.708.708,0,0,1,.273-.963l3.387-1.889.024-.014a.708.708,0,0,1,1.025.422l0,.013,1.081,3.74a.708.708,0,0,1-.484.876.722.722,0,0,1-.2.028.708.708,0,0,1-.68-.512l-.455-1.576a18.558,18.558,0,0,1-2.75,4.67,3.471,3.471,0,0,1-5.142,4.583A31.554,31.554,0,0,1,4.422,28.146a.829.829,0,0,1-.091.005.708.708,0,0,1-.089-1.41,30.74,30.74,0,0,0,11.265-4.233,3.471,3.471,0,0,1,4.971-4.432,17.141,17.141,0,0,0,2.6-4.567l-1.839,1.026a.708.708,0,0,1-.963-.273Zm8.013-.88a.708.708,0,1,1,0-1.415h2.8a.708.708,0,1,1,0,1.415Zm4.353,0a.708.708,0,1,1,0-1.415H33.9a.708.708,0,1,1,0,1.415Zm-15.283-3.27c-.25,0-1.723-.176-5.632-.673l-1-.126a.708.708,0,0,1-.618-.788l.113-.985c.665-5.832.665-5.832.946-6.051a.851.851,0,0,1,.529-.178c1.5,0,5.873,6.052,6.339,7.4a1.017,1.017,0,0,1-.226,1.248.76.76,0,0,1-.456.153Zm-1.615,1.011A7.092,7.092,0,0,1,3.164,14.7c-.015-.016-.03-.033-.043-.05s-.026-.035-.038-.054A7.092,7.092,0,0,1,8.693,3.176a7.174,7.174,0,0,1,.858.052.707.707,0,0,1,.618.787l-.68,5.639,5.639.68a.708.708,0,0,1,.618.788ZM23.687,26.6a.708.708,0,0,1,.708.708v8.767h1.182V25.3H24.1a.708.708,0,0,1-.561-1.14l4.884-6.338a.708.708,0,0,1,1.122,0l4.824,6.26a.708.708,0,0,1-.491,1.218H32.4V36.073h.49a.708.708,0,0,1,0,1.416H10.193a.708.708,0,0,1,0-1.416h1.6V30.112A.708.708,0,0,1,12.5,29.4h4.3a.708.708,0,0,1,.708.708v5.961h1.182V27.306a.708.708,0,0,1,.708-.708h4.3ZM7.616,19.411H8.872a.708.708,0,0,1,0,1.416H7.616a.708.708,0,0,1,0-1.416Zm-4.354,3.1H4.736a.708.708,0,1,1,0,1.415H3.262a.708.708,0,0,1,0-1.415Zm5.61,0a.708.708,0,0,1,0,1.415H6.237a.708.708,0,0,1,0-1.415Zm18.712-6.737a.708.708,0,0,1,.708-.708h1.474a.708.708,0,1,1,0,1.415H28.292A.708.708,0,0,1,27.584,15.776Zm3.682.708a.708.708,0,1,1,0-1.415H33.9a.708.708,0,1,1,0,1.415Zm-25.2,2.927a.708.708,0,0,1,0,1.416h-2.8a.708.708,0,0,1,0-1.416ZM9.223,30.927a.708.708,0,1,1,0,1.415H7.764a.708.708,0,1,1,0-1.415Zm-3.062,3.1H9.223a.708.708,0,1,1,0,1.415H6.162a.708.708,0,1,1,0-1.415Zm-.2-3.1a.708.708,0,0,1,0,1.415H2.7a.708.708,0,1,1,0-1.415Zm-1.546,3.1a.708.708,0,0,1,0,1.415H2.7a.708.708,0,1,1,0-1.415Z" transform="translate(6.041 6.041)" fill="#ecf0f9" fill-rule="evenodd"/>
      <path id="Trazado_1246065" data-name="Trazado 1246065" d="M3.424,6.483V1.23H.544V6.483Z" transform="translate(18.703 35.63)" fill="#f8cf26" fill-rule="evenodd"/>
      <path id="Trazado_1246066" data-name="Trazado 1246066" d="M.739,1.15V9.209h2.88V1.15Z" transform="translate(25.402 32.904)" fill="#39b54a" fill-rule="evenodd"/>
      <path id="Trazado_1246067" data-name="Trazado 1246067" d="M2.344,6.086V17.571H6.332V6.086a.708.708,0,0,1,.708-.708h.743L4.338.907.892,5.378h.744a.708.708,0,0,1,.708.708Z" transform="translate(30.69 24.542)" fill="#177dc0" fill-rule="evenodd"/>
      <path id="Trazado_1246068" data-name="Trazado 1246068" d="M2.7,5.009A2.057,2.057,0,1,0,.64,2.952,2.059,2.059,0,0,0,2.7,5.009Z" transform="translate(21.991 24.114)" fill="#f25960" fill-rule="evenodd"/>
      <path id="Trazado_1246069" data-name="Trazado 1246069" d="M6.7,2.535A8.78,8.78,0,1,1,1.217,18.176v2.018a10.432,10.432,0,1,0,0-17.759V4.454A8.758,8.758,0,0,1,6.7,2.535Z" transform="translate(41.853 23.723)" fill="#ffcb49" fill-rule="evenodd"/>
      <path id="Trazado_1246070" data-name="Trazado 1246070" d="M14.059,8.334A7.364,7.364,0,0,0,1.217,3.413v9.841A7.364,7.364,0,0,0,14.059,8.334ZM7.4,4.172A2.491,2.491,0,0,1,9.181,6.555a.708.708,0,1,1-1.415,0A1.071,1.071,0,0,0,6.722,5.486H6.668A1.071,1.071,0,0,0,5.626,6.555c0,.759.3.866,1.234,1.089.868.207,2.322.553,2.322,2.466A2.49,2.49,0,0,1,7.4,12.494v.339a.708.708,0,1,1-1.415,0v-.339A2.49,2.49,0,0,1,4.21,10.111a.708.708,0,1,1,1.415,0,1.07,1.07,0,0,0,2.14,0c0-.759-.3-.866-1.234-1.089-.868-.207-2.322-.553-2.322-2.466A2.49,2.49,0,0,1,5.987,4.172V3.834a.708.708,0,0,1,1.415,0v.338Z" transform="translate(41.853 26.705)" fill="#ffad09" fill-rule="evenodd"/>
    </g>
  </g>
</svg>
