<svg xmlns="http://www.w3.org/2000/svg" xmlns:xlink="http://www.w3.org/1999/xlink" width="240.533" height="288.936" viewBox="0 0 240.533 288.936">
  <defs>
    <filter id="BG" x="0" y="0" width="240.533" height="288.936" filterUnits="userSpaceOnUse">
      <feOffset dy="3" input="SourceAlpha"/>
      <feGaussianBlur stdDeviation="3" result="blur"/>
      <feFlood flood-opacity="0.161"/>
      <feComposite operator="in" in2="blur"/>
      <feComposite in="SourceGraphic"/>
    </filter>
  </defs>
  <g id="Grupo_1201610" data-name="Grupo 1201610" transform="translate(-1159.051 -2534)">
    <g transform="matrix(1, 0, 0, 1, 1159.05, 2534)" filter="url(#BG)">
      <rect id="BG-2" data-name="BG" width="222.533" height="270.936" rx="10" transform="translate(9 6)" fill="#2c411f"/>
    </g>
    <g id="Grupo_1201609" data-name="Grupo 1201609" transform="translate(1191.627 2588)">
      <g id="Grupo_1201608" data-name="Grupo 1201608" transform="translate(2.997 23.52)">
        <path id="Trazado_1246120" data-name="Trazado 1246120" d="M53.064,214.519A45.138,45.138,0,1,0,7.936,169.382a45.225,45.225,0,0,0,45.128,45.138Z" transform="translate(-7.936 -105.2)" fill="#bfe2ff" fill-rule="evenodd"/>
        <path id="Trazado_1246121" data-name="Trazado 1246121" d="M131.688,124.244a45.138,45.138,0,1,1,0,90.275c-1.4,0-2.787-.067-4.157-.194a45.135,45.135,0,0,0,0-89.887c1.37-.127,2.758-.194,4.157-.194Z" transform="translate(-86.56 -105.2)" fill="#96d0ff" fill-rule="evenodd"/>
        <path id="Trazado_1246122" data-name="Trazado 1246122" d="M126.712,249.8a6.749,6.749,0,1,0-6.749-6.749A6.768,6.768,0,0,0,126.712,249.8Z" transform="translate(-81.584 -178.867)" fill="#22a6fe" fill-rule="evenodd"/>
        <path id="Trazado_1246123" data-name="Trazado 1246123" d="M387.081,89.942l-5.1-5.108c-1.136-1.252-1.253-2.5,0-3.758l5.1-5.108V71.316a2.665,2.665,0,0,1,2.661-2.661h30.823a2.665,2.665,0,0,1,2.661,2.661V94.593a2.665,2.665,0,0,1-2.661,2.661H389.742a2.665,2.665,0,0,1-2.661-2.661Zm2.661,28.6h30.823a2.665,2.665,0,0,1,2.661,2.661v23.278a2.671,2.671,0,0,1-2.661,2.661H389.742a2.671,2.671,0,0,1-2.661-2.661v-4.662l-5.1-5.1c-1.146-1.311-1.243-2.564,0-3.758l5.1-5.108V121.2A2.665,2.665,0,0,1,389.742,118.542Zm0,49.877h30.823a2.672,2.672,0,0,1,2.661,2.661v23.277a2.665,2.665,0,0,1-2.661,2.661H389.742a2.665,2.665,0,0,1-2.661-2.661v-4.652l-5.1-5.1a2.46,2.46,0,0,1,0-3.768l5.1-5.1V171.08a2.671,2.671,0,0,1,2.661-2.661Z" transform="translate(-253.251 -68.655)" fill="#f9f7f8" fill-rule="evenodd"/>
        <path id="Trazado_1246124" data-name="Trazado 1246124" d="M472.06,68.655h8.313a2.665,2.665,0,0,1,2.661,2.661V94.593a2.665,2.665,0,0,1-2.661,2.661H472.06a2.671,2.671,0,0,0,2.661-2.661V71.316A2.672,2.672,0,0,0,472.06,68.655Zm0,49.887h8.313a2.665,2.665,0,0,1,2.661,2.661v23.278a2.671,2.671,0,0,1-2.661,2.661H472.06a2.678,2.678,0,0,0,2.661-2.661V121.2A2.672,2.672,0,0,0,472.06,118.542Zm0,49.877h8.313a2.672,2.672,0,0,1,2.661,2.661v23.277a2.665,2.665,0,0,1-2.661,2.661H472.06a2.671,2.671,0,0,0,2.661-2.661V171.08A2.678,2.678,0,0,0,472.06,168.418Z" transform="translate(-313.058 -68.655)" fill="#ebe8fa" fill-rule="evenodd"/>
        <path id="Trazado_1246125" data-name="Trazado 1246125" d="M308.874,86.116a8.318,8.318,0,1,1-8.312,8.323A8.325,8.325,0,0,1,308.874,86.116Zm0,99.773a8.313,8.313,0,1,1-8.312,8.312A8.316,8.316,0,0,1,308.874,185.889Zm0-49.886a8.312,8.312,0,1,1-8.312,8.312A8.316,8.316,0,0,1,308.874,136Z" transform="translate(-200.312 -80.134)" fill="#f37c7c" fill-rule="evenodd"/>
      </g>
      <path id="Trazado_1246126" data-name="Trazado 1246126" d="M90.36,93.189a2.555,2.555,0,1,1,5.069.641,47.688,47.688,0,1,1,0-12.256,2.555,2.555,0,1,1-5.069.641,42.567,42.567,0,1,0,0,10.974ZM108.986,2.573a2.569,2.569,0,1,1,5.137,0V27.24a10.888,10.888,0,0,1,8.313,10.585A10.888,10.888,0,0,1,114.123,48.4V77.126a10.881,10.881,0,0,1,0,21.151v28.736a10.884,10.884,0,0,1,0,21.151V172.84a2.569,2.569,0,0,1-5.137,0V148.164a10.881,10.881,0,0,1,0-21.151V98.277a10.884,10.884,0,0,1,0-21.151V48.4a10.889,10.889,0,0,1,0-21.16ZM170.4,143.406a2.569,2.569,0,0,1,5.137,0v8.478a2.57,2.57,0,0,1-2.564,2.574H136.828a2.569,2.569,0,0,1-2.563-2.574v-6.244L128.03,139.4a2.573,2.573,0,0,1,0-3.632l6.235-6.234v-6.254a2.561,2.561,0,0,1,2.563-2.564h36.145a2.562,2.562,0,0,1,2.564,2.564v8.488a2.569,2.569,0,0,1-5.137,0v-5.914h-31v4.749a2.567,2.567,0,0,1-.757,1.816l-5.166,5.166,5.157,5.157a2.536,2.536,0,0,1,.767,1.826v4.749h31Zm0-49.888a2.569,2.569,0,0,1,5.137,0v8.488a2.562,2.562,0,0,1-2.564,2.564H136.828a2.561,2.561,0,0,1-2.563-2.564V95.752l-6.235-6.235a2.573,2.573,0,0,1,0-3.632l6.235-6.225V73.406a2.569,2.569,0,0,1,2.563-2.574h36.145a2.57,2.57,0,0,1,2.564,2.574v8.478a2.569,2.569,0,1,1-5.137,0V75.97h-31v4.749a2.534,2.534,0,0,1-.757,1.816L133.478,87.7l5.157,5.157a2.552,2.552,0,0,1,.767,1.825v4.749h31Zm0-49.876a2.569,2.569,0,1,1,5.137,0V52.12a2.57,2.57,0,0,1-2.564,2.573H136.828a2.569,2.569,0,0,1-2.563-2.573V45.866l-6.235-6.225a2.584,2.584,0,0,1,0-3.641l6.235-6.225V23.52a2.569,2.569,0,0,1,2.563-2.573h36.145a2.57,2.57,0,0,1,2.564,2.573V32a2.569,2.569,0,1,1-5.137,0v-5.9h-31v4.739a2.571,2.571,0,0,1-.757,1.825l-5.166,5.167,5.157,5.147a2.559,2.559,0,0,1,.767,1.835v4.739h31Zm-54.781-9.886a5.756,5.756,0,1,0,1.68,4.069A5.725,5.725,0,0,0,115.619,33.756Zm0,99.773a5.744,5.744,0,1,0,1.68,4.059A5.735,5.735,0,0,0,115.619,133.529Zm0-49.887a5.756,5.756,0,1,0,1.68,4.06A5.725,5.725,0,0,0,115.619,83.642ZM45.562,65.492a2.569,2.569,0,1,1,5.137,0V78.738A9.324,9.324,0,1,1,41.648,94.4l-7.856,4.535A2.558,2.558,0,0,1,31.247,94.5l7.837-4.525a9.706,9.706,0,0,1-.272-2.272,9.35,9.35,0,0,1,6.749-8.963V65.492ZM51.087,84.75A4.185,4.185,0,1,0,52.311,87.7,4.175,4.175,0,0,0,51.087,84.75Zm-5.526-32.2a2.569,2.569,0,1,1,5.137,0v2.962a2.569,2.569,0,1,1-5.137,0Zm-12.79,66.891a2.565,2.565,0,1,1-4.438-2.573l1.476-2.564a2.565,2.565,0,0,1,4.438,2.573ZM66.441,61.093a2.554,2.554,0,1,1-4.428-2.544l1.476-2.564a2.558,2.558,0,1,1,4.438,2.545ZM18.963,107.5a2.563,2.563,0,0,1-2.563-4.438l2.563-1.485a2.565,2.565,0,0,1,2.573,4.437ZM77.3,73.824a2.565,2.565,0,1,1-2.573-4.437L77.3,67.91a2.558,2.558,0,0,1,2.564,4.428ZM12.971,90.275a2.569,2.569,0,1,1,0-5.137h2.972a2.569,2.569,0,0,1,0,5.137Zm67.348,0a2.569,2.569,0,0,1,0-5.137H83.29a2.569,2.569,0,0,1,0,5.137ZM16.4,72.339a2.558,2.558,0,1,1,2.563-4.428l2.573,1.476a2.565,2.565,0,0,1-2.573,4.438Zm58.325,33.679A2.565,2.565,0,0,1,77.3,101.58l2.564,1.485A2.563,2.563,0,0,1,77.3,107.5ZM28.334,58.539a2.562,2.562,0,1,1,4.438-2.563l1.477,2.563A2.563,2.563,0,1,1,29.811,61.1Zm33.678,58.326a2.556,2.556,0,1,1,4.428-2.554l1.486,2.563a2.56,2.56,0,1,1-4.438,2.554Zm-16.451,3.03a2.569,2.569,0,1,1,5.137,0v2.972a2.569,2.569,0,0,1-5.137,0Z" transform="translate(0 0)"/>
    </g>
  </g>
</svg>
