<svg xmlns="http://www.w3.org/2000/svg" width="108.63" height="97" viewBox="0 0 108.63 97">
  <g id="Grupo_1201617" data-name="Grupo 1201617" transform="translate(0 -0.405)">
    <g id="Grupo_1201612" data-name="Grupo 1201612" transform="translate(0.257 12.533)">
      <g id="Rect치ngulo_410589" data-name="Rect치ngulo 410589" transform="translate(-0.257 16.438)" fill="#ffc94a" stroke="#dfab32" stroke-width="1">
        <rect width="108.63" height="36.21" rx="8" stroke="none"/>
        <rect x="0.5" y="0.5" width="107.63" height="35.21" rx="7.5" fill="none"/>
      </g>
      <g id="Grupo_1201641" data-name="Grupo 1201641" transform="translate(-48.889 2.193)">
        <g id="Grupo_1201642" data-name="Grupo 1201642" transform="translate(81.908 1.297)">
          <circle id="Elipse_12380" data-name="Elipse 12380" cx="10.999" cy="10.999" r="10.999" transform="translate(11.07 36.443)" fill="#ffdcd5"/>
          <path id="Trazado_1246383" data-name="Trazado 1246383" d="M94.427,409.184l-3.936-13.56,11.476.055a12.373,12.373,0,0,0,2.943,5.177s-.694,8.328,7.347,8.328,8.068-8.157,8.068-8.157,2.135-1.211,3.063-5.632l10.239.055-2.78,13.733H94.427Z" transform="translate(-90.491 -345.513)" fill="#e38eba"/>
          <g id="Grupo_1201641-2" data-name="Grupo 1201641" transform="translate(0 23.299)">
            <path id="Trazado_1246384" data-name="Trazado 1246384" d="M201.79,437.58s-.673,8.328,7.347,8.328,8.068-8.157,8.068-8.157a12.5,12.5,0,0,1-15.414-.171Z" transform="translate(-187.371 -405.535)" fill="#ffdcd5"/>
            <path id="Trazado_1246385" data-name="Trazado 1246385" d="M96.9,190.019H95.559a5.069,5.069,0,0,0-5.069,5.069v21.138h11.476V195.088A5.069,5.069,0,0,0,96.9,190.019Z" transform="translate(-90.49 -190.019)" fill="#ffdcd5"/>
            <path id="Trazado_1246386" data-name="Trazado 1246386" d="M350.337,190.019h-.02a5.069,5.069,0,0,0-5.069,5.069v21.138h10.159V195.088A5.069,5.069,0,0,0,350.337,190.019Z" transform="translate(-312.272 -190.019)" fill="#ffdcd5"/>
          </g>
          <path id="Trazado_1246387" data-name="Trazado 1246387" d="M168.519,10.02h-23.1a3.915,3.915,0,0,0-3.915,3.915V35.32a3.915,3.915,0,0,0,3.915,3.915h23.1a3.915,3.915,0,0,0,3.915-3.915V13.935A3.915,3.915,0,0,0,168.519,10.02Z" transform="translate(-134.902 -10.02)" fill="#ffee80"/>
        </g>
        <g id="Grupo_1201643" data-name="Grupo 1201643" transform="translate(80.632 0)">
          <circle id="Elipse_12381" data-name="Elipse 12381" cx="1.294" cy="1.294" r="1.294" transform="translate(22.05 0.003)"/>
          <path id="Trazado_1246388" data-name="Trazado 1246388" d="M120.738,23.451V5.212A5.218,5.218,0,0,0,115.526,0h-5.7a1.3,1.3,0,1,0,0,2.594h5.7a2.621,2.621,0,0,1,2.618,2.618V26.6a2.621,2.621,0,0,1-2.618,2.618h-23.1A2.621,2.621,0,0,1,89.808,26.6V5.212a2.621,2.621,0,0,1,2.618-2.618h5.7a1.3,1.3,0,1,0,0-2.594h-5.7a5.218,5.218,0,0,0-5.212,5.212V23.4c-.133-.009-.268-.015-.41-.015a6.18,6.18,0,0,0-6.173,6.173V50.8a1.3,1.3,0,0,0,.047.345l3.915,14.165a1.3,1.3,0,0,0,2.5-.691L83.633,52.1h8.623a12.188,12.188,0,0,0,2.658,4.785v1.069c0,4.583,4.065,8.312,9.062,8.312s9.062-3.729,9.062-8.312V56.885A12.184,12.184,0,0,0,115.7,52.1h7.472l-2.335,12.633a1.3,1.3,0,0,0,2.551.471L126,51.039a1.287,1.287,0,0,0,.022-.236V29.558a6.181,6.181,0,0,0-5.285-6.108Zm0,3.147v-.506a3.585,3.585,0,0,1,2.692,3.467V49.507h-7.158V31.755A5.22,5.22,0,0,0,120.738,26.6ZM94.274,31.809h19.4v9.556a12.177,12.177,0,0,0-19.4,0ZM86.8,25.98c.067,0,.369-.026.41.019.019.021,0,.457,0,.6a5.219,5.219,0,0,0,4.466,5.158V49.506H83.226V29.559A3.583,3.583,0,0,1,86.8,25.98Zm17.172,37.692a6.345,6.345,0,0,1-6.322-4.513,12.171,12.171,0,0,0,12.645,0A6.345,6.345,0,0,1,103.976,63.672Zm0-5.336a9.6,9.6,0,1,1,9.6-9.6A9.608,9.608,0,0,1,103.976,58.336Z" transform="translate(-80.632 0)"/>
          <path id="Trazado_1246389" data-name="Trazado 1246389" d="M184.747,76.089a1.3,1.3,0,0,0,1.3-1.3V61.045a1.3,1.3,0,0,0-1.3-1.3h-2.938a1.3,1.3,0,0,0,0,2.594h1.641V74.793a1.3,1.3,0,0,0,1.3,1.3Z" transform="translate(-167.583 -52.014)"/>
          <path id="Trazado_1246390" data-name="Trazado 1246390" d="M259.568,69.211a5.272,5.272,0,1,0,10.545,0V62.853a5.272,5.272,0,1,0-10.545,0Zm2.594-6.358a2.678,2.678,0,1,1,5.357,0v6.358a2.678,2.678,0,1,1-5.357,0Z" transform="translate(-236.406 -50.128)"/>
        </g>
      </g>
    </g>
    <rect id="Rect치ngulo_410876" data-name="Rect치ngulo 410876" width="108" height="97" transform="translate(0 0.405)" fill="none"/>
  </g>
</svg>
