<svg xmlns="http://www.w3.org/2000/svg" width="109" height="97" viewBox="0 0 109 97">
  <g id="Grupo_1201618" data-name="Grupo 1201618" transform="translate(0 -0.405)">
    <g id="Grupo_1201614" data-name="Grupo 1201614" transform="translate(0.038 12.56)">
      <g id="Rect치ngulo_410589" data-name="Rect치ngulo 410589" transform="translate(0 17.734)" fill="#ffc94a" stroke="#dfab32" stroke-width="1">
        <rect width="108.63" height="36.21" rx="8" stroke="none"/>
        <rect x="0.5" y="0.5" width="107.63" height="35.21" rx="7.5" fill="none"/>
      </g>
      <g id="Grupo_1201644" data-name="Grupo 1201644" transform="translate(11.962 -22.532)">
        <g id="Grupo_1201644-2" data-name="Grupo 1201644" transform="translate(1.248 16.848)">
          <path id="Trazado_1246391" data-name="Trazado 1246391" d="M117.192,54.439l-4.313-5.912a1.749,1.749,0,0,0-2.826,0l-.474.65-4.139,5.674,3.179,4.356,2.848,3.906,6.027-8.262Z" transform="translate(-89.148 -43.699)" fill="#9be69d"/>
          <path id="Trazado_1246392" data-name="Trazado 1246392" d="M133.424,54.852,127.4,63.114l-2.848-3.906a8.694,8.694,0,0,1,5.1-4.355l0,0-4.139-5.674.474-.65a1.749,1.749,0,0,1,2.826,0l4.313,5.912Z" transform="translate(-105.08 -43.699)" fill="#6fd7a3"/>
          <path id="Trazado_1246393" data-name="Trazado 1246393" d="M32.82,201.434h8.719a11.477,11.477,0,0,0-11.477-11.477H23.59a2.028,2.028,0,0,0-1.981,2.463A11.515,11.515,0,0,0,32.82,201.434Z" transform="translate(-19.221 -162.202)" fill="#9be69d"/>
          <path id="Trazado_1246394" data-name="Trazado 1246394" d="M65.215,201.435H61.436A11.478,11.478,0,0,0,49.96,189.959h3.778a11.478,11.478,0,0,1,11.478,11.476Z" transform="translate(-42.897 -162.203)" fill="#6fd7a3"/>
          <path id="Trazado_1246395" data-name="Trazado 1246395" d="M150.384,181.324h-8.719a11.477,11.477,0,0,1,11.477-11.477h6.472a2.028,2.028,0,0,1,1.981,2.463A11.515,11.515,0,0,1,150.384,181.324Z" transform="translate(-119.348 -145.437)" fill="#9be69d"/>
          <path id="Trazado_1246396" data-name="Trazado 1246396" d="M186.517,172.31a11.516,11.516,0,0,1-11.211,9.014H171.56a11.518,11.518,0,0,0,11.183-9.014,2.03,2.03,0,0,0-1.981-2.464h3.774A2.028,2.028,0,0,1,186.517,172.31Z" transform="translate(-144.27 -145.436)" fill="#6fd7a3"/>
          <path id="Trazado_1246397" data-name="Trazado 1246397" d="M59.4,96.349h6.59a8.675,8.675,0,0,0-8.675-8.675H52.422a1.532,1.532,0,0,0-1.5,1.862A8.7,8.7,0,0,0,59.4,96.349Z" transform="translate(-43.671 -76.932)" fill="#9be69d"/>
          <path id="Trazado_1246398" data-name="Trazado 1246398" d="M79.271,96.345H75.495A8.672,8.672,0,0,0,66.82,87.67H70.6a8.672,8.672,0,0,1,8.675,8.675Z" transform="translate(-56.953 -76.929)" fill="#6fd7a3"/>
          <path id="Trazado_1246399" data-name="Trazado 1246399" d="M305.5,126.371a4.9,4.9,0,0,1-3.515,4.9l-5.717,1.677-9.1,2.67a2.488,2.488,0,0,1-3.086-3.086l4.347-14.821a4.9,4.9,0,0,1,4.9-3.515l11.69.482Z" transform="translate(-237.989 -99.042)" fill="#eaf6ff"/>
          <path id="Trazado_1246400" data-name="Trazado 1246400" d="M311.182,128.21a4.9,4.9,0,0,1-3.515,4.9l-14.821,4.347a2.446,2.446,0,0,1-2.056-.3l13.79-4.044a4.9,4.9,0,0,0,3.515-4.9l-.283-11.81,2.888.12Z" transform="translate(-243.667 -100.88)" fill="#c8effe"/>
          <path id="Trazado_1246401" data-name="Trazado 1246401" d="M299.474,209.534l-9.1,2.67a2.463,2.463,0,0,1-2.55-.727,3.721,3.721,0,0,1,.752-1.078l3.252-3.25a3.71,3.71,0,0,1,2.658-1.09h3.22v1.705Z" transform="translate(-241.191 -175.626)" fill="#c8effe"/>
          <path id="Trazado_1246402" data-name="Trazado 1246402" d="M429.674,34.724a3.365,3.365,0,0,1,0-4.759l5.881-5.881a3.365,3.365,0,1,1,4.759,4.759l-5.881,5.881A3.365,3.365,0,0,1,429.674,34.724Z" transform="translate(-358.627 -23.099)" fill="#ffd15b"/>
          <path id="Trazado_1246403" data-name="Trazado 1246403" d="M450.421,26.468a3.362,3.362,0,0,1-.985,2.38l-5.882,5.882a3.364,3.364,0,0,1-3.924.61,3.377,3.377,0,0,0,.833-.61l5.88-5.882a3.363,3.363,0,0,0,0-4.759,3.279,3.279,0,0,0-.833-.607,3.362,3.362,0,0,1,4.91,2.986Z" transform="translate(-367.749 -23.105)" fill="#ffc344"/>
          <path id="Trazado_1246404" data-name="Trazado 1246404" d="M258.171,304.349l-2.06-2.059a2.358,2.358,0,0,1,0-3.334l2.06-2.06a2.358,2.358,0,0,1,3.334,0l2.059,2.06a2.358,2.358,0,0,1,0,3.334l-2.059,2.059A2.358,2.358,0,0,1,258.171,304.349Z" transform="translate(-214.181 -250.777)" fill="#ffcebf"/>
          <path id="Trazado_1246405" data-name="Trazado 1246405" d="M277.828,302.29l-2.059,2.059a2.356,2.356,0,0,1-3.239.09q.047-.042.095-.09l2.059-2.059a2.358,2.358,0,0,0,0-3.333l-2.059-2.059q-.047-.047-.095-.09a2.356,2.356,0,0,1,3.239.09l2.059,2.059a2.359,2.359,0,0,1,0,3.334Z" transform="translate(-228.444 -250.778)" fill="#ffb09e"/>
          <path id="Trazado_1246406" data-name="Trazado 1246406" d="M309.651,218.909l-3.251-3.251a3.722,3.722,0,0,1,0-5.263l3.251-3.251a3.722,3.722,0,0,1,5.263,0l3.251,3.251a3.722,3.722,0,0,1,0,5.263l-3.251,3.251A3.722,3.722,0,0,1,309.651,218.909Z" transform="translate(-255.771 -175.621)" fill="#e49280"/>
          <path id="Trazado_1246407" data-name="Trazado 1246407" d="M344.977,215.662l-3.252,3.252a3.72,3.72,0,0,1-4.255.717,3.667,3.667,0,0,0,1.008-.717l3.252-3.252a3.724,3.724,0,0,0,0-5.263l-3.252-3.25a3.667,3.667,0,0,0-1.008-.717,3.72,3.72,0,0,1,4.255.717l3.252,3.25A3.721,3.721,0,0,1,344.977,215.662Z" transform="translate(-282.582 -175.625)" fill="#dd7f66"/>
          <path id="Trazado_1246408" data-name="Trazado 1246408" d="M204.1,268.845l-1.475-1.475a1.689,1.689,0,0,1,0-2.388l1.475-1.475a1.689,1.689,0,0,1,2.388,0l1.475,1.475a1.689,1.689,0,0,1,0,2.388l-1.475,1.475A1.689,1.689,0,0,1,204.1,268.845Z" transform="translate(-169.752 -223.105)" fill="#ffcebf"/>
          <path id="Trazado_1246409" data-name="Trazado 1246409" d="M216.615,267.369l-1.475,1.475a1.689,1.689,0,0,1-2.387,0l-.243-.243,1.233-1.233a1.691,1.691,0,0,0,0-2.389l-1.233-1.231.243-.243a1.686,1.686,0,0,1,2.387,0l1.475,1.474A1.691,1.691,0,0,1,216.615,267.369Z" transform="translate(-178.408 -223.104)" fill="#ffb09e"/>
          <path id="Trazado_1246410" data-name="Trazado 1246410" d="M90.172,323.959V351.4H7.5V323.959H18.691a3.291,3.291,0,0,1,3.111,2.217l1.754,5.082a4.188,4.188,0,0,0,3.959,2.822H70.157a4.188,4.188,0,0,0,3.959-2.822l1.754-5.082a3.291,3.291,0,0,1,3.111-2.217Z" transform="translate(-7.5 -273.913)" fill="#e49280"/>
          <path id="Trazado_1246411" data-name="Trazado 1246411" d="M64.354,334.08H60.514a4.187,4.187,0,0,1-3.959-2.821L54.8,326.177a3.289,3.289,0,0,0-3.111-2.217h3.841a3.289,3.289,0,0,1,3.111,2.217l1.755,5.082A4.187,4.187,0,0,0,64.354,334.08Z" transform="translate(-44.339 -273.914)" fill="#dd7f66"/>
          <path id="Trazado_1246412" data-name="Trazado 1246412" d="M481.41,323.959h3.841V351.4H481.41Z" transform="translate(-402.579 -273.913)" fill="#dd7f66"/>
          <path id="Trazado_1246413" data-name="Trazado 1246413" d="M148.256,96.349h-6.59a8.675,8.675,0,0,1,8.675-8.675h4.892a1.533,1.533,0,0,1,1.5,1.862A8.7,8.7,0,0,1,148.256,96.349Z" transform="translate(-119.349 -76.932)" fill="#9be69d"/>
          <path id="Trazado_1246414" data-name="Trazado 1246414" d="M170.963,89.53a8.7,8.7,0,0,1-8.473,6.813H158.74a8.7,8.7,0,0,0,8.449-6.813,1.533,1.533,0,0,0-1.5-1.861h3.774A1.532,1.532,0,0,1,170.963,89.53Z" transform="translate(-133.582 -76.928)" fill="#6fd7a3"/>
        </g>
        <g id="Grupo_1201645" data-name="Grupo 1201645" transform="translate(0 15.601)">
          <path id="Trazado_1246415" data-name="Trazado 1246415" d="M251.044,289.771l-2.059,2.059a3.609,3.609,0,0,0,0,5.1l2.059,2.059a3.61,3.61,0,0,0,5.1,0l2.059-2.059a3.609,3.609,0,0,0,0-5.1l-2.059-2.059A3.61,3.61,0,0,0,251.044,289.771Zm5.394,5.394-2.06,2.059a1.111,1.111,0,0,1-1.57,0l-2.059-2.059a1.111,1.111,0,0,1,0-1.57l2.059-2.059a1.111,1.111,0,0,1,1.57,0l2.06,2.059A1.111,1.111,0,0,1,256.438,295.165Z" transform="translate(-206.689 -243.287)"/>
          <path id="Trazado_1246416" data-name="Trazado 1246416" d="M201.12,263.482l1.475-1.475a2.94,2.94,0,0,0,0-4.152l-1.475-1.475a2.94,2.94,0,0,0-4.152,0l-1.475,1.475a2.94,2.94,0,0,0,0,4.152l1.475,1.475h0a2.94,2.94,0,0,0,4.152,0Zm-3.863-3.239a.442.442,0,0,1,0-.624l1.475-1.475a.442.442,0,0,1,.624,0l1.475,1.475a.441.441,0,0,1,0,.623l-1.475,1.475a.442.442,0,0,1-.624,0Z" transform="translate(-162.258 -215.612)"/>
          <path id="Trazado_1246417" data-name="Trazado 1246417" d="M280.051,54.773a4.944,4.944,0,0,0,1.425,3l3.251,3.251h0a4.975,4.975,0,0,0,7.028,0l3.251-3.251a5.032,5.032,0,0,0-.114-7.142c3.4-.658,5.7-3.2,5.6-6.5l-.46-11.145,2.866-2.866a4.614,4.614,0,0,0,5.52-.761,1.247,1.247,0,0,0-1.764-1.764,2.117,2.117,0,1,1-2.994-2.994l5.881-5.881a2.117,2.117,0,0,1,2.994,2.994l-1.73,1.73a1.248,1.248,0,1,0,1.764,1.764l1.73-1.73a4.612,4.612,0,1,0-6.523-6.523l-5.881,5.881a4.62,4.62,0,0,0-.76,5.518l-2.867,2.867-11.145-.459a6.131,6.131,0,0,0-6.15,4.411l-4.346,14.822a3.735,3.735,0,0,0,3.424,4.781ZM293.242,56l-3.251,3.251a2.477,2.477,0,0,1-3.5,0L283.241,56a2.477,2.477,0,0,1,0-3.5l3.251-3.251a2.474,2.474,0,0,1,3.5,0l3.251,3.251A2.477,2.477,0,0,1,293.242,56Zm-14.221-5.311,4.346-14.822a3.654,3.654,0,0,1,3.653-2.62l8.849.365-7.2,7.2a1.248,1.248,0,0,0,1.765,1.764l7.2-7.2L298,44.23a3.645,3.645,0,0,1-2.62,3.653l-2.5.732-1.126-1.126a4.969,4.969,0,0,0-7.028,0l-3.251,3.251a4.942,4.942,0,0,0-1.035,1.518,1.239,1.239,0,0,1-1.42-1.565Z" transform="translate(-230.482 -15.601)"/>
          <path id="Trazado_1246418" data-name="Trazado 1246418" d="M83.919,481.4H1.248a1.248,1.248,0,1,0,0,2.5H83.919a1.248,1.248,0,1,0,0-2.5Z" transform="translate(0 -403.918)"/>
          <path id="Trazado_1246419" data-name="Trazado 1246419" d="M261.193,316.459H250a4.54,4.54,0,0,0-4.29,3.058l-1.754,5.082a2.942,2.942,0,0,1-2.78,1.981H213.893a1.248,1.248,0,1,0,0,2.5h27.285a5.438,5.438,0,0,0,5.138-3.662l1.754-5.082A2.044,2.044,0,0,1,250,318.954h11.191a1.248,1.248,0,1,0,0-2.5Z" transform="translate(-177.273 -266.414)"/>
          <path id="Trazado_1246420" data-name="Trazado 1246420" d="M1.248,88.74H12.439a2.044,2.044,0,0,1,1.931,1.376L16.124,95.2a5.438,5.438,0,0,0,5.138,3.662h9.412a1.248,1.248,0,1,0,0-2.5H24.812V74.582h7.5a12.791,12.791,0,0,0,12.4-9.992,3.275,3.275,0,0,0-3.2-3.98s-6.982.008-7.236.023a1.248,1.248,0,1,0,.147,2.491c.206-.012,7.089-.018,7.089-.018a.781.781,0,0,1,.763.946,10.281,10.281,0,0,1-9.968,8.036H28.241l5.935-3.409a1.248,1.248,0,0,0-1.243-2.163L25.074,71.03a10.183,10.183,0,0,1,4.535-6.363,1.248,1.248,0,0,0-1.328-2.113,12.787,12.787,0,0,0-3.468,3.2V58.111h5.364a9.974,9.974,0,0,0,9.67-7.791,2.78,2.78,0,0,0-2.715-3.378H32.24a9.919,9.919,0,0,0-2.142.236l-4.111-5.636a3,3,0,0,0-4.843,0l-4.111,5.636a9.909,9.909,0,0,0-2.142-.236H10a2.78,2.78,0,0,0-2.715,3.378,9.973,9.973,0,0,0,9.67,7.792h5.364V69.122a12.713,12.713,0,0,0-10.23-5.167H5.616a3.275,3.275,0,0,0-3.2,3.98,12.79,12.79,0,0,0,12.4,9.993h7.5V96.366H21.263a2.942,2.942,0,0,1-2.78-1.981L16.729,89.3a4.54,4.54,0,0,0-4.29-3.058H1.248a1.248,1.248,0,1,0,0,2.5Zm35.884-39.3a.278.278,0,0,1,.223.107.275.275,0,0,1,.056.238,7.463,7.463,0,0,1-7.234,5.835H28.241l3.5-2.008a1.248,1.248,0,0,0-1.243-2.163l-5.288,3.038a7.439,7.439,0,0,1,7.034-5.046h4.891ZM23.159,43.011a.5.5,0,0,1,.811,0l3.687,5.055a9.99,9.99,0,0,0-4.093,3.987,9.99,9.99,0,0,0-4.093-3.987Zm-6.185,12.6h-.021A7.464,7.464,0,0,1,9.72,49.781a.275.275,0,0,1,.056-.238A.278.278,0,0,1,10,49.436H14.89a7.439,7.439,0,0,1,7.034,5.046l-5.288-3.038a1.248,1.248,0,0,0-1.243,2.163l3.5,2.008H16.975ZM14.846,75.432h-.028A10.281,10.281,0,0,1,4.853,67.4a.78.78,0,0,1,.763-.946h6.472a10.245,10.245,0,0,1,9.965,7.922L14.2,69.859a1.248,1.248,0,0,0-1.243,2.163l5.935,3.409Z" transform="translate(0 -36.2)"/>
          <path id="Trazado_1246421" data-name="Trazado 1246421" d="M274.307,447.243H229.624a1.248,1.248,0,0,0,0,2.5h44.683a1.248,1.248,0,0,0,0-2.5Z" transform="translate(-190.388 -375.443)"/>
          <path id="Trazado_1246422" data-name="Trazado 1246422" d="M1.248,449.738h19.02a1.248,1.248,0,0,0,0-2.5H1.248a1.248,1.248,0,0,0,0,2.5Z" transform="translate(0 -375.443)"/>
          <path id="Trazado_1246423" data-name="Trazado 1246423" d="M162.005,413.238a1.247,1.247,0,0,0-1.248-1.248h-24.7a1.248,1.248,0,1,0,0,2.5h24.7A1.247,1.247,0,0,0,162.005,413.238Z" transform="translate(-112.387 -346.054)"/>
          <path id="Trazado_1246424" data-name="Trazado 1246424" d="M402.089,411.99H382.9a1.248,1.248,0,0,0,0,2.5h19.187a1.248,1.248,0,0,0,0-2.5Z" transform="translate(-318.17 -346.054)"/>
          <path id="Trazado_1246425" data-name="Trazado 1246425" d="M1.248,414.485H11.406a1.248,1.248,0,1,0,0-2.5H1.248a1.248,1.248,0,1,0,0,2.5Z" transform="translate(0 -346.054)"/>
          <circle id="Elipse_12382" data-name="Elipse 12382" cx="1.248" cy="1.248" r="1.248" transform="translate(74.192 59.122)"/>
          <circle id="Elipse_12383" data-name="Elipse 12383" cx="1.248" cy="1.248" r="1.248" transform="translate(32.127 71.8)"/>
          <circle id="Elipse_12384" data-name="Elipse 12384" cx="1.248" cy="1.248" r="1.248" transform="translate(54.888 37.406)"/>
        </g>
      </g>
    </g>
    <rect id="Rect치ngulo_410875" data-name="Rect치ngulo 410875" width="109" height="97" transform="translate(0 0.405)" fill="none"/>
  </g>
</svg>
