<svg xmlns="http://www.w3.org/2000/svg" width="109" height="97" viewBox="0 0 109 97">
  <g id="Grupo_1201619" data-name="Grupo 1201619" transform="translate(0 -0.405)">
    <g id="Grupo_1201616" data-name="Grupo 1201616" transform="translate(0.311 12.561)">
      <g id="Rect치ngulo_410589" data-name="Rect치ngulo 410589" transform="translate(-0.311 16.282)" fill="#ffc94a" stroke="#dfab32" stroke-width="1">
        <rect width="108.63" height="36.21" rx="8" stroke="none"/>
        <rect x="0.5" y="0.5" width="107.63" height="35.21" rx="7.5" fill="none"/>
      </g>
      <g id="Grupo_1201646" data-name="Grupo 1201646" transform="translate(15.688 -4.67)">
        <path id="Trazado_1246426" data-name="Trazado 1246426" d="M235.516,117.577V102.566H216.825v15.011a23,23,0,1,0,18.691,0Zm0,0" transform="translate(-172.144 -86.48)" fill="#c9fff7"/>
        <path id="Trazado_1246427" data-name="Trazado 1246427" d="M270.338,265.132a18.345,18.345,0,1,1-31.053-13.226H264.7A18.366,18.366,0,0,1,270.338,265.132Zm0,0" transform="translate(-197.967 -213.014)" fill="#f7d360"/>
        <path id="Trazado_1246428" data-name="Trazado 1246428" d="M221.027,130.489v-4.154a4.075,4.075,0,0,1,4.074-4.075h10.415v-4.455h-18.69v12.685a23,23,0,0,0,9.183,44.017c-6.917-.16-12.5-10.395-12.5-23C213.513,142.134,216.6,134.071,221.027,130.489Zm0,0" transform="translate(-172.144 -99.391)" fill="#72cec0"/>
        <path id="Trazado_1246429" data-name="Trazado 1246429" d="M242.849,281.029a18.335,18.335,0,0,1-3.564-29.123h2.353a37.012,37.012,0,0,0-2.3,13.226A34.769,34.769,0,0,0,242.849,281.029Zm0,0" transform="translate(-197.967 -213.014)" fill="#e58e13"/>
        <path id="Trazado_1246430" data-name="Trazado 1246430" d="M52.607,205.825,37.67,179.955V166.57H23.476v13.384L8.539,205.825a6.667,6.667,0,0,0,5.774,10H46.832A6.668,6.668,0,0,0,52.607,205.825Zm0,0" transform="translate(-6.469 -140.71)" fill="#e6e6e6"/>
        <path id="Trazado_1246431" data-name="Trazado 1246431" d="M37.667,166.57h-14.2v13.384L8.536,205.825a6.666,6.666,0,0,0,5.773,10h8.878c-2.331,0-3.787-5.555-2.622-10l6.783-25.871v-6.871a2.556,2.556,0,0,1,2.557-2.557h7.763Zm0,0" transform="translate(-6.466 -140.71)" fill="#ccc"/>
        <path id="Trazado_1246432" data-name="Trazado 1246432" d="M102.144,129.971A3.025,3.025,0,0,1,99.118,133H80.681a3.025,3.025,0,0,1,0-6.051H99.118a3.025,3.025,0,0,1,3.026,3.026Zm0,0" transform="translate(-65.796 -107.136)" fill="#ccc"/>
        <path id="Trazado_1246433" data-name="Trazado 1246433" d="M142.85,129.971A3.025,3.025,0,0,1,139.824,133h-11.1a3.025,3.025,0,0,1,0-6.051h11.1a3.025,3.025,0,0,1,3.026,3.026Zm0,0" transform="translate(-106.503 -107.136)" fill="#e6e6e6"/>
        <path id="Trazado_1246434" data-name="Trazado 1246434" d="M288.983,81.209a3.025,3.025,0,0,1-3.025,3.026H263.15a3.025,3.025,0,0,1,0-6.051h22.808a3.024,3.024,0,0,1,3.025,3.025Zm0,0" transform="translate(-220.4 -65.821)" fill="#72cec0"/>
        <path id="Trazado_1246435" data-name="Trazado 1246435" d="M328.206,81.209a3.025,3.025,0,0,1-3.025,3.026H309.444a3.025,3.025,0,1,1,0-6.051h15.738a3.024,3.024,0,0,1,3.025,3.025Zm0,0" transform="translate(-259.624 -65.821)" fill="#c9fff7"/>
        <path id="Trazado_1246436" data-name="Trazado 1246436" d="M74.39,335.4a1.947,1.947,0,0,1-1.742,1.007H40.129a2.013,2.013,0,0,1-1.744-3.019l10.976-19.011H63.415L74.39,333.386A1.946,1.946,0,0,1,74.39,335.4Zm0,0" transform="translate(-32.284 -265.943)" fill="#fc5f61"/>
        <path id="Trazado_1246437" data-name="Trazado 1246437" d="M46.382,331.059a13.794,13.794,0,0,0-.265,5.346H40.129a2.013,2.013,0,0,1-1.744-3.019l10.976-19.011h1.395Zm0,0" transform="translate(-32.284 -265.943)" fill="#e83842"/>
        <path id="Trazado_1246438" data-name="Trazado 1246438" d="M64.535,89.725V87.4a1.164,1.164,0,1,0-2.327,0v3.066a1.164,1.164,0,0,0,.69,1.063,21.841,21.841,0,0,1-16,40.6c.085-.129.168-.261.247-.4a7.97,7.97,0,0,0,.74-1.73,19.511,19.511,0,0,0,25.65-18.517,19.625,19.625,0,0,0-5.993-14.064,1.165,1.165,0,0,0-.807-.326H41.318a1.164,1.164,0,0,0-.807.325,19.524,19.524,0,0,0-4.644,6.945l-1.445-2.5A21.864,21.864,0,0,1,45.155,91.531a1.163,1.163,0,0,0,.69-1.063V78.947H62.208v3.8a1.164,1.164,0,1,0,2.327,0v-3.8h1.022a4.189,4.189,0,1,0,0-8.377H60.814a1.164,1.164,0,0,0,0,2.327h4.744a1.861,1.861,0,1,1,0,3.723H42.75a1.861,1.861,0,1,1,0-3.723H56.16a1.164,1.164,0,0,0,0-2.327H42.75a4.189,4.189,0,1,0,0,8.377h.768V89.725A24.189,24.189,0,0,0,33.05,99.489L32.365,98.3V86.394h.957a4.189,4.189,0,1,0,0-8.377H14.885a4.189,4.189,0,1,0,0,8.377h.957V98.3L1.063,123.9A7.831,7.831,0,0,0,7.844,135.65H27.77a1.164,1.164,0,1,0,0-2.327H7.844a5.5,5.5,0,0,1-4.766-8.256L18.014,99.2a1.166,1.166,0,0,0,.156-.582V86.394H30.038V98.615a1.166,1.166,0,0,0,.156.582l14.936,25.87a5.5,5.5,0,0,1-4.766,8.256H32.425a1.164,1.164,0,0,0,0,2.327h7.939a7.767,7.767,0,0,0,4.84-1.664A24.167,24.167,0,0,0,64.535,89.725ZM17.006,84.067H14.885a1.861,1.861,0,1,1,0-3.723H33.322a1.861,1.861,0,0,1,0,3.723Zm20.42,23a17.182,17.182,0,0,1,4.37-7.644H66.257a17.177,17.177,0,0,1-12.231,29.242A17.013,17.013,0,0,1,48.2,127.65a7.813,7.813,0,0,0-1.056-3.747Zm0,0" transform="translate(0 -59.37)"/>
        <path id="Trazado_1246439" data-name="Trazado 1246439" d="M68.94,329.527a3.105,3.105,0,0,0,0-3.177l-10.976-19.01a1.163,1.163,0,0,0-1.008-.582H42.9a1.163,1.163,0,0,0-1.008.582L30.919,326.35a3.177,3.177,0,0,0,2.751,4.765H66.189A3.1,3.1,0,0,0,68.94,329.527Zm-36.006-1.164a.781.781,0,0,1,0-.849l10.64-18.429H56.285l10.64,18.429a.85.85,0,0,1-.736,1.274H33.67A.78.78,0,0,1,32.934,328.363Zm0,0" transform="translate(-25.826 -259.489)"/>
        <path id="Trazado_1246440" data-name="Trazado 1246440" d="M168.844,386.807a1.163,1.163,0,1,0-.506,1.46A1.172,1.172,0,0,0,168.844,386.807Zm0,0" transform="translate(-141.163 -326.719)"/>
        <path id="Trazado_1246441" data-name="Trazado 1246441" d="M134.162,75.967a1.164,1.164,0,1,0-1.133-.9A1.174,1.174,0,0,0,134.162,75.967Zm0,0" transform="translate(-112.688 -61.974)"/>
        <path id="Trazado_1246442" data-name="Trazado 1246442" d="M163.851,46.8a1.163,1.163,0,1,0-.459-1.332A1.171,1.171,0,0,0,163.851,46.8Zm0,0" transform="translate(-138.391 -37.421)"/>
        <path id="Trazado_1246443" data-name="Trazado 1246443" d="M146.894,2.1a1.162,1.162,0,0,0,2.169-.052,1.163,1.163,0,1,0-2.169.052Zm0,0" transform="translate(-124.387 0)"/>
        <path id="Trazado_1246444" data-name="Trazado 1246444" d="M413.16,285.543a1.163,1.163,0,1,0,.438-1.418A1.169,1.169,0,0,0,413.16,285.543Zm0,0" transform="translate(-349.991 -240.157)"/>
        <path id="Trazado_1246445" data-name="Trazado 1246445" d="M419.375,334.755a1.163,1.163,0,1,0,1.3.7A1.173,1.173,0,0,0,419.375,334.755Zm0,0" transform="translate(-354.548 -283.193)"/>
        <path id="Trazado_1246446" data-name="Trazado 1246446" d="M319.082,393.719a1.163,1.163,0,1,0,.526-1.472A1.173,1.173,0,0,0,319.082,393.719Zm0,0" transform="translate(-270.28 -331.81)"/>
        <path id="Trazado_1246447" data-name="Trazado 1246447" d="M284.873,328.118a1.163,1.163,0,1,0,1.293.674A1.177,1.177,0,0,0,284.873,328.118Zm0,0" transform="translate(-240.577 -277.568)"/>
        <path id="Trazado_1246448" data-name="Trazado 1246448" d="M376.987,311.433a1.162,1.162,0,1,0,.428-1.412A1.167,1.167,0,0,0,376.987,311.433Zm0,0" transform="translate(-319.342 -262.091)"/>
        <path id="Trazado_1246449" data-name="Trazado 1246449" d="M115.5,402.492a1.163,1.163,0,1,0-.466,1.438A1.176,1.176,0,0,0,115.5,402.492Zm0,0" transform="translate(-95.963 -339.995)"/>
        <path id="Trazado_1246450" data-name="Trazado 1246450" d="M134.023,352.5a1.163,1.163,0,1,0,1.261.608A1.173,1.173,0,0,0,134.023,352.5Zm0,0" transform="translate(-112.763 -298.227)"/>
      </g>
    </g>
    <rect id="Rect치ngulo_410874" data-name="Rect치ngulo 410874" width="109" height="97" transform="translate(0 0.405)" fill="none"/>
  </g>
</svg>
