<svg xmlns="http://www.w3.org/2000/svg" width="190" height="187" viewBox="0 0 190 187">
  <g id="Grupo_1201526" data-name="Grupo 1201526" transform="translate(-183.051 -384)">
    <rect id="Rectángulo_410727" data-name="Rectángulo 410727" width="190" height="187" rx="10" transform="translate(183.051 384)" fill="#a1c6f1"/>
    <g id="Artboard21" transform="translate(174.438 408)">
      <g id="Grupo_1201525" data-name="Grupo 1201525" transform="translate(52.613 7)">
        <g id="Grupo_1201524" data-name="Grupo 1201524" transform="translate(2.012 1.925)">
          <g id="Grupo_1201521" data-name="Grupo 1201521" transform="translate(0 22.515)">
            <g id="Grupo_1201517" data-name="Grupo 1201517">
              <g id="CorelEMF">
                <path id="Trazado_1245984" data-name="Trazado 1245984" d="M62.85,104.23h58.6a2.159,2.159,0,0,1,1.579.654l10.633,10.633a2.16,2.16,0,0,1,.655,1.58v80.422a2.233,2.233,0,0,1-2.228,2.228H62.85a2.234,2.234,0,0,1-2.234-2.228V106.464A2.239,2.239,0,0,1,62.85,104.23Z" transform="translate(-60.616 -104.23)" fill="#eceff1" fill-rule="evenodd"/>
                <path id="Trazado_1245985" data-name="Trazado 1245985" d="M306.3,104.993v10.633a1.119,1.119,0,0,0,1.117,1.117h10.633a2.241,2.241,0,0,0-.463-.654l-10.633-10.633A2.345,2.345,0,0,0,306.3,104.993Z" transform="translate(-244.547 -104.801)" fill="#a79ba7" fill-rule="evenodd"/>
                <path id="Trazado_1245986" data-name="Trazado 1245986" d="M62.85,104.23h2.228v95.518H62.85a2.234,2.234,0,0,1-2.234-2.228V106.464a2.239,2.239,0,0,1,2.234-2.234Z" transform="translate(-60.616 -104.23)" fill="#d1d1d6" fill-rule="evenodd"/>
              </g>
            </g>
            <g id="Grupo_1201518" data-name="Grupo 1201518" transform="translate(13.265 24.45)">
              <path id="Trazado_1245987" data-name="Trazado 1245987" d="M115.015,201.5h12.468a1.631,1.631,0,0,1,1.627,1.627v12.468a1.631,1.631,0,0,1-1.627,1.627H115.015a1.631,1.631,0,0,1-1.627-1.627V203.127A1.631,1.631,0,0,1,115.015,201.5Z" transform="translate(-113.388 -201.5)" fill="#8ac9fe" fill-rule="evenodd"/>
              <path id="Trazado_1245988" data-name="Trazado 1245988" d="M161.462,201.5h2.011a1.631,1.631,0,0,1,1.627,1.627v12.468a1.631,1.631,0,0,1-1.627,1.627h-2.011a1.631,1.631,0,0,0,1.627-1.627V203.127A1.631,1.631,0,0,0,161.462,201.5Z" transform="translate(-149.378 -201.5)" fill="#60b7ff" fill-rule="evenodd"/>
            </g>
            <g id="Grupo_1201519" data-name="Grupo 1201519" transform="translate(13.265 46.891)">
              <path id="Trazado_1245989" data-name="Trazado 1245989" d="M115.015,290.779h12.468a1.631,1.631,0,0,1,1.627,1.627v12.468a1.631,1.631,0,0,1-1.627,1.627H115.015a1.631,1.631,0,0,1-1.627-1.627V292.406A1.631,1.631,0,0,1,115.015,290.779Z" transform="translate(-113.388 -290.779)" fill="#6cf5c2" fill-rule="evenodd"/>
              <path id="Trazado_1245990" data-name="Trazado 1245990" d="M161.462,290.779h2.011a1.631,1.631,0,0,1,1.627,1.627v12.468a1.631,1.631,0,0,1-1.627,1.627h-2.011a1.631,1.631,0,0,0,1.627-1.627V292.406A1.631,1.631,0,0,0,161.462,290.779Z" transform="translate(-149.378 -290.779)" fill="#00e499" fill-rule="evenodd"/>
            </g>
            <g id="Grupo_1201520" data-name="Grupo 1201520" transform="translate(13.265 69.333)">
              <path id="Trazado_1245991" data-name="Trazado 1245991" d="M115.015,380.058h12.468a1.635,1.635,0,0,1,1.627,1.632v12.468a1.631,1.631,0,0,1-1.627,1.627H115.015a1.631,1.631,0,0,1-1.627-1.627V381.69A1.636,1.636,0,0,1,115.015,380.058Z" transform="translate(-113.388 -380.058)" fill="#ffe177" fill-rule="evenodd"/>
              <path id="Trazado_1245992" data-name="Trazado 1245992" d="M161.462,380.058h2.011a1.635,1.635,0,0,1,1.627,1.632v12.468a1.631,1.631,0,0,1-1.627,1.627h-2.011a1.631,1.631,0,0,0,1.627-1.627V381.69A1.635,1.635,0,0,0,161.462,380.058Z" transform="translate(-149.378 -380.058)" fill="#ffd064" fill-rule="evenodd"/>
            </g>
          </g>
          <g id="Grupo_1201522" data-name="Grupo 1201522" transform="translate(43.697 66.857)">
            <path id="Trazado_1245993" data-name="Trazado 1245993" d="M258.787,350.417a24.33,24.33,0,1,0-24.331-24.331A24.379,24.379,0,0,0,258.787,350.417Z" transform="translate(-234.456 -296.449)" fill="#fe646f" fill-rule="evenodd"/>
            <path id="Trazado_1245994" data-name="Trazado 1245994" d="M326.34,301.757a24.33,24.33,0,1,1,0,48.66c-.555,0-1.1-.019-1.65-.056a24.33,24.33,0,0,0,0-48.547C325.236,301.776,325.785,301.757,326.34,301.757Z" transform="translate(-302.009 -296.449)" fill="#fd4755" fill-rule="evenodd"/>
            <path id="Trazado_1245995" data-name="Trazado 1245995" d="M284.686,367.62a15.634,15.634,0,1,0-15.635-15.636A15.666,15.666,0,0,0,284.686,367.62Z" transform="translate(-260.355 -322.348)" fill="#eceff1" fill-rule="evenodd"/>
            <path id="Trazado_1245996" data-name="Trazado 1245996" d="M284.686,336.352c.371,0,.736.013,1.1.037a15.635,15.635,0,0,0,0,31.193c-.365.025-.73.037-1.1.037a15.634,15.634,0,1,1,0-31.268Z" transform="translate(-260.355 -322.348)" fill="#d1d1d6" fill-rule="evenodd"/>
            <path id="Trazado_1245997" data-name="Trazado 1245997" d="M310.585,384.822a6.938,6.938,0,1,0-6.94-6.94,6.953,6.953,0,0,0,6.94,6.94Z" transform="translate(-286.253 -348.247)" fill="#fe646f" fill-rule="evenodd"/>
            <path id="Trazado_1245998" data-name="Trazado 1245998" d="M310.585,370.946a6.938,6.938,0,1,0,0,13.876,6.745,6.745,0,0,0,1.1-.087,6.939,6.939,0,0,1,0-13.7A6.745,6.745,0,0,0,310.585,370.946Z" transform="translate(-286.253 -348.246)" fill="#fd4755" fill-rule="evenodd"/>
            <path id="Trazado_1245999" data-name="Trazado 1245999" d="M395.2,289.916l-8.537,8.54a1.075,1.075,0,0,1-1.011.3l-6.912-1.491-1.491-6.912a1.07,1.07,0,0,1,.3-1.011l8.537-8.537a.551.551,0,0,1,.926.275l1.4,6.51,6.509,1.4a.548.548,0,0,1,.275.926Z" transform="translate(-341.335 -280.64)" fill="#e3a76f" fill-rule="evenodd"/>
            <path id="Trazado_1246000" data-name="Trazado 1246000" d="M398.555,314.058l-8.536,8.54a1.074,1.074,0,0,1-1.011.3L382.1,321.4l-.39-1.809,6.609,1.425a1.079,1.079,0,0,0,1.01-.3l7.829-7.832,1.126.243a.548.548,0,0,1,.274.927Z" transform="translate(-344.693 -304.782)" fill="#c48958" fill-rule="evenodd"/>
          </g>
          <g id="Grupo_1201523" data-name="Grupo 1201523" transform="translate(11.008)">
            <path id="Trazado_1246001" data-name="Trazado 1246001" d="M129.171,18.082a17.6,17.6,0,0,1,5.161,2.139l3.354-1.488,3.951,3.951-1.488,3.354a17.6,17.6,0,0,1,2.139,5.161l3.422,1.317v5.59l-3.422,1.317a17.615,17.615,0,0,1-2.139,5.158l1.488,3.354-3.951,3.953-3.354-1.49a17.607,17.607,0,0,1-5.161,2.141l-1.317,3.42h-5.59l-1.317-3.422a17.616,17.616,0,0,1-5.158-2.139l-3.354,1.49-3.953-3.953,1.49-3.351a17.664,17.664,0,0,1-2.141-5.161l-3.419-1.317v-5.59L107.83,31.2a17.607,17.607,0,0,1,2.141-5.161l-1.49-3.354,3.953-3.951,3.351,1.488a17.659,17.659,0,0,1,5.161-2.139l1.317-3.422h5.59Z" transform="translate(-104.411 -14.66)" fill="#ffe177" fill-rule="evenodd"/>
            <path id="Trazado_1246002" data-name="Trazado 1246002" d="M158.968,19.233l1.127-.5,3.951,3.951-1.488,3.354A17.6,17.6,0,0,1,164.7,31.2l3.422,1.317v5.59L164.7,39.423a17.615,17.615,0,0,1-2.139,5.158l1.488,3.354-3.951,3.953-1.127-.5,3.454-3.453-1.49-3.354a17.615,17.615,0,0,0,2.139-5.158l3.422-1.317v-5.59L163.07,31.2a17.6,17.6,0,0,0-2.139-5.161l1.49-3.354Zm-24.624,0,.5-.5,3.351,1.488c-.237.132-.471.268-.7.412Zm17.236-1.151a17.6,17.6,0,0,1,5.161,2.139l-.924.412a23.032,23.032,0,0,0-5.863-2.551l-1.317-3.422h1.627ZM138.2,50.4l-3.354,1.49-.5-.5,3.151-1.4Q137.839,50.2,138.2,50.4Zm18.543,0a17.607,17.607,0,0,1-5.161,2.141l-1.317,3.42h-1.627l1.317-3.42a23.087,23.087,0,0,0,5.866-2.551Z" transform="translate(-126.82 -14.66)" fill="#ffd064" fill-rule="evenodd"/>
            <path id="Trazado_1246003" data-name="Trazado 1246003" d="M156.415,56.544A10.121,10.121,0,1,1,146.3,66.666a10.122,10.122,0,0,1,10.12-10.122Z" transform="translate(-135.767 -46.016)" fill="#eceff1" fill-rule="evenodd"/>
            <path id="Trazado_1246004" data-name="Trazado 1246004" d="M156.415,56.544c.23,0,.458.008.687.025a10.121,10.121,0,0,0,0,20.2c-.228.014-.456.023-.687.023a10.121,10.121,0,0,1,0-20.242Z" transform="translate(-135.767 -46.016)" fill="#d1d1d6" fill-rule="evenodd"/>
          </g>
        </g>
        <path id="Trazado_1246005" data-name="Trazado 1246005" d="M110.918,129H54.558a1.944,1.944,0,0,1-1.945-1.944V31.532a1.945,1.945,0,0,1,1.945-1.945h8.991V26.872A2.011,2.011,0,0,1,64.837,25l2.468-.95a19.7,19.7,0,0,1,1.566-3.775L67.8,17.853a2.011,2.011,0,0,1,.415-2.239l3.951-3.95a2.011,2.011,0,0,1,2.239-.416l2.418,1.075A19.58,19.58,0,0,1,80.59,10.76l.954-2.473A2.011,2.011,0,0,1,83.421,7h5.588a2.011,2.011,0,0,1,1.877,1.29l.949,2.471a19.579,19.579,0,0,1,3.77,1.562l2.418-1.075a2.011,2.011,0,0,1,2.239.416l3.95,3.95a2.011,2.011,0,0,1,.417,2.236l-1.072,2.419a19.545,19.545,0,0,1,1.564,3.778l2.465.949a2.011,2.011,0,0,1,1.289,1.877v2.715h7.438a1.944,1.944,0,0,1,1.375.57L129.632,42.1a1.944,1.944,0,0,1,.57,1.375V80.69a25.92,25.92,0,0,1,3.779,1.523l7.92-7.924a2.011,2.011,0,0,1,3.388,1l.824,3.825a2.011,2.011,0,0,1,2.831,2.831l3.826.824a2.011,2.011,0,0,1,1,3.388L145.827,94.1a26.072,26.072,0,0,1-34.91,34.9ZM63.824,33.477H56.5v91.63h48.637a26.213,26.213,0,0,1-7.45-11.2h-4.21a1.945,1.945,0,1,1,0-3.889H96.7q-.218-1.262-.311-2.563H93.479a1.944,1.944,0,1,1,0-3.889H96.4a25.907,25.907,0,0,1,4.1-12.106H93.479a1.944,1.944,0,1,1,0-3.889h10.1A26.359,26.359,0,0,1,106.419,85H93.479a1.945,1.945,0,1,1,0-3.889H113.39a26.093,26.093,0,0,1,12.923-1.322V45.421h-10a1.944,1.944,0,0,1-1.945-1.944v-10H108.6a2.008,2.008,0,0,1-1.013.861l-2.466.949a19.745,19.745,0,0,1-1.564,3.77l1.072,2.421a2.011,2.011,0,0,1-.417,2.236l-3.95,3.951a2.011,2.011,0,0,1-2.236.417L95.608,47.01a19.531,19.531,0,0,1-3.773,1.563l-.949,2.466a2.01,2.01,0,0,1-1.877,1.288H83.421a2.011,2.011,0,0,1-1.877-1.288L80.6,48.573a19.711,19.711,0,0,1-3.776-1.565L74.4,48.081a2.011,2.011,0,0,1-2.236-.417l-3.951-3.951a2.011,2.011,0,0,1-.416-2.239l1.075-2.417a19.688,19.688,0,0,1-1.565-3.771l-2.469-.95a2.008,2.008,0,0,1-1.013-.861Zm59.739,8.055-5.305-5.305v5.305Zm8.2,44.076a22.083,22.083,0,1,0,10.652,10.677l-.067-.013-6.065-1.307a17.511,17.511,0,1,1-3.2-3.208l-1.3-6.044C131.777,85.677,131.771,85.643,131.765,85.608Zm10.962-3.122-.591-2.743-6.189,6.192.591,2.74Zm-3.345,9.032,2.744.592,6.188-6.189-2.744-.591Zm-8.953,3.266a13.483,13.483,0,1,0,2.836,2.852l-3.292,3.292a8.877,8.877,0,1,1-2.831-2.856Zm-6.27,6.27a4.852,4.852,0,1,0,2.819,2.869l-3.115,3.115a2.011,2.011,0,0,1-2.844-2.844ZM88.448,13.159l-.821-2.138H84.8l-.826,2.14a2.01,2.01,0,0,1-1.411,1.232,15.566,15.566,0,0,0-4.571,1.894,2.012,2.012,0,0,1-1.872.126l-2.092-.93-2,2,.93,2.092a2.011,2.011,0,0,1-.125,1.872,15.7,15.7,0,0,0-1.9,4.58A2.011,2.011,0,0,1,69.7,27.432l-2.133.821V31.08L69.7,31.9a2.011,2.011,0,0,1,1.233,1.406,15.662,15.662,0,0,0,1.9,4.574,2.011,2.011,0,0,1,.127,1.875l-.93,2.092,2,2,2.093-.927a2.01,2.01,0,0,1,1.865.124,15.685,15.685,0,0,0,4.579,1.9,2.012,2.012,0,0,1,1.413,1.234l.821,2.133h2.827l.821-2.133a2.011,2.011,0,0,1,1.412-1.234,15.49,15.49,0,0,0,4.568-1.892,2.011,2.011,0,0,1,1.872-.128l2.093.927,2-2-.927-2.093a2.011,2.011,0,0,1,.124-1.865,15.718,15.718,0,0,0,1.9-4.575,2.01,2.01,0,0,1,1.234-1.412l2.133-.821V28.253l-2.133-.821a2.01,2.01,0,0,1-1.234-1.413,15.539,15.539,0,0,0-1.894-4.575,2.011,2.011,0,0,1-.127-1.869l.927-2.093-2-2-2.092.93a2.011,2.011,0,0,1-1.872-.126,15.563,15.563,0,0,0-4.571-1.894,2.011,2.011,0,0,1-1.412-1.235Zm-2.236,4.747A11.76,11.76,0,1,1,74.454,29.664,11.759,11.759,0,0,1,86.212,17.906Zm0,4.022a7.739,7.739,0,1,0,7.741,7.736,7.733,7.733,0,0,0-7.741-7.736ZM69.449,54.038H81.917a3.58,3.58,0,0,1,3.571,3.571V70.077a3.58,3.58,0,0,1-3.571,3.571H69.449a3.58,3.58,0,0,1-3.571-3.571V57.609A3.58,3.58,0,0,1,69.449,54.038Zm.318,3.889V69.759H81.6V57.927ZM70.991,64.9a1.944,1.944,0,0,1,2.747-2.753l1.207,1.2,2.54-3.141a1.945,1.945,0,0,1,3.024,2.445l-3.9,4.82a1.945,1.945,0,0,1-2.886.154ZM69.449,98.921H81.917a3.587,3.587,0,0,1,3.571,3.577v12.468a3.58,3.58,0,0,1-3.571,3.571H69.449a3.58,3.58,0,0,1-3.571-3.571V102.5A3.587,3.587,0,0,1,69.449,98.921Zm.318,3.889v11.838H81.6V102.81Zm1.224,6.976a1.944,1.944,0,0,1,2.747-2.753l1.207,1.2,2.54-3.142a1.945,1.945,0,0,1,3.024,2.445l-3.9,4.82a1.945,1.945,0,0,1-2.886.154ZM93.479,69.014a1.944,1.944,0,1,1,0-3.889h13.287a1.944,1.944,0,1,1,0,3.889Zm-24.03,7.465H81.917a3.58,3.58,0,0,1,3.571,3.571V92.519a3.58,3.58,0,0,1-3.571,3.571H69.449a3.58,3.58,0,0,1-3.571-3.571V80.05A3.58,3.58,0,0,1,69.449,76.479Zm.318,3.889V92.2H81.6V80.368Zm1.222,6.969a1.944,1.944,0,0,1,2.75-2.75l1.207,1.207,2.539-3.14A1.945,1.945,0,0,1,80.509,85.1l-3.9,4.82a1.945,1.945,0,0,1-2.887.152Zm22.49-24.776a1.945,1.945,0,0,1,0-3.889H113.89a1.945,1.945,0,0,1,0,3.889Z" transform="translate(-52.613 -7)" fill-rule="evenodd"/>
      </g>
    </g>
  </g>
</svg>
