<svg xmlns="http://www.w3.org/2000/svg" width="146" height="130" viewBox="0 0 146 130">
  <g id="Grupo_1201619" data-name="Grupo 1201619" transform="translate(-1147.051 -6619)">
    <g id="Grupo_1201616" data-name="Grupo 1201616" transform="translate(0 -16.868)">
      <g id="Rect치ngulo_410589" data-name="Rect치ngulo 410589" transform="translate(1147.051 6674.696)" fill="#ffc94a" stroke="#dfab32" stroke-width="1">
        <rect width="145.631" height="48.544" rx="8" stroke="none"/>
        <rect x="0.5" y="0.5" width="144.631" height="47.544" rx="7.5" fill="none"/>
      </g>
      <g id="Grupo_1201615" data-name="Grupo 1201615" transform="translate(1166.797 6652.369)">
        <path id="Trazado_1246131" data-name="Trazado 1246131" d="M282.677,26.458c-4.842,2.258-22.551,5.734-24.809.892S269.656,11.18,274.5,8.922a9.675,9.675,0,1,1,8.179,17.536Zm0,0" transform="translate(-208.562 -6.082)" fill="#50e199"/>
        <path id="Trazado_1246132" data-name="Trazado 1246132" d="M286.365,29.126a9.591,9.591,0,0,1-3.687,3.011c-4.841,2.256-22.55,5.734-24.807.891a2.837,2.837,0,0,1-.236-1.4c5.921,1.4,17.779-1.146,21.605-2.929a9.672,9.672,0,0,0,4.679-12.855c-.132-.281-.275-.553-.431-.817a9.676,9.676,0,0,1,2.876,14.1Zm0,0" transform="translate(-208.564 -11.761)" fill="#3ad391"/>
        <path id="Trazado_1246133" data-name="Trazado 1246133" d="M185.392,190.613c1.828.853,8.514,2.166,9.367.337s-4.451-6.105-6.279-6.957a3.653,3.653,0,1,0-3.088,6.62Zm0,0" transform="translate(-148.378 -148.27)" fill="#50e199"/>
        <path id="Trazado_1246134" data-name="Trazado 1246134" d="M194.759,200.749c-.853,1.828-7.54.516-9.368-.337a3.649,3.649,0,0,1-1.852-4.658,3.739,3.739,0,0,0,.459.825,3.621,3.621,0,0,0,1.393,1.134c1.586.741,6.825,1.825,8.745.907C194.721,199.445,195.012,200.2,194.759,200.749Zm0,0" transform="translate(-148.377 -158.069)" fill="#3ad391"/>
        <path id="Trazado_1246135" data-name="Trazado 1246135" d="M77.471,384.122a27.3,27.3,0,0,0-6.112.694A34.031,34.031,0,0,0,27.7,390.9,17.979,17.979,0,0,0,7.8,399.31a2.129,2.129,0,0,0,1.845,3.2h90.38a2.131,2.131,0,0,0,1.917-3.061A27.2,27.2,0,0,0,77.471,384.122Zm0,0" transform="translate(-6.084 -306.827)" fill="#c87c5b"/>
        <path id="Trazado_1246136" data-name="Trazado 1246136" d="M100.031,402.5h-.3A27.211,27.211,0,0,0,72.16,391.459a2.107,2.107,0,0,1-1.5-.26A34.028,34.028,0,0,0,28.5,396.844a2.127,2.127,0,0,1-1.919.631,17.98,17.98,0,0,0-16,5.03H9.65a2.13,2.13,0,0,1-1.844-3.2A17.975,17.975,0,0,1,27.7,390.9a34.028,34.028,0,0,1,43.66-6.086,27.22,27.22,0,0,1,30.589,14.626A2.131,2.131,0,0,1,100.031,402.5Zm0,0" transform="translate(-6.085 -306.827)" fill="#a46243"/>
        <path id="Trazado_1246137" data-name="Trazado 1246137" d="M162.2,257.578v-2.321a4.913,4.913,0,0,1,4.913-4.913h10.764v7.234Zm0,0" transform="translate(-131.306 -202.262)" fill="#eea97b"/>
        <path id="Trazado_1246138" data-name="Trazado 1246138" d="M283.178,257.578v-2.321a4.913,4.913,0,0,0-4.914-4.913H267.5v7.234Zm0,0" transform="translate(-216.556 -202.262)" fill="#f4bb91"/>
        <path id="Trazado_1246139" data-name="Trazado 1246139" d="M247.652,94.83h-5.14V31.719a2.57,2.57,0,1,1,5.14,0Zm0,0" transform="translate(-196.327 -23.192)" fill="#a46243"/>
        <path id="Trazado_1246140" data-name="Trazado 1246140" d="M64.2,283.883H36.035v16.59H64.127Zm0,0" transform="translate(-29.173 -229.414)" fill="#eea97b"/>
        <path id="Trazado_1246141" data-name="Trazado 1246141" d="M170.755,283.783a3.742,3.742,0,0,1-1.252,7.27h-.009a3.743,3.743,0,0,1-1.327,7.243h-.01a3.743,3.743,0,0,1,2.414,3.605,3.793,3.793,0,0,1-3.819,3.637h-9.01a9.227,9.227,0,0,1-9.226-9.226V281.787a5.463,5.463,0,0,1,5.463-5.463h16.326a3.743,3.743,0,0,1,.45,7.459Zm0,0" transform="translate(-120.232 -223.295)" fill="#f4bb91"/>
        <path id="Trazado_1246142" data-name="Trazado 1246142" d="M328.078,283.883h28.167v16.59H328.152Zm0,0" transform="translate(-265.598 -229.414)" fill="#f4bb91"/>
        <path id="Trazado_1246143" data-name="Trazado 1246143" d="M232.719,283.783a3.742,3.742,0,0,0,1.251,7.27h.009a3.743,3.743,0,0,0,1.328,7.243h.009A3.743,3.743,0,0,0,232.9,301.9a3.793,3.793,0,0,0,3.819,3.637h9.01a9.226,9.226,0,0,0,9.225-9.226V281.787a5.463,5.463,0,0,0-5.463-5.463H233.168a3.743,3.743,0,0,0-.449,7.459Zm0,0" transform="translate(-185.733 -223.295)" fill="#fedbbc"/>
        <path id="Trazado_1246144" data-name="Trazado 1246144" d="M134.187,70.208c3.578,1.669,16.665,4.237,18.335.659s-8.712-11.95-12.29-13.619a7.15,7.15,0,0,0-6.044,12.96Zm0,0" transform="translate(-105.289 -45.397)" fill="#50e199"/>
        <path id="Trazado_1246145" data-name="Trazado 1246145" d="M152.519,74.373c-1.669,3.578-14.756,1.009-18.334-.659a7.149,7.149,0,0,1-.307-12.807c-.054.1-.1.2-.153.306a7.151,7.151,0,0,0,3.459,9.5c2.724,1.27,10.951,3.061,15.464,2.268A2.276,2.276,0,0,1,152.519,74.373Zm0,0" transform="translate(-105.288 -48.902)" fill="#3ad391"/>
        <path id="Trazado_1246146" data-name="Trazado 1246146" d="M271.824,162.275c-1.829.853-8.514,2.165-9.367.337s4.451-6.105,6.279-6.958a3.653,3.653,0,1,1,3.088,6.621Zm0,0" transform="translate(-212.399 -125.328)" fill="#50e199"/>
        <path id="Trazado_1246147" data-name="Trazado 1246147" d="M273.215,170.937a3.6,3.6,0,0,1-1.39,1.135c-1.828.853-8.514,2.165-9.368.337-.254-.545.038-1.3.623-2.129,1.919.918,7.159-.166,8.745-.9a3.622,3.622,0,0,0,1.39-1.137,3.692,3.692,0,0,0,.459-.825A3.649,3.649,0,0,1,273.215,170.937Zm0,0" transform="translate(-212.399 -135.126)" fill="#3ad391"/>
        <path id="Trazado_1246148" data-name="Trazado 1246148" d="M97.147,91.992A28.577,28.577,0,0,0,90.6,83.27a1.428,1.428,0,0,0-1.918,2.117,25.744,25.744,0,0,1,5.9,7.854.682.682,0,0,1-.036.678.694.694,0,0,1-.6.33H3.565a.692.692,0,0,1-.61-.354.672.672,0,0,1,0-.695,16.552,16.552,0,0,1,18.313-7.74,1.431,1.431,0,0,0,1.412-.435A32.746,32.746,0,0,1,29.063,79.5a10.642,10.642,0,0,0,8.447,4.171h9.01a5.281,5.281,0,0,0,2.237-.5,5.233,5.233,0,0,0,2.232.5H60a10.652,10.652,0,0,0,8.913-4.827c.821-.079,1.651-.121,2.474-.121a25.8,25.8,0,0,1,12.178,3.056,1.429,1.429,0,0,0,1.352-2.517,28.682,28.682,0,0,0-13.531-3.4c-.376,0-.753.01-1.13.025a10.625,10.625,0,0,0,.4-2.874v-.53H90.647a1.428,1.428,0,1,0,0-2.857H70.653V58.493a6.851,6.851,0,0,0-.509-2.6h20.5a1.428,1.428,0,1,0,0-2.857h-22.6V53a6.349,6.349,0,0,0-6.341-6.342H52.753v-7.02h.1a16.521,16.521,0,0,0,1.672-.093,20.265,20.265,0,0,0,5.507-1.3,5.081,5.081,0,0,0-4.295-9.209,16.27,16.27,0,0,0-2.98,2.006V24.813a21.484,21.484,0,0,0,3.921.321A58.751,58.751,0,0,0,70.565,23.1a1.428,1.428,0,0,0-.754-2.756c-5.568,1.524-13.154,2.512-17.057,1.553V15.611C56.4,10.978,63.469,5.568,66.542,4.135a8.246,8.246,0,0,1,8.7,13.856A1.428,1.428,0,1,0,77.053,20.2,11.1,11.1,0,0,0,65.335,1.546c-2.812,1.312-8.429,5.393-12.581,9.731V8.526a4,4,0,1,0-8,0v9.1q-.34-.348-.709-.706a38.8,38.8,0,0,0-8.5-6.362A8.577,8.577,0,1,0,28.295,26.1a38.8,38.8,0,0,0,10.34,2.424,30.764,30.764,0,0,0,3.119.174,15.976,15.976,0,0,0,3-.251v8.9a19.636,19.636,0,0,0-4.051-2.927,5.08,5.08,0,1,0-4.294,9.208,20.739,20.739,0,0,0,7.1,1.393,10.423,10.423,0,0,0,1.244-.071v1.694H35.8a6.349,6.349,0,0,0-6.342,6.341v.046H6.862a1.428,1.428,0,1,0,0,2.857h20.5a6.849,6.849,0,0,0-.51,2.6V69.63H21.712a1.428,1.428,0,1,0,0,2.857h5.144v.53a10.583,10.583,0,0,0,.783,4,35.552,35.552,0,0,0-6.52,5.48A19.407,19.407,0,0,0,.486,91.764a3.558,3.558,0,0,0,3.079,5.342h90.38a3.559,3.559,0,0,0,3.2-5.114ZM29.712,73.017V58.493a4.039,4.039,0,0,1,4.035-4.035h9.066a5.157,5.157,0,0,0-.015,4.6H39.684a1.428,1.428,0,1,0,0,2.857h3.83a5.142,5.142,0,0,0,.1,4.414h-5.5a1.428,1.428,0,1,0,0,2.857h6.731a5.109,5.109,0,0,0,.109,4.385H37a1.428,1.428,0,1,0,0,2.857h9.177a5.158,5.158,0,0,0-.437,2.216,5.027,5.027,0,0,0,.561,2.17H37.51A7.806,7.806,0,0,1,29.712,73.017ZM60,80.815h-9.01A2.371,2.371,0,0,1,48.6,78.566a2.319,2.319,0,0,1,1.284-2.137H60.508a1.428,1.428,0,1,0,0-2.857H49.575a2.314,2.314,0,0,1-1.03-4.386H59.4a1.428,1.428,0,1,0,0-2.857H48.238a2.314,2.314,0,0,1-.973-4.413H57.826a1.428,1.428,0,1,0,0-2.857H47.1a2.313,2.313,0,0,1,.341-4.6H63.763A4.039,4.039,0,0,1,67.8,58.493V73.017A7.807,7.807,0,0,1,60,80.815ZM61.708,49.51A3.489,3.489,0,0,1,64.942,51.7a6.931,6.931,0,0,0-1.18-.1H52.753V49.51Zm-8.16-15.385a17.332,17.332,0,0,1,3.394-2.5,2.224,2.224,0,0,1,1.879,4.032,17.37,17.37,0,0,1-4.1.99,8.576,8.576,0,0,1-3.261-.013A8.6,8.6,0,0,1,53.547,34.125ZM38.926,25.687A35.927,35.927,0,0,1,29.5,23.516a5.721,5.721,0,1,1,4.836-10.37,35.9,35.9,0,0,1,7.721,5.824c3.348,3.247,4.153,5.306,3.877,5.9S43.566,26.163,38.926,25.687Zm9.6.387c.62-1.33.312-2.984-.912-4.94V8.526a1.142,1.142,0,1,1,2.283,0v25.3c-1.283,1.6-1.657,2.935-1.132,4.059a2.538,2.538,0,0,0,1.132,1.17V51.6H47.613V27.244A3.382,3.382,0,0,0,48.525,26.074ZM37.618,41.049a2.224,2.224,0,1,1,1.88-4.031,17.416,17.416,0,0,1,5.258,4.6v.471A16.872,16.872,0,0,1,37.618,41.049ZM35.8,49.51h8.955V51.6H33.747a6.931,6.931,0,0,0-1.18.1A3.489,3.489,0,0,1,35.8,49.51Zm0,0" transform="translate(0 0)"/>
        <path id="Trazado_1246149" data-name="Trazado 1246149" d="M384.719,458.848h-.01a1.428,1.428,0,0,0-.01,2.857h.036a1.428,1.428,0,0,0,.01-2.857Zm0,0" transform="translate(-310.287 -371.057)"/>
        <path id="Trazado_1246150" data-name="Trazado 1246150" d="M366.16,449.9h-.01a1.428,1.428,0,0,0-.01,2.857h.036a1.428,1.428,0,0,0,.01-2.857Zm0,0" transform="translate(-295.263 -363.816)"/>
        <path id="Trazado_1246151" data-name="Trazado 1246151" d="M157.888,449.9h-.01a1.428,1.428,0,0,0-.01,2.857h.036a1.428,1.428,0,0,0,.01-2.857Zm0,0" transform="translate(-126.654 -363.816)"/>
        <path id="Trazado_1246152" data-name="Trazado 1246152" d="M37.767,366.349a1.428,1.428,0,1,0,0-2.857h-7.8a1.428,1.428,0,1,0,0,2.857Zm0,0" transform="translate(-23.101 -293.862)"/>
      </g>
    </g>
    <rect id="Rect치ngulo_410874" data-name="Rect치ngulo 410874" width="146" height="130" transform="translate(1147.051 6619)" fill="none"/>
  </g>
</svg>
