<svg xmlns="http://www.w3.org/2000/svg" width="136.684" height="121.182" viewBox="0 0 136.684 121.182">
  <g id="Grupo_1201626" data-name="Grupo 1201626" transform="translate(-300.051 -6619)">
    <g id="Grupo_1201612" data-name="Grupo 1201612" transform="translate(300.983 6634.813)">
      <g id="Rectángulo_410589" data-name="Rectángulo 410589" transform="translate(0 20.542)" fill="#ffc94a" stroke="#dfab32" stroke-width="1">
        <rect width="135.752" height="45.251" rx="8" stroke="none"/>
        <rect x="0.5" y="0.5" width="134.752" height="44.251" rx="7.5" fill="none"/>
      </g>
      <path id="Unión_7" data-name="Unión 7" d="M-150.961,3155.49v-.368a1.544,1.544,0,0,1-1.289-1.521v-14.28q-.148.013-.3.013a3.387,3.387,0,0,1-3.384-3.383v-14.624a6.052,6.052,0,0,1,.275-1.805,6.039,6.039,0,0,1,5.794-4.26h.263l.476-.359a15.35,15.35,0,0,1-1.743-2.1,18.11,18.11,0,0,1-2.1-4,3.328,3.328,0,0,1-2.487-3.216,3.324,3.324,0,0,1,1.554-2.812c-.064-1.078-.082-2.223-.082-2.241a9.96,9.96,0,0,1,3.154-7.545,8.926,8.926,0,0,1,1.85-1.315v-4.326h-1.093a5.79,5.79,0,0,1-5.782-5.783,5.79,5.79,0,0,1,5.782-5.783h45.3a1.54,1.54,0,0,1,1.174.543h2.774a1.539,1.539,0,0,1,1.173-.543h21.678a5.79,5.79,0,0,1,5.783,5.783,5.79,5.79,0,0,1-5.783,5.783h-1.093v39.325h1.093a5.789,5.789,0,0,1,5.783,5.782,5.791,5.791,0,0,1-5.783,5.784H-89.508a1.54,1.54,0,0,1-1.174-.544H-93.8a1.538,1.538,0,0,1-1.174.544h-5.974l7.589,15.971a3.634,3.634,0,0,1,.144,2.8,3.636,3.636,0,0,1-1.879,2.08,3.641,3.641,0,0,1-1.571.355,3.64,3.64,0,0,1-1.229-.213,3.636,3.636,0,0,1-2.08-1.88l-9.082-19.111h-1.3v17.54a3.668,3.668,0,0,1-3.665,3.664,3.668,3.668,0,0,1-3.665-3.664v-17.54h-1.055l-9.083,19.112a3.63,3.63,0,0,1-2.08,1.879,3.631,3.631,0,0,1-1.229.213,3.626,3.626,0,0,1-1.571-.356,3.634,3.634,0,0,1-1.877-2.079,3.637,3.637,0,0,1,.143-2.8l3.121-6.566a1.546,1.546,0,0,1,.994-.827l1.418-2.984a1.54,1.54,0,0,1,.014-1.292l2.043-4.3h-9.633V3153.6a1.544,1.544,0,0,1-1.29,1.521v.367a4.072,4.072,0,0,1-4.068,4.067,4.034,4.034,0,0,1-2.526-.879,4.048,4.048,0,0,1-2.524.879A4.073,4.073,0,0,1-150.961,3155.49Zm63.033,2.706c-.014-.064-.52-2.288-1.865-2.352a1.536,1.536,0,0,1-1.467-1.461,1.538,1.538,0,0,1,1.3-1.6,3.2,3.2,0,0,0,1.042-.413,2,2,0,0,0,.988-1.616,1.54,1.54,0,0,1,.71-1.173,1.541,1.541,0,0,1-.71-1.019c-.012-.052-.517-2.289-1.865-2.352a1.538,1.538,0,0,1-1.467-1.462,1.536,1.536,0,0,1,1.3-1.6,3.194,3.194,0,0,0,1.042-.414,2,2,0,0,0,.988-1.615,1.54,1.54,0,0,1,1.4-1.407c.046,0,.092-.006.138-.006a1.544,1.544,0,0,1,1.487,1.133c.014.048.666,2.178,1.986,2.258a1.546,1.546,0,0,1,1.436,1.329,1.546,1.546,0,0,1-1.022,1.666c-.6.218-2.346,1.093-2.371,2.21a1.541,1.541,0,0,1-.715,1.268,1.536,1.536,0,0,1,.686.906c.015.05.667,2.178,1.986,2.257a1.545,1.545,0,0,1,1.436,1.33,1.547,1.547,0,0,1-1.019,1.665c-.61.219-2.349,1.094-2.374,2.21a1.541,1.541,0,0,1-1.406,1.5,1.319,1.319,0,0,1-.136.006A1.543,1.543,0,0,1-87.927,3158.2Zm7.834-3.237c-.012-.056-.783-3.72-3.231-3.836a1.538,1.538,0,0,1-1.468-1.462,1.537,1.537,0,0,1,1.307-1.6,5.123,5.123,0,0,0,1.7-.667,3.468,3.468,0,0,0,1.7-2.778,1.54,1.54,0,0,1,1.4-1.407c.048,0,.094-.006.141-.006a1.544,1.544,0,0,1,1.487,1.135c.019.067,1.026,3.516,3.384,3.657a1.546,1.546,0,0,1,1.436,1.328,1.545,1.545,0,0,1-1.019,1.668,9.34,9.34,0,0,0-2,1.067,3.513,3.513,0,0,0-1.778,2.647,1.539,1.539,0,0,1-1.413,1.5h-.011c-.041,0-.08,0-.118,0A1.544,1.544,0,0,1-80.094,3154.959Z" transform="translate(181.472 -3072.89)"/>
      <g id="Grupo_1201633" data-name="Grupo 1201633" transform="translate(11.551 -11.171)">
        <path id="Trazado_1246185" data-name="Trazado 1246185" d="M217.963,203.045s1.232,4.577,4.78,4.789c0,0-4.736,1.636-4.816,5.134,0,0-.932-4.907-4.673-5.083C213.254,207.886,217.61,207.225,217.963,203.045Z" transform="translate(-126.586 -120.022)" fill="#d6df58"/>
        <path id="Trazado_1246186" data-name="Trazado 1246186" d="M216.969,212.552a.543.543,0,0,1-.533-.44c-.008-.045-.9-4.489-4.165-4.643a.542.542,0,0,1-.056-1.078c.159-.025,3.939-.657,4.249-4.35a.542.542,0,0,1,1.064-.1c.011.042,1.178,4.2,4.289,4.389a.542.542,0,0,1,.145,1.054c-.044.015-4.381,1.559-4.452,4.634a.542.542,0,0,1-.5.528l-.045,0Zm-2.8-5.687a6.319,6.319,0,0,1,2.743,3.209,7.706,7.706,0,0,1,3.235-3.046,6.62,6.62,0,0,1-3.013-3.154,5.82,5.82,0,0,1-2.965,2.991Z" transform="translate(-125.628 -119.064)"/>
        <path id="Trazado_1246187" data-name="Trazado 1246187" d="M198.7,220.025s.872,3.237,3.381,3.387c0,0-3.35,1.157-3.406,3.632,0,0-.659-3.471-3.305-3.6C195.367,223.449,198.449,222.982,198.7,220.025Z" transform="translate(-115.165 -130.863)" fill="#d6df58"/>
        <path id="Trazado_1246188" data-name="Trazado 1246188" d="M197.714,226.629a.543.543,0,0,1-.533-.441c-.006-.03-.616-3.052-2.8-3.155a.542.542,0,0,1-.056-1.078,3.4,3.4,0,0,0,2.871-2.933.542.542,0,0,1,1.064-.1c.008.029.806,2.863,2.89,2.988a.542.542,0,0,1,.145,1.054c-.029.01-2.995,1.068-3.042,3.131a.543.543,0,0,1-.5.528l-.044,0Zm-1.634-4.167a4.635,4.635,0,0,1,1.608,1.909,5.672,5.672,0,0,1,1.939-1.8,4.844,4.844,0,0,1-1.786-1.889A4.322,4.322,0,0,1,196.08,222.462Z" transform="translate(-114.208 -129.906)"/>
        <path id="Trazado_1246189" data-name="Trazado 1246189" d="M198.7,193.367s.872,3.237,3.381,3.388c0,0-3.35,1.157-3.406,3.632,0,0-.659-3.471-3.305-3.6C195.367,196.791,198.449,196.324,198.7,193.367Z" transform="translate(-115.165 -113.843)" fill="#d6df58"/>
        <path id="Trazado_1246190" data-name="Trazado 1246190" d="M197.714,199.971a.543.543,0,0,1-.533-.441c-.006-.03-.616-3.052-2.8-3.155a.542.542,0,0,1-.056-1.078,3.4,3.4,0,0,0,2.871-2.933.542.542,0,0,1,1.064-.1c.008.029.806,2.863,2.89,2.988a.542.542,0,0,1,.144,1.054c-.029.01-2.994,1.067-3.041,3.131a.543.543,0,0,1-.5.528h-.044ZM196.08,195.8a4.633,4.633,0,0,1,1.608,1.909,5.666,5.666,0,0,1,1.94-1.8,4.843,4.843,0,0,1-1.787-1.889A4.321,4.321,0,0,1,196.08,195.8Z" transform="translate(-114.208 -112.885)"/>
        <path id="Trazado_1246191" data-name="Trazado 1246191" d="M66.242,16.56h-45.3a4.241,4.241,0,0,0,0,8.482h72.1a4.241,4.241,0,0,0,0-8.482h-26.8Z" transform="translate(-1.095 -0.958)" fill="#f16c7a"/>
        <path id="Trazado_1246192" data-name="Trazado 1246192" d="M92.084,24.627h-72.1a4.783,4.783,0,0,1,0-9.567h45.3a.542.542,0,1,1,0,1.085h-45.3a3.7,3.7,0,0,0,0,7.4h72.1a3.7,3.7,0,0,0,0-7.4H70.406a.542.542,0,1,1,0-1.085H92.084a4.783,4.783,0,0,1,0,9.567Z" transform="translate(-0.137)"/>
        <path id="Trazado_1246193" data-name="Trazado 1246193" d="M122.273,180.79h4.244v19.082a2.122,2.122,0,1,1-4.244,0Z" transform="translate(-68.497 -105.813)" fill="#87796f"/>
        <path id="Trazado_1246194" data-name="Trazado 1246194" d="M123.438,201.579a2.668,2.668,0,0,1-2.665-2.664V179.832a.542.542,0,0,1,.542-.542h4.244a.542.542,0,0,1,.542.542v19.082A2.668,2.668,0,0,1,123.438,201.579Zm-1.58-21.2v18.539a1.58,1.58,0,0,0,3.16,0V180.375Z" transform="translate(-67.54 -104.855)"/>
        <path id="Trazado_1246195" data-name="Trazado 1246195" d="M78.281,192.4l-3.121,6.568a2.119,2.119,0,1,0,3.829,1.819l9.5-19.993H83.8l-3.09,6.5Z" transform="translate(-38.286 -105.814)" fill="#87796f"/>
        <path id="Trazado_1246196" data-name="Trazado 1246196" d="M76.113,201.579a2.663,2.663,0,0,1-2.4-3.806l3.121-6.568a.542.542,0,0,1,.979.465l-3.121,6.568a1.577,1.577,0,1,0,2.849,1.354l9.133-19.218H83.18l-2.943,6.193a.542.542,0,1,1-.979-.465l3.09-6.5a.542.542,0,0,1,.49-.31H87.53a.542.542,0,0,1,.49.775l-9.5,19.993a2.667,2.667,0,0,1-2.406,1.522Z" transform="translate(-37.326 -104.855)"/>
        <path id="Trazado_1246197" data-name="Trazado 1246197" d="M156.908,201.788a2.118,2.118,0,0,1-2.824-1.005l-9.5-19.993h4.693l8.637,18.174A2.118,2.118,0,0,1,156.908,201.788Z" transform="translate(-82.741 -105.813)" fill="#87796f"/>
        <path id="Trazado_1246198" data-name="Trazado 1246198" d="M155.042,201.579a2.667,2.667,0,0,1-2.406-1.522l-9.5-19.992a.542.542,0,0,1,.49-.775h4.693a.541.541,0,0,1,.49.31l8.637,18.175a2.664,2.664,0,0,1-2.4,3.8Zm-10.559-21.2,9.133,19.218a1.576,1.576,0,0,0,2.1.748h0a1.575,1.575,0,0,0,.747-2.1l-8.49-17.865h-3.492Z" transform="translate(-81.783 -104.855)"/>
        <path id="Trazado_1246199" data-name="Trazado 1246199" d="M35.722,61.824V82.431h66.827V40.021H35.722v21.8Z" transform="translate(-13.237 -15.937)" fill="#fce8cb"/>
        <path id="Trazado_1246200" data-name="Trazado 1246200" d="M101.591,82.015H34.764a.542.542,0,0,1-.542-.542V39.063a.542.542,0,0,1,.542-.542h66.827a.542.542,0,0,1,.542.542v42.41a.543.543,0,0,1-.543.542ZM35.307,80.931h65.743V39.606H35.307Z" transform="translate(-12.28 -14.979)"/>
        <path id="Trazado_1246201" data-name="Trazado 1246201" d="M81.949,165.81H93.483a4.241,4.241,0,1,0,0-8.482H21.636a4.241,4.241,0,0,0,0,8.482H81.949Z" transform="translate(-1.536 -90.833)" fill="#f16c7a"/>
        <path id="Trazado_1246202" data-name="Trazado 1246202" d="M92.525,165.394H80.991a.542.542,0,1,1,0-1.085H92.525a3.7,3.7,0,0,0,0-7.4H20.677a3.7,3.7,0,1,0,0,7.4H75.526a.542.542,0,0,1,0,1.085H20.677a4.783,4.783,0,1,1,0-9.567H92.525a4.783,4.783,0,0,1,0,9.567Z" transform="translate(-0.578 -89.875)"/>
        <path id="Trazado_1246203" data-name="Trazado 1246203" d="M204.063,41.52V82.847h5.423V41.52Z" transform="translate(-120.717 -16.894)" fill="#decaad"/>
        <path id="Trazado_1246204" data-name="Trazado 1246204" d="M86.5,71.615a3.752,3.752,0,1,1-3.752-3.752A3.752,3.752,0,0,1,86.5,71.615Z" transform="translate(-40.869 -33.713)" fill="#d7e057"/>
        <path id="Trazado_1246205" data-name="Trazado 1246205" d="M81.794,74.951a4.294,4.294,0,1,1,4.294-4.294A4.3,4.3,0,0,1,81.794,74.951Zm0-7.5A3.21,3.21,0,1,0,85,70.657,3.213,3.213,0,0,0,81.794,67.448Z" transform="translate(-39.911 -32.755)"/>
        <path id="Trazado_1246206" data-name="Trazado 1246206" d="M111.718,57.02a1.511,1.511,0,0,0-2.334-1.269c0-.008,0-.017,0-.025a1.513,1.513,0,1,0-3.025,0c0,.008,0,.017,0,.025a1.512,1.512,0,1,0-.839,2.781h4.7A1.512,1.512,0,0,0,111.718,57.02Z" transform="translate(-56.848 -24.998)" fill="#8ac6dd"/>
        <path id="Trazado_1246207" data-name="Trazado 1246207" d="M109.266,58.116h-4.7l-.046,0a2.055,2.055,0,0,1,.064-4.108,2.04,2.04,0,0,1,.413.042,2.052,2.052,0,0,1,3.845,0,2.055,2.055,0,1,1,.473,4.068ZM104.6,57.032h4.661a.97.97,0,0,0-.012-1.94.961.961,0,0,0-.526.157.543.543,0,0,1-.837-.478.97.97,0,1,0-1.94,0,.562.562,0,0,1-.283.489.54.54,0,0,1-.553-.009.97.97,0,1,0-.538,1.784h.029Z" transform="translate(-55.89 -24.04)"/>
        <path id="Trazado_1246208" data-name="Trazado 1246208" d="M181.419,88.865a1.511,1.511,0,0,0-2.334-1.269c0-.008,0-.016,0-.025a1.513,1.513,0,0,0-3.025,0c0,.008,0,.017,0,.025a1.512,1.512,0,1,0-.839,2.781h4.7A1.512,1.512,0,0,0,181.419,88.865Z" transform="translate(-101.349 -45.33)" fill="#8ac6dd"/>
        <path id="Trazado_1246209" data-name="Trazado 1246209" d="M178.966,89.961h-4.7l-.047,0a2.055,2.055,0,0,1,.065-4.108,2.039,2.039,0,0,1,.413.042,2.052,2.052,0,0,1,3.845,0,2.055,2.055,0,1,1,.473,4.067ZM174.3,88.877h4.662a.97.97,0,0,0-.012-1.94.963.963,0,0,0-.526.156.542.542,0,0,1-.837-.454c0-.015,0-.043,0-.059a.972.972,0,0,0-1.943.034.562.562,0,0,1-.283.489.539.539,0,0,1-.553-.009.97.97,0,1,0-.538,1.784h.028Z" transform="translate(-100.391 -44.371)"/>
        <path id="Trazado_1246210" data-name="Trazado 1246210" d="M122.833,93.874H93.179a.973.973,0,0,1-.844-1.46l7.988-13.838h0l6.837-11.843a.975.975,0,0,1,1.688,0l6.862,11.885,7.965,13.8A.973.973,0,0,1,122.833,93.874Z" transform="translate(-49.299 -32.68)" fill="#d7e057"/>
        <path id="Trazado_1246211" data-name="Trazado 1246211" d="M121.873,93.457H92.219a1.515,1.515,0,0,1-1.313-2.274l7.987-13.838.021-.035L105.732,65.5a1.5,1.5,0,0,1,1.313-.758h0a1.5,1.5,0,0,1,1.313.757l14.827,25.683a1.515,1.515,0,0,1-1.313,2.273ZM99.813,77.922l-7.968,13.8a.431.431,0,0,0,.374.646h29.653a.424.424,0,0,0,.375-.217.419.419,0,0,0,0-.429L107.42,66.044a.426.426,0,0,0-.374-.216h0a.426.426,0,0,0-.375.217L99.835,77.888l-.022.034Z" transform="translate(-48.339 -31.722)"/>
        <path id="Trazado_1246212" data-name="Trazado 1246212" d="M130.053,78.617a3.006,3.006,0,0,0-1.176.732,3.04,3.04,0,0,1-4.3,0,3.04,3.04,0,0,0-4.3,0,3.038,3.038,0,0,1-4.3,0,3.019,3.019,0,0,0-1.312-.773h0L121.5,66.732a.975.975,0,0,1,1.688,0Z" transform="translate(-63.64 -32.68)" fill="#8ac6dd"/>
        <path id="Trazado_1246213" data-name="Trazado 1246213" d="M125.767,79.824a3.554,3.554,0,0,1-2.534-1.05,2.5,2.5,0,0,0-3.533,0,3.58,3.58,0,0,1-5.065,0,2.464,2.464,0,0,0-1.071-.634.543.543,0,0,1-.329-.794L120.074,65.5a1.5,1.5,0,0,1,1.313-.758h0a1.5,1.5,0,0,1,1.313.757l6.863,11.886a.542.542,0,0,1-.3.785,2.447,2.447,0,0,0-.965.6A3.552,3.552,0,0,1,125.767,79.824Zm-4.3-2.866A3.552,3.552,0,0,1,124,78.008a2.5,2.5,0,0,0,3.532,0,3.538,3.538,0,0,1,.79-.6l-6.561-11.364a.424.424,0,0,0-.374-.215h0a.425.425,0,0,0-.375.216l-6.524,11.3a3.588,3.588,0,0,1,.913.663,2.5,2.5,0,0,0,3.531,0,3.559,3.559,0,0,1,2.534-1.05Z" transform="translate(-62.681 -31.722)"/>
        <path id="Trazado_1246214" data-name="Trazado 1246214" d="M82.384,108.131,80.3,111.739a.6.6,0,0,0,.519.9H99.07a.6.6,0,0,0,.519-.9l-4.9-8.491-4.223-7.315a.6.6,0,0,0-1.039,0l-4.208,7.289h0L83.8,105.669Z" transform="translate(-41.648 -51.444)" fill="#d7e057"/>
        <path id="Trazado_1246215" data-name="Trazado 1246215" d="M98.111,112.222H79.861a1.141,1.141,0,0,1-.988-1.713l4.916-8.516c.006-.01.012-.021.019-.031L88,94.7a1.142,1.142,0,0,1,1.977,0L99.1,110.51a1.141,1.141,0,0,1-.989,1.712Zm-13.4-9.655-2.816,4.878-2.083,3.608a.051.051,0,0,0,0,.056.053.053,0,0,0,.05.029h18.25a.053.053,0,0,0,.05-.029.05.05,0,0,0,0-.055L89.036,95.247a.058.058,0,0,0-.1,0l-4.207,7.288-.019.031Zm-3.285,4.607h0Z" transform="translate(-40.688 -50.486)"/>
        <path id="Trazado_1246216" data-name="Trazado 1246216" d="M103.513,103.249a1.847,1.847,0,0,0-.724.45,1.871,1.871,0,0,1-2.646,0,1.871,1.871,0,0,0-2.646,0,1.87,1.87,0,0,1-2.645,0,1.856,1.856,0,0,0-.807-.476h0l4.209-7.289a.6.6,0,0,1,1.039,0Z" transform="translate(-50.473 -51.444)" fill="#8ac6dd"/>
        <path id="Trazado_1246217" data-name="Trazado 1246217" d="M100.509,103.831a2.4,2.4,0,0,1-1.708-.708,1.36,1.36,0,0,0-1.879,0,2.412,2.412,0,0,1-3.413,0,1.311,1.311,0,0,0-.567-.337.543.543,0,0,1-.328-.794L96.824,94.7a1.142,1.142,0,0,1,1.977,0l4.224,7.315a.542.542,0,0,1-.3.785,1.309,1.309,0,0,0-.513.319A2.392,2.392,0,0,1,100.509,103.831Zm-2.646-2.181a2.4,2.4,0,0,1,1.708.708,1.359,1.359,0,0,0,1.878,0,2.435,2.435,0,0,1,.353-.292l-3.937-6.819a.058.058,0,0,0-.1,0l-3.91,6.771a2.419,2.419,0,0,1,.424.339,1.359,1.359,0,0,0,1.877,0A2.4,2.4,0,0,1,97.862,101.65Z" transform="translate(-49.516 -50.486)"/>
        <path id="Trazado_1246218" data-name="Trazado 1246218" d="M149.931,107.107H128.32a.709.709,0,0,1-.615-1.064l5.821-10.085h0l4.983-8.632a.711.711,0,0,1,1.23,0l5,8.662,5.8,10.055A.709.709,0,0,1,149.931,107.107Z" transform="translate(-71.904 -45.913)" fill="#d7e057"/>
        <path id="Trazado_1246219" data-name="Trazado 1246219" d="M148.972,106.692H127.361a1.251,1.251,0,0,1-1.084-1.878L132.1,94.73c.006-.01.012-.021.019-.031l4.965-8.6a1.253,1.253,0,0,1,2.168,0l10.806,18.717a1.251,1.251,0,0,1-1.085,1.877ZM133.019,95.3l-5.8,10.055a.167.167,0,0,0,.145.251h21.611a.167.167,0,0,0,.145-.25L138.311,86.641a.168.168,0,0,0-.291,0l-4.982,8.631a.3.3,0,0,1-.019.03Z" transform="translate(-70.945 -44.956)"/>
        <path id="Trazado_1246220" data-name="Trazado 1246220" d="M155.193,95.987a2.189,2.189,0,0,0-.857.533,2.215,2.215,0,0,1-3.134,0,2.215,2.215,0,0,0-3.134,0,2.214,2.214,0,0,1-3.133,0,2.2,2.2,0,0,0-.956-.564h0l4.984-8.632a.711.711,0,0,1,1.23,0Z" transform="translate(-82.355 -45.913)" fill="#8ac6dd"/>
        <path id="Trazado_1246221" data-name="Trazado 1246221" d="M151.813,96.756a2.735,2.735,0,0,1-1.951-.808,1.673,1.673,0,0,0-2.366,0,2.757,2.757,0,0,1-3.9,0,1.658,1.658,0,0,0-.716-.424.543.543,0,0,1-.327-.794l4.984-8.631a1.253,1.253,0,0,1,2.168,0l5,8.662a.542.542,0,0,1-.3.785,1.642,1.642,0,0,0-.645.4A2.739,2.739,0,0,1,151.813,96.756Zm-3.134-2.383a2.734,2.734,0,0,1,1.951.809,1.673,1.673,0,0,0,2.365,0,2.716,2.716,0,0,1,.48-.384l-4.709-8.157a.168.168,0,0,0-.291,0l-4.679,8.1a2.757,2.757,0,0,1,.567.436,1.672,1.672,0,0,0,2.365,0,2.742,2.742,0,0,1,1.952-.808Z" transform="translate(-81.399 -44.956)"/>
        <path id="Trazado_1246222" data-name="Trazado 1246222" d="M49.211,120.98a1.824,1.824,0,0,0-1.3-.538H29.029v-3.017H24v3.017H21.016a4.52,4.52,0,0,0-4.526,4.523v14.624a1.84,1.84,0,1,0,3.68,0v-1.895H32.852V124.119H47.91a1.839,1.839,0,0,0,1.3-3.139Z" transform="translate(-0.958 -65.357)" fill="#f7e3c7"/>
        <path id="Trazado_1246223" data-name="Trazado 1246223" d="M17.373,141.014a2.387,2.387,0,0,1-2.384-2.384V124.006a5.064,5.064,0,0,1,5.068-5.065H22.5v-2.474a.542.542,0,0,1,.542-.542h5.025a.542.542,0,0,1,.542.542v2.474H46.952a2.38,2.38,0,0,1,2.381,2.381,2.384,2.384,0,0,1-2.381,2.381H32.436v13.032a.542.542,0,0,1-.542.542H19.754v1.352a2.385,2.385,0,0,1-2.381,2.384Zm2.684-20.988a3.979,3.979,0,0,0-3.983,3.98V138.63a1.3,1.3,0,0,0,2.217.917,1.288,1.288,0,0,0,.379-.917v-1.895a.542.542,0,0,1,.542-.542H31.351V123.16a.542.542,0,0,1,.542-.542H46.952a1.3,1.3,0,0,0,.915-2.215,1.279,1.279,0,0,0-.915-.377H28.071a.542.542,0,0,1-.542-.542v-2.474H23.588v2.474a.542.542,0,0,1-.542.542H20.057Z" transform="translate(0 -64.398)"/>
        <path id="Trazado_1246224" data-name="Trazado 1246224" d="M46.014,125.771v3.678H32.854v13.575H16.492V130.294a4.52,4.52,0,0,1,4.526-4.523h3.3l2.193,2.912,2.193-2.912H46.014Z" transform="translate(-0.96 -70.685)" fill="#8bc0d7"/>
        <path id="Trazado_1246225" data-name="Trazado 1246225" d="M31.9,142.607H15.533a.542.542,0,0,1-.542-.542V129.335a5.064,5.064,0,0,1,5.068-5.065h3.3a.542.542,0,0,1,.433.216l1.76,2.337,1.76-2.337a.543.543,0,0,1,.433-.216H45.056a.542.542,0,0,1,.542.542v3.678a.542.542,0,0,1-.542.542H32.438v13.032A.543.543,0,0,1,31.9,142.607Zm-15.82-1.085H31.353V128.49a.542.542,0,0,1,.542-.542H44.513v-2.593H28.019l-2.031,2.7a.542.542,0,0,1-.866,0l-2.03-2.7H20.059a3.978,3.978,0,0,0-3.983,3.98v12.187Z" transform="translate(-0.001 -69.727)"/>
        <path id="Trazado_1246226" data-name="Trazado 1246226" d="M26.674,173.486h6.341v19.546H26.674Z" transform="translate(-7.46 -101.15)" fill="#87796f"/>
        <path id="Trazado_1246227" data-name="Trazado 1246227" d="M32.058,192.616H25.717a.542.542,0,0,1-.542-.542V172.528a.542.542,0,0,1,.542-.542h6.341a.542.542,0,0,1,.542.542v19.546A.542.542,0,0,1,32.058,192.616Zm-5.8-1.085h5.256V173.071H26.26Z" transform="translate(-6.503 -100.192)"/>
        <path id="Trazado_1246228" data-name="Trazado 1246228" d="M44.213,173.486h6.341v19.546H44.213Z" transform="translate(-18.659 -101.15)" fill="#87796f"/>
        <path id="Trazado_1246229" data-name="Trazado 1246229" d="M49.6,192.616H43.255a.542.542,0,0,1-.542-.542V172.528a.542.542,0,0,1,.542-.542H49.6a.542.542,0,0,1,.542.542v19.546A.542.542,0,0,1,49.6,192.616Zm-5.8-1.085h5.256V173.071H43.8Z" transform="translate(-17.701 -100.192)"/>
        <path id="Trazado_1246230" data-name="Trazado 1246230" d="M35.293,227.549v1.888a2.525,2.525,0,0,1-2.525,2.525h0a2.525,2.525,0,0,1-2.525-2.525v-1.888Z" transform="translate(-9.737 -135.667)" fill="#87796f"/>
        <path id="Trazado_1246231" data-name="Trazado 1246231" d="M31.81,231.548a3.072,3.072,0,0,1-3.071-3.068v-1.888a.542.542,0,0,1,.542-.542h5.054a.542.542,0,0,1,.542.542v1.888A3.071,3.071,0,0,1,31.81,231.548Zm-1.986-4.414v1.346a1.984,1.984,0,0,0,3.969,0v-1.346Z" transform="translate(-8.779 -134.71)"/>
        <path id="Trazado_1246232" data-name="Trazado 1246232" d="M49.266,227.548v1.889a2.525,2.525,0,0,1-5.051,0v-1.889Z" transform="translate(-18.66 -135.666)" fill="#87796f"/>
        <path id="Trazado_1246233" data-name="Trazado 1246233" d="M45.783,231.546a3.067,3.067,0,0,1-3.067-3.067V226.59a.542.542,0,0,1,.542-.542h5.05a.542.542,0,0,1,.542.542v1.889A3.071,3.071,0,0,1,45.783,231.546ZM43.8,227.133v1.346a1.983,1.983,0,1,0,3.965,0v-1.346H43.8Z" transform="translate(-17.703 -134.709)"/>
        <path id="Trazado_1246234" data-name="Trazado 1246234" d="M21.367,91.591a1.78,1.78,0,1,1-1.78-1.78A1.78,1.78,0,0,1,21.367,91.591Z" transform="translate(-1.799 -47.726)" fill="#f5e1c5" fill-rule="evenodd"/>
        <path id="Trazado_1246235" data-name="Trazado 1246235" d="M18.629,92.954a2.322,2.322,0,1,1,2.322-2.322A2.325,2.325,0,0,1,18.629,92.954Zm0-3.559a1.238,1.238,0,1,0,1.238,1.238A1.239,1.239,0,0,0,18.629,89.395Z" transform="translate(-0.841 -46.768)"/>
        <path id="Trazado_1246236" data-name="Trazado 1246236" d="M64.335,91.591a1.78,1.78,0,1,1-1.78-1.78A1.78,1.78,0,0,1,64.335,91.591Z" transform="translate(-29.233 -47.726)" fill="#f5e1c5" fill-rule="evenodd"/>
        <path id="Trazado_1246237" data-name="Trazado 1246237" d="M61.6,92.954a2.322,2.322,0,1,1,2.322-2.322A2.325,2.325,0,0,1,61.6,92.954Zm0-3.559a1.238,1.238,0,1,0,1.238,1.238A1.239,1.239,0,0,0,61.6,89.395Z" transform="translate(-28.275 -46.768)"/>
        <path id="Trazado_1246238" data-name="Trazado 1246238" d="M60.31,74.7a.231.231,0,0,0-.1.057,7.857,7.857,0,0,0-2.538-5.174,3.976,3.976,0,0,1-.723-.883,2.676,2.676,0,0,0,1.509-2.158,2.237,2.237,0,0,0-.131-.737A7.61,7.61,0,0,1,60.6,71.213C60.6,71.483,60.648,74.577,60.31,74.7Z" transform="translate(-26.788 -32.4)" fill="#87796f"/>
        <path id="Trazado_1246239" data-name="Trazado 1246239" d="M59.251,74.342a.543.543,0,0,1-.54-.5,7.3,7.3,0,0,0-2.363-4.817,4.534,4.534,0,0,1-.822-1,.542.542,0,0,1,.182-.743,2.17,2.17,0,0,0,1.249-1.695,1.7,1.7,0,0,0-.1-.558.542.542,0,0,1,.894-.563,8.139,8.139,0,0,1,2.434,5.791v.093c.024,3.421-.221,3.742-.625,3.9A.545.545,0,0,1,59.251,74.342Zm.436-.219h0Zm-2.937-6.244a3.517,3.517,0,0,0,.33.347,8.421,8.421,0,0,1,2.024,2.81c0-.208,0-.434,0-.679v-.1a6.984,6.984,0,0,0-1.189-3.9A3.33,3.33,0,0,1,56.749,67.879Z" transform="translate(-25.832 -31.442)"/>
        <path id="Trazado_1246240" data-name="Trazado 1246240" d="M35.608,74.7a3.967,3.967,0,0,1-.723-.879,8.825,8.825,0,0,1-4.493,1.1,10.8,10.8,0,0,1-1.239-.07,6.157,6.157,0,0,0-6.543,4.136,3.861,3.861,0,0,0-.179.753c0,.033-.008.066-.01.1-.018.225-.029.453-.029.684,0,4.356,4.364,11.046,7.89,11.046,3.693,0,7.889-6.69,7.889-11.046a7.864,7.864,0,0,0-2.563-5.82Z" transform="translate(-4.727 -37.514)" fill="#f5e1c5"/>
        <path id="Trazado_1246241" data-name="Trazado 1246241" d="M29.325,91.147c-3.91,0-8.432-7.012-8.432-11.588,0-.234.01-.479.03-.728.005-.059.009-.094.014-.13a4.378,4.378,0,0,1,.2-.851,6.708,6.708,0,0,1,7.118-4.5,10.26,10.26,0,0,0,1.178.067,8.326,8.326,0,0,0,4.21-1.017.543.543,0,0,1,.747.182,3.44,3.44,0,0,0,.625.759h0a8.453,8.453,0,0,1,2.739,6.219c0,4.68-4.442,11.588-8.432,11.588Zm-1.83-16.758a5.615,5.615,0,0,0-5.327,3.8,3.32,3.32,0,0,0-.155.648L22,78.909c-.018.228-.027.444-.027.649,0,4.319,4.326,10.5,7.347,10.5,3.335,0,7.346-6.452,7.346-10.5a7.365,7.365,0,0,0-2.386-5.419,4.5,4.5,0,0,1-.525-.567,9.87,9.87,0,0,1-4.325.927,11.322,11.322,0,0,1-1.3-.074,5.675,5.675,0,0,0-.638-.036Z" transform="translate(-3.77 -36.557)"/>
        <path id="Trazado_1246242" data-name="Trazado 1246242" d="M35.92,90.738a.77.77,0,1,1-.77-.77A.77.77,0,0,1,35.92,90.738Z" transform="translate(-12.38 -47.826)"/>
        <path id="Trazado_1246243" data-name="Trazado 1246243" d="M51.33,90.738a.77.77,0,1,1-.77-.77A.77.77,0,0,1,51.33,90.738Z" transform="translate(-22.219 -47.826)"/>
        <path id="Trazado_1246244" data-name="Trazado 1246244" d="M31.236,96.679c0,.548-.594.992-1.326.992s-1.326-.444-1.326-.992.594-.992,1.326-.992S31.236,96.131,31.236,96.679Z" transform="translate(-8.679 -51.478)" fill="#f59689"/>
        <path id="Trazado_1246245" data-name="Trazado 1246245" d="M55.16,96.679c0,.548-.594.992-1.326.992s-1.326-.444-1.326-.992.594-.992,1.326-.992S55.16,96.131,55.16,96.679Z" transform="translate(-23.954 -51.478)" fill="#f59689"/>
        <g id="Grupo_1201633-2" data-name="Grupo 1201633" transform="translate(17.179 39.5)">
          <path id="Trazado_1246246" data-name="Trazado 1246246" d="M39.406,107.234a2.783,2.783,0,0,1-2.67-1.666.542.542,0,0,1,.979-.466,1.7,1.7,0,0,0,1.69,1.047,1.768,1.768,0,0,0,1.672-1,.542.542,0,0,1,1.016.38A2.846,2.846,0,0,1,39.406,107.234Z" transform="translate(-31.031 -96.792)"/>
          <path id="Trazado_1246247" data-name="Trazado 1246247" d="M28.479,89.408a3.373,3.373,0,1,1,3.373-3.373A3.377,3.377,0,0,1,28.479,89.408Zm0-5.662a2.289,2.289,0,1,0,2.289,2.289A2.291,2.291,0,0,0,28.479,83.746Z" transform="translate(-23.638 -82.661)"/>
          <path id="Trazado_1246248" data-name="Trazado 1246248" d="M48.034,89.408a3.373,3.373,0,1,1,3.373-3.373A3.377,3.377,0,0,1,48.034,89.408Zm0-5.662a2.289,2.289,0,1,0,2.289,2.289A2.291,2.291,0,0,0,48.034,83.746Z" transform="translate(-36.124 -82.661)"/>
          <path id="Trazado_1246249" data-name="Trazado 1246249" d="M42.718,91.561H41.31a.542.542,0,0,1,0-1.085h1.407a.542.542,0,0,1,0,1.085Z" transform="translate(-33.638 -87.651)"/>
          <path id="Trazado_1246250" data-name="Trazado 1246250" d="M23.131,89.515a.461.461,0,0,1-.055,0l-1.542-.155a.542.542,0,0,1,.109-1.079l1.542.155a.542.542,0,0,1-.054,1.082Z" transform="translate(-21.046 -86.245)"/>
          <path id="Trazado_1246251" data-name="Trazado 1246251" d="M60.672,89.523a.542.542,0,0,1-.063-1.081l1.54-.183a.542.542,0,1,1,.128,1.077l-1.54.183A.559.559,0,0,1,60.672,89.523Z" transform="translate(-46 -86.233)"/>
        </g>
        <path id="Trazado_1246252" data-name="Trazado 1246252" d="M30.7,57.015A8.59,8.59,0,0,0,24.515,59.2a8.464,8.464,0,0,0-2.638,6.392,32.227,32.227,0,0,0,.215,3.5,3.778,3.778,0,0,1,.189-.853,6.157,6.157,0,0,1,6.543-4.135,10.956,10.956,0,0,0,1.239.069c3.315,0,6-1.457,6-3.255S33.609,57.2,30.7,57.015Z" transform="translate(-4.398 -26.777)" fill="#87796f"/>
        <path id="Trazado_1246253" data-name="Trazado 1246253" d="M21.134,68.68a.542.542,0,0,1-.529-.422,31.842,31.842,0,0,1-.228-3.625,8.923,8.923,0,0,1,2.82-6.8,9.183,9.183,0,0,1,6.579-2.319c3.129.2,5.874,2.274,5.874,4.447,0,2.129-2.875,3.8-6.544,3.8a11.551,11.551,0,0,1-1.3-.073,5.62,5.62,0,0,0-5.966,3.767,3.277,3.277,0,0,0-.164.729.542.542,0,0,1-.5.495h-.037Zm8.124-12.095a8.048,8.048,0,0,0-5.323,2.046l-.033.029a7.924,7.924,0,0,0-2.441,5.973c0,.17.01.571.028,1.044a6.741,6.741,0,0,1,6.438-3.066,10.469,10.469,0,0,0,1.178.066c2.96,0,5.46-1.243,5.46-2.713,0-1.416-2.121-3.194-4.857-3.365q-.226-.015-.45-.014Z" transform="translate(-3.44 -25.82)"/>
        <path id="Trazado_1246254" data-name="Trazado 1246254" d="M42.7,136.5l.522-2.667H40.641l.522,2.667Z" transform="translate(-16.378 -75.831)" fill="#d4d853"/>
        <path id="Trazado_1246255" data-name="Trazado 1246255" d="M41.746,136.082h-1.54a.542.542,0,0,1-.532-.438l-.522-2.667a.542.542,0,0,1,.532-.646h2.585a.542.542,0,0,1,.532.646l-.522,2.667A.541.541,0,0,1,41.746,136.082ZM40.651,135H41.3l.31-1.582H40.342Z" transform="translate(-15.42 -74.874)"/>
        <path id="Trazado_1246256" data-name="Trazado 1246256" d="M41.336,141.207H39.8l-1.3,7.868,2.067,2.443,2.067-2.443Z" transform="translate(-15.01 -80.541)" fill="#d4d853"/>
        <path id="Trazado_1246257" data-name="Trazado 1246257" d="M39.608,151.1a.543.543,0,0,1-.414-.192l-2.067-2.443a.544.544,0,0,1-.121-.439l1.3-7.868a.542.542,0,0,1,.535-.454h1.54a.542.542,0,0,1,.535.454l1.3,7.868a.544.544,0,0,1-.121.439l-2.067,2.443A.542.542,0,0,1,39.608,151.1Zm-1.491-3.144,1.491,1.762,1.491-1.762-1.181-7.167H39.3Z" transform="translate(-14.052 -79.582)"/>
        <path id="Trazado_1246258" data-name="Trazado 1246258" d="M46.014,125.771v3.678H32.854v13.575H16.492V130.294a4.52,4.52,0,0,1,4.526-4.523h.777l4.718,13.616,4.721-13.616H46.014Z" transform="translate(-0.96 -70.685)" fill="#87796f"/>
        <path id="Trazado_1246259" data-name="Trazado 1246259" d="M31.9,142.607H15.533a.542.542,0,0,1-.542-.542V129.335a5.064,5.064,0,0,1,5.068-5.065h.777a.542.542,0,0,1,.512.365l4.206,12.137,4.209-12.137a.542.542,0,0,1,.512-.365h14.78a.542.542,0,0,1,.542.542v3.678a.542.542,0,0,1-.542.542H32.438v13.032A.543.543,0,0,1,31.9,142.607Zm-15.82-1.085H31.353V128.49a.542.542,0,0,1,.542-.542H44.513v-2.593H30.661l-4.594,13.251a.542.542,0,0,1-1.025,0l-4.591-13.251h-.392a3.978,3.978,0,0,0-3.983,3.98v12.187Z" transform="translate(-0.001 -69.727)"/>
        <path id="Trazado_1246260" data-name="Trazado 1246260" d="M25.717,152.1a.542.542,0,0,1-.542-.542V139.678a.542.542,0,0,1,1.085,0v11.877A.542.542,0,0,1,25.717,152.1Z" transform="translate(-6.503 -79.218)"/>
        <path id="Trazado_1246261" data-name="Trazado 1246261" d="M35.878,126.537l-1.611,1.212-3.107-4.124,1.611-1.215.913,1.215Z" transform="translate(-10.325 -68.539)" fill="#8bc0d7"/>
        <path id="Trazado_1246262" data-name="Trazado 1246262" d="M33.31,127.333a.541.541,0,0,1-.433-.216l-3.107-4.124a.542.542,0,0,1,.107-.759l1.611-1.215a.537.537,0,0,1,.4-.1.544.544,0,0,1,.358.211l3.107,4.126a.542.542,0,0,1-.107.759l-1.611,1.212A.535.535,0,0,1,33.31,127.333Zm-2.348-4.56,2.454,3.258.744-.56-2.454-3.26Z" transform="translate(-9.367 -67.581)"/>
        <path id="Trazado_1246263" data-name="Trazado 1246263" d="M48.931,123.625l-3.107,4.124-1.614-1.212,2.193-2.912.916-1.215Z" transform="translate(-18.657 -68.539)" fill="#8bc0d7"/>
        <path id="Trazado_1246264" data-name="Trazado 1246264" d="M44.866,127.334a.539.539,0,0,1-.325-.109l-1.614-1.212a.542.542,0,0,1-.108-.76l3.11-4.127a.542.542,0,0,1,.759-.106l1.611,1.215a.542.542,0,0,1,.107.759L45.3,127.118a.541.541,0,0,1-.433.216Zm-.854-1.862.747.561,2.454-3.259-.745-.562Z" transform="translate(-17.699 -67.582)"/>
      </g>
    </g>
    <rect id="Rectángulo_410876" data-name="Rectángulo 410876" width="136.097" height="121.182" transform="translate(300.051 6619)" fill="none"/>
  </g>
</svg>
