<svg xmlns="http://www.w3.org/2000/svg" width="136.752" height="121.182" viewBox="0 0 136.752 121.182">
  <g id="Grupo_1201627" data-name="Grupo 1201627" transform="translate(-300.051 -6618.592)">
    <g id="Grupo_1201612" data-name="Grupo 1201612" transform="translate(300.983 6634.813)">
      <g id="Rect치ngulo_410589" data-name="Rect치ngulo 410589" transform="translate(0.068 21.779)" fill="#ffc94a" stroke="#dfab32" stroke-width="1">
        <rect width="135.752" height="45.251" rx="8" stroke="none"/>
        <rect x="0.5" y="0.5" width="134.752" height="44.251" rx="7.5" fill="none"/>
      </g>
      <g id="Grupo_1201634" data-name="Grupo 1201634" transform="translate(22.068 -2.22)">
        <path id="Trazado_1246265" data-name="Trazado 1246265" d="M63.229,34.558l-1.111,2.42-.205.446-1.741,3.785a4.333,4.333,0,0,0-.311,2.483l-7.642,17a13.489,13.489,0,0,0-1.132,4.1.866.866,0,0,0-.014.134c0,.014-.071,1.472-.163,3.233l-1.535.722L27.18,73.2l-2.321-1.8L13.34,18.242l.842-1.585L52.864,8.732s4.337-1.429,5.5,2.116c.545,1.656,2.717,12.573,4.868,23.71Z" transform="translate(-3.901 -0.716)" fill="#ffdb80"/>
        <path id="Trazado_1246266" data-name="Trazado 1246266" d="M114.074,40.369h-1.212L110.1,46.177a4.256,4.256,0,0,1-5.493,2.088L100.4,57.442A4.175,4.175,0,0,1,98.578,59.4l-1.352,3a5.62,5.62,0,0,1,1.963-.358h14.885Z" transform="translate(-28.434 -10.051)" fill="#e1ebf4"/>
        <path id="Trazado_1246267" data-name="Trazado 1246267" d="M98.7,40.369l-1.989,4.424,2.031-4.424Z" transform="translate(-28.284 -10.051)" fill="#e1ebf4"/>
        <path id="Trazado_1246268" data-name="Trazado 1246268" d="M58.521,30.8,56.15,19.724a2.853,2.853,0,0,0-3.368-2.179L24.848,23.432a2.833,2.833,0,0,0-2.193,3.354l2.377,11.073a2.836,2.836,0,0,0,2.781,2.236,2.8,2.8,0,0,0,.587-.057l27.934-5.887a2.832,2.832,0,0,0,1.8-1.231,2.773,2.773,0,0,0,.389-2.123Zm-2.774.587L27.8,37.264,25.428,26.2l27.955-5.88,2.37,11.059c0,.007,0,.007-.007.007Z" transform="translate(-6.608 -3.359)"/>
        <path id="Trazado_1246269" data-name="Trazado 1246269" d="M56.926,32.549c0,.007,0,.007-.007.007L28.97,38.436,26.6,27.37l27.955-5.88Z" transform="translate(-7.779 -4.53)" fill="#e1ebf4"/>
        <g id="Grupo_1201634-2" data-name="Grupo 1201634" transform="translate(19.876 36.471)">
          <path id="Trazado_1246270" data-name="Trazado 1246270" d="M29.5,56.1a1.417,1.417,0,0,0,.293-.031l4.19-.882a1.415,1.415,0,1,0-.583-2.769l-4.19.882a1.415,1.415,0,0,0,.29,2.8Z" transform="translate(-28.091 -50.038)"/>
          <path id="Trazado_1246271" data-name="Trazado 1246271" d="M31.183,63.927a1.416,1.416,0,0,0,.293-.03l4.189-.882a1.415,1.415,0,1,0-.583-2.769l-4.189.882a1.415,1.415,0,0,0,.29,2.8Z" transform="translate(-28.582 -52.326)"/>
          <path id="Trazado_1246272" data-name="Trazado 1246272" d="M32.861,71.75a1.416,1.416,0,0,0,.293-.03l4.19-.882a1.415,1.415,0,1,0-.583-2.769l-4.19.882a1.415,1.415,0,0,0,.29,2.8Z" transform="translate(-29.073 -54.614)"/>
          <path id="Trazado_1246273" data-name="Trazado 1246273" d="M49.2,51.866a1.415,1.415,0,1,0-.583-2.769l-5.586,1.176a1.415,1.415,0,1,0,.583,2.769Z" transform="translate(-32.132 -49.066)"/>
          <path id="Trazado_1246274" data-name="Trazado 1246274" d="M45,60.9a1.465,1.465,0,0,0,.293-.03l5.586-1.177a1.415,1.415,0,1,0-.583-2.769L44.709,58.1A1.415,1.415,0,0,0,45,60.9Z" transform="translate(-32.622 -51.354)"/>
          <path id="Trazado_1246275" data-name="Trazado 1246275" d="M46.678,68.719a1.416,1.416,0,0,0,.293-.03l5.586-1.177a1.415,1.415,0,1,0-.583-2.769l-5.586,1.177a1.415,1.415,0,0,0,.29,2.8Z" transform="translate(-33.113 -53.641)"/>
        </g>
        <path id="Trazado_1246276" data-name="Trazado 1246276" d="M78.519,83.976l-4.77,2.917a4.249,4.249,0,0,1-6.458-3.625V70.609l-2.57,5.706a13.734,13.734,0,0,1-2.3,3.551l-6.1,6.916a4.247,4.247,0,0,1-7.427-3.01l.089-1.813L26.7,86.653A7.106,7.106,0,0,1,18.29,81.21L9.529,40.369H7.51V90.679H87.836v-6.7Z" transform="translate(-2.196 -10.051)" fill="#e1ebf4"/>
        <path id="Trazado_1246277" data-name="Trazado 1246277" d="M53.491,6.093,14.385,14.328a4.24,4.24,0,0,0-2.7,1.851,4.2,4.2,0,0,0-.589,3.187l10.984,51.2a4.276,4.276,0,0,0,5.062,3.267l23.012-4.847.143-2.922-23.738,5a1.443,1.443,0,0,1-1.712-1.092l-10.983-51.2a1.387,1.387,0,0,1,.195-1.052,1.43,1.43,0,0,1,.912-.623L54.074,8.862a1.481,1.481,0,0,1,.3-.032,1.435,1.435,0,0,1,1.407,1.123h0l5.645,26.311,1.972-4.3L58.553,9.36a4.279,4.279,0,0,0-5.063-3.268Z" transform="translate(-3.217)"/>
        <path id="Trazado_1246278" data-name="Trazado 1246278" d="M70.68,47.1a2.847,2.847,0,0,0-3.368-2.179L60.328,46.4a2.835,2.835,0,0,0-2.193,3.361l1.783,8.3a2.833,2.833,0,0,0,3.368,2.179l6.984-1.472a2.907,2.907,0,0,0,.842-.333l1.351-3.007V55.4ZM69.689,56l-7,1.465-1.776-8.3,7-1.465L69.7,55.991a.007.007,0,0,1,0,.005l-.005,0Z" transform="translate(-16.984 -11.366)"/>
        <path id="Trazado_1246279" data-name="Trazado 1246279" d="M70.868,57.162a.007.007,0,0,1,0,.005l-.005,0-7,1.465-1.776-8.3,7-1.465Z" transform="translate(-18.155 -12.537)" fill="#e1ebf4"/>
        <path id="Trazado_1246280" data-name="Trazado 1246280" d="M34.54,77.509a1.416,1.416,0,0,0,.293-.03L60.858,72,62.3,68.8,34.25,74.709a1.415,1.415,0,0,0,.29,2.8Z" transform="translate(-9.688 -18.366)"/>
        <path id="Trazado_1246281" data-name="Trazado 1246281" d="M36.218,85.7a1.416,1.416,0,0,0,.293-.03L58.473,81.04c.006-.014.011-.029.017-.043L59.9,77.872a1.407,1.407,0,0,0-.228.024l-23.742,5a1.415,1.415,0,0,0,.29,2.8Z" transform="translate(-10.178 -21.019)"/>
        <path id="Trazado_1246282" data-name="Trazado 1246282" d="M105.108,22.131a4.246,4.246,0,0,0-2.314-2.356,5.4,5.4,0,0,0,.092-4.146,5.632,5.632,0,0,0-3.092-3.163,5.861,5.861,0,0,0-7.578,2.851L79.325,43.407a1.438,1.438,0,0,0-.035,1.1,1.339,1.339,0,0,0,.2.34l-8.123,18.05a10.825,10.825,0,0,0-.9,3.248c0,.028-.007.064-.007.092L70,75.608a1.416,1.416,0,0,0,.884,1.38,1.392,1.392,0,0,0,.531.106,1.421,1.421,0,0,0,1.061-.481l6.106-6.927a10.974,10.974,0,0,0,1.833-2.83l8.137-18.064h.021a1.4,1.4,0,0,0,1.288-.828l11.759-25.62.028.014a1.437,1.437,0,0,1,.821.792,1.173,1.173,0,0,1-.042.934L97.021,35.447a1.418,1.418,0,0,0,2.561,1.217l5.406-11.37a4,4,0,0,0,.12-3.163ZM77.839,65.695A8.32,8.32,0,0,1,76.466,67.8l-.007.007-3.432,3.9.255-5.285a8.27,8.27,0,0,1,.658-2.363l8.08-17.929,3.884,1.649ZM87.865,45.537l-5.356-2.278,1.252-2.724L89.167,42.7ZM100.183,18.7,90.348,40.124l-5.406-2.165L94.792,16.5a3,3,0,0,1,3.9-1.422,2.817,2.817,0,0,1,1.557,1.578,2.631,2.631,0,0,1-.064,2.045Z" transform="translate(-20.471 -1.754)"/>
        <path id="Trazado_1246283" data-name="Trazado 1246283" d="M94.338,54.5l-1.3,2.837L87.68,55.054l1.252-2.724Z" transform="translate(-25.642 -13.549)" fill="#ffdb80"/>
        <path id="Trazado_1246284" data-name="Trazado 1246284" d="M106.361,19.867,96.526,41.292,91.12,39.127l9.849-21.46a3,3,0,0,1,3.9-1.422,2.817,2.817,0,0,1,1.557,1.578,2.631,2.631,0,0,1-.064,2.045Z" transform="translate(-26.648 -2.922)" fill="#fc785e"/>
        <path id="Trazado_1246285" data-name="Trazado 1246285" d="M87.157,61.889,79.091,79.8a8.32,8.32,0,0,1-1.373,2.109l-.007.007-3.432,3.9.255-5.285a8.27,8.27,0,0,1,.658-2.363l8.08-17.929Z" transform="translate(-21.723 -15.863)" fill="#81d9e3"/>
        <path id="Trazado_1246286" data-name="Trazado 1246286" d="M115.811,75H98.83A2.829,2.829,0,0,0,96,77.83V93.4a1.418,1.418,0,0,0,2.151,1.21l5.116-3.127a1.451,1.451,0,0,1,.743-.205h11.8a2.829,2.829,0,0,0,2.83-2.83V77.83a2.829,2.829,0,0,0-2.83-2.83Zm0,13.443h-11.8a4.206,4.206,0,0,0-2.215.623L98.83,90.877V77.83h16.981Z" transform="translate(-28.075 -20.179)"/>
        <path id="Trazado_1246287" data-name="Trazado 1246287" d="M116.981,79V89.613h-11.8a4.206,4.206,0,0,0-2.215.623L100,92.047V79Z" transform="translate(-29.245 -21.349)" fill="#98e07e"/>
        <path id="Trazado_1246288" data-name="Trazado 1246288" d="M121.628,61.6v-19.1a4.243,4.243,0,0,0-2.088-3.65l-1.231,2.589a1.406,1.406,0,0,1,.489,1.061V61.6Z" transform="translate(-34.599 -9.605)"/>
        <path id="Trazado_1246289" data-name="Trazado 1246289" d="M89.151,88.976H87.029v-5.66H84.2v5.66H6.368v-46.7a1.411,1.411,0,0,1,1.217-1.394L6.991,38.11a4.245,4.245,0,0,0-3.453,4.167v46.7H1.415A1.419,1.419,0,0,0,0,90.391a7.087,7.087,0,0,0,7.076,7.076H83.491a7.087,7.087,0,0,0,7.076-7.076,1.419,1.419,0,0,0-1.415-1.415Zm-5.66,5.66H7.076a4.255,4.255,0,0,1-4-2.83H87.5a4.255,4.255,0,0,1-4,2.83Z" transform="translate(0 -9.391)"/>
        <path id="Trazado_1246290" data-name="Trazado 1246290" d="M88.765,114a4.255,4.255,0,0,1-4,2.83H8.345a4.255,4.255,0,0,1-4-2.83Z" transform="translate(-1.269 -31.585)" fill="#fc785e"/>
        <path id="Trazado_1246291" data-name="Trazado 1246291" d="M51.467,69.553,51.4,70.982,27.729,75.964a1.432,1.432,0,0,1-1.712-1.09l-10.981-51.2a1.34,1.34,0,0,1,.106-.906L26.016,73.459a1.432,1.432,0,0,0,1.712,1.09Z" transform="translate(-4.387 -4.904)" fill="#ad9359" opacity="0.45"/>
        <path id="Trazado_1246292" data-name="Trazado 1246292" d="M94.338,55.133l-1.3,2.837L87.68,55.692l.545-1.182,4.811,2.045.75-1.642Z" transform="translate(-25.642 -14.187)" fill="#ad9359" opacity="0.45"/>
        <path id="Trazado_1246293" data-name="Trazado 1246293" d="M100,79h16.981v1.415H100Z" transform="translate(-29.245 -21.349)" fill="#cbe0c3" opacity="0.6"/>
        <path id="Trazado_1246294" data-name="Trazado 1246294" d="M9,108H86.83v1.415H9Z" transform="translate(-2.632 -29.83)" fill="#9fa5aa" opacity="0.5"/>
        <path id="Trazado_1246295" data-name="Trazado 1246295" d="M56.926,34.953c0,.007,0,.007-.007.007L28.97,40.84,26.6,29.774l.29-.064,2.08,9.715L56.635,33.6Z" transform="translate(-7.779 -6.934)" fill="#9fa5aa" opacity="0.5"/>
        <path id="Trazado_1246296" data-name="Trazado 1246296" d="M62.6,37.432l-.205.446L56.958,12.54a1.438,1.438,0,0,0-1.408-1.125,1.486,1.486,0,0,0-.3.035L16.14,19.679a1.464,1.464,0,0,0-.913.623l-.085.149-.106-.509a1.361,1.361,0,0,1,.191-1.054,1.464,1.464,0,0,1,.913-.623l39.106-8.229a1.486,1.486,0,0,1,.3-.035,1.438,1.438,0,0,1,1.408,1.125Z" transform="translate(-4.387 -1.17)" fill="#f9edd2" opacity="0.5"/>
        <path id="Trazado_1246297" data-name="Trazado 1246297" d="M70.868,57.741a.007.007,0,0,1,0,.005l-.005,0-7,1.465-1.776-8.3.29-.064L63.856,57.8l6.722-1.408Z" transform="translate(-18.155 -13.116)" fill="#9fa5aa" opacity="0.5"/>
        <path id="Trazado_1246298" data-name="Trazado 1246298" d="M106.361,20.721,96.526,42.146,91.12,39.981l.552-1.2,4.854,1.946,9.835-21.425a2.639,2.639,0,0,0,.141-.4A2.625,2.625,0,0,1,106.361,20.721Z" transform="translate(-26.648 -3.776)" fill="#a54b3f" opacity="0.5"/>
        <path id="Trazado_1246299" data-name="Trazado 1246299" d="M87.157,62.476,79.091,80.392A8.32,8.32,0,0,1,77.719,82.5l-.007.007-3.432,3.9.071-1.5,3.361-3.814.007-.007a8.32,8.32,0,0,0,1.373-2.108L86.62,62.25Z" transform="translate(-21.723 -16.45)" fill="#0f423c" opacity="0.3"/>
        <path id="Trazado_1246300" data-name="Trazado 1246300" d="M116.981,92v1.415h-11.8a4.205,4.205,0,0,0-2.215.623L100,95.849V94.434l2.965-1.811A4.205,4.205,0,0,1,105.179,92Z" transform="translate(-29.245 -25.151)" fill="#528440" opacity="0.3"/>
        <path id="Trazado_1246301" data-name="Trazado 1246301" d="M88.765,114a4.255,4.255,0,0,1-4,2.83H8.345a4.255,4.255,0,0,1-4-2.83h.849a4.208,4.208,0,0,0,3.156,1.415H84.76A4.208,4.208,0,0,0,87.916,114Z" transform="translate(-1.269 -31.585)" fill="#a54b3f" opacity="0.5"/>
      </g>
    </g>
    <rect id="Rect치ngulo_410876" data-name="Rect치ngulo 410876" width="136.097" height="121.182" transform="translate(300.051 6618.592)" fill="none"/>
  </g>
</svg>
