<svg xmlns="http://www.w3.org/2000/svg" width="136.685" height="121.182" viewBox="0 0 136.685 121.182">
  <g id="Grupo_1201630" data-name="Grupo 1201630" transform="translate(-300.051 -6619)">
    <g id="Grupo_1201612" data-name="Grupo 1201612" transform="translate(300.983 6634.813)">
      <g id="Rectángulo_410589" data-name="Rectángulo 410589" transform="translate(0 20.542)" fill="#ffc94a" stroke="#dfab32" stroke-width="1">
        <rect width="135.752" height="45.251" rx="8" stroke="none"/>
        <rect x="0.5" y="0.5" width="134.752" height="44.251" rx="7.5" fill="none"/>
      </g>
      <g id="Grupo_1201638" data-name="Grupo 1201638" transform="translate(1.164 -1.654)">
        <rect id="Rectángulo_410883" data-name="Rectángulo 410883" width="61.561" height="85.992" rx="6" transform="translate(41.496 5.825)" fill="#3282a1"/>
        <path id="Trazado_1246339" data-name="Trazado 1246339" d="M66.437,60.452h53.955V135.82H66.437Z" transform="translate(-21.138 -49.315)" fill="#f1f1ee"/>
        <path id="Trazado_1246340" data-name="Trazado 1246340" d="M145.627,5.137h17.914a4.377,4.377,0,0,1,4.377,4.377v8.2H141.25v-8.2a4.377,4.377,0,0,1,4.377-4.377Z" transform="translate(-82.307 -4.088)" fill="#68c0e0"/>
        <circle id="Elipse_12378" data-name="Elipse 12378" cx="2.085" cy="2.085" r="2.085" transform="translate(63.45 5.232)" fill="#3282a1"/>
        <circle id="Elipse_12379" data-name="Elipse 12379" cx="2.085" cy="2.085" r="2.085" transform="translate(76.933 5.232)" fill="#3282a1"/>
        <path id="Trazado_1246341" data-name="Trazado 1246341" d="M110.137,228.66h10.727v10.727H110.137Z" transform="translate(-56.869 -186.847)" fill="#4eb7a2"/>
        <path id="Trazado_1246342" data-name="Trazado 1246342" d="M110.137,146.252h10.727v10.727H110.137Z" transform="translate(-56.869 -119.468)" fill="#4eb7a2"/>
        <path id="Trazado_1246343" data-name="Trazado 1246343" d="M110.137,311.067h10.727v10.727H110.137Z" transform="translate(-56.869 -254.225)" fill="#e15f4f"/>
        <path id="Trazado_1246344" data-name="Trazado 1246344" d="M239.9,337.164l2.614-12.141,9.527,9.527Z" transform="translate(-162.967 -265.636)" fill="#ffcebf"/>
        <path id="Trazado_1246345" data-name="Trazado 1246345" d="M0,0H13.473V30.5H0Z" transform="translate(101.112 37.811) rotate(45)" fill="#68c0e0"/>
        <path id="Trazado_1246346" data-name="Trazado 1246346" d="M0,0H14.42V3H0Z" transform="translate(102.901 35.35) rotate(45)" fill="#cdcdc6"/>
        <path id="Trazado_1246347" data-name="Trazado 1246347" d="M393.577,182.635l-9.439-9.439,3.872-3.872a3.479,3.479,0,0,1,4.92,0l4.518,4.518a3.479,3.479,0,0,1,0,4.92Z" transform="translate(-280.9 -137.499)" fill="#e15f4f"/>
        <path id="Trazado_1246348" data-name="Trazado 1246348" d="M239.9,367.16l1.174-5.451,4.277,4.277Z" transform="translate(-162.967 -295.632)" fill="#333331"/>
        <path id="Trazado_1246349" data-name="Trazado 1246349" d="M124.219,243.09l-3.092,3.092-1.7-1.7a.912.912,0,0,0-1.29,1.29l2.347,2.346a.912.912,0,0,0,1.29,0l3.737-3.737a.912.912,0,1,0-1.29-1.29Z" transform="translate(-63.19 -198.427)"/>
        <path id="Trazado_1246350" data-name="Trazado 1246350" d="M194.217,234.862h21.1a.912.912,0,1,0,0-1.824h-21.1a.912.912,0,1,0,0,1.824Z" transform="translate(-124.869 -190.427)"/>
        <path id="Trazado_1246351" data-name="Trazado 1246351" d="M119.421,162.073a.912.912,0,1,0-1.29,1.29l2.347,2.346a.912.912,0,0,0,1.29,0l3.737-3.737a.912.912,0,0,0-1.29-1.29l-3.092,3.092Z" transform="translate(-63.187 -131.048)"/>
        <path id="Trazado_1246352" data-name="Trazado 1246352" d="M194.217,152.455h21.1a.912.912,0,1,0,0-1.824h-21.1a.912.912,0,1,0,0,1.824Z" transform="translate(-124.869 -123.048)"/>
        <path id="Trazado_1246353" data-name="Trazado 1246353" d="M194.217,192.515h21.1a.912.912,0,1,0,0-1.824h-21.1a.912.912,0,1,0,0,1.824Z" transform="translate(-124.869 -155.802)"/>
        <path id="Trazado_1246354" data-name="Trazado 1246354" d="M125.975,319.8a.912.912,0,0,0-1.29,0l-2.263,2.263-2.263-2.263a.912.912,0,1,0-1.29,1.29l2.263,2.263-2.263,2.263a.912.912,0,1,0,1.29,1.29l2.263-2.263,2.263,2.263a.912.912,0,0,0,1.29-1.29l-2.263-2.263,2.263-2.263a.912.912,0,0,0,0-1.29Z" transform="translate(-63.79 -261.149)"/>
        <path id="Trazado_1246355" data-name="Trazado 1246355" d="M118.347,36.852l-6.826-6.826a2.763,2.763,0,0,0-3.9,0l-3.65,3.65V10.235a5.328,5.328,0,0,0-5.322-5.322H86.5A5.3,5.3,0,0,0,81.234.137H63.319a5.3,5.3,0,0,0-5.263,4.776H45.906a5.328,5.328,0,0,0-5.322,5.322V87.407a5.328,5.328,0,0,0,5.322,5.322H98.647a5.328,5.328,0,0,0,5.322-5.322V55.31l6.754-6.754a.885.885,0,0,0,.9-.227l2.125-2.125a.909.909,0,0,0,.18-1.026l4.422-4.422a2.763,2.763,0,0,0,0-3.9Zm-16.2-26.618v24.6l-1.979,1.979V11.137a.912.912,0,0,0-.912-.912H86.522V6.736H98.647a3.5,3.5,0,0,1,3.5,3.5Zm-1.032,28.876,1.257,1.257L82.095,60.643l-1.257-1.257ZM78.645,67.906l1.91,1.91-2.434.524Zm4.033,1.452L79.1,65.784l.984-4.568,7.159,7.159Zm.706-7.425L103.66,41.657,106.8,44.8,86.529,65.078ZM59.854,5.426a3.469,3.469,0,0,1,3.465-3.465H81.234A3.469,3.469,0,0,1,84.7,5.426v7.291H59.854ZM85.61,14.54a.912.912,0,0,0,.912-.912v-1.58h11.82V39.3L87.728,49.918H69.348a.912.912,0,1,0,0,1.824H85.9l-5.9,5.9H69.348a.912.912,0,1,0,0,1.824H78.6l-1.181,5.482h-8.07a.912.912,0,1,0,0,1.824h7.678l-.983,4.566a.912.912,0,0,0,1.083,1.083l12.141-2.614a.912.912,0,0,0,.453-.247l8.623-8.623V85.593H46.211V12.049h11.82v1.58a.912.912,0,0,0,.912.912Zm16.535,72.867a3.5,3.5,0,0,1-3.5,3.5H45.906a3.5,3.5,0,0,1-3.5-3.5V10.235a3.5,3.5,0,0,1,3.5-3.5H58.031v3.488H45.3a.912.912,0,0,0-.912.912V86.5a.912.912,0,0,0,.912.912H99.254a.912.912,0,0,0,.912-.912V59.112l1.979-1.979ZM89.075,67.624l-1.257-1.257,20.276-20.276,1.257,1.257Zm21.9-21.231-8.907-8.907.835-.835,8.907,8.907Zm6.082-6.928-4.38,4.38L104.528,35.7l4.38-4.381a.937.937,0,0,1,1.323,0l6.826,6.826A.936.936,0,0,1,117.057,39.465Z"/>
        <path id="Trazado_1246356" data-name="Trazado 1246356" d="M163.967,23.078a3,3,0,1,0,3,3A3,3,0,0,0,163.967,23.078Zm0,4.169a1.173,1.173,0,1,1,1.173-1.173A1.173,1.173,0,0,1,163.967,27.247Z" transform="translate(-98.432 -18.757)"/>
        <path id="Trazado_1246357" data-name="Trazado 1246357" d="M237.9,23.078a3,3,0,1,0,3,3A3,3,0,0,0,237.9,23.078Zm0,4.169a1.173,1.173,0,1,1,1.173-1.173A1.173,1.173,0,0,1,237.9,27.247Z" transform="translate(-158.88 -18.757)"/>
      </g>
    </g>
    <rect id="Rectángulo_410876" data-name="Rectángulo 410876" width="136.097" height="121.182" transform="translate(300.051 6619)" fill="none"/>
  </g>
</svg>
